<?xml version="1.0" standalone="no"?>
<!DOCTYPE svg PUBLIC "-//W3C//DTD SVG 20010904//EN"
 "http://www.w3.org/TR/2001/REC-SVG-20010904/DTD/svg10.dtd">
<svg version="1.0" xmlns="http://www.w3.org/2000/svg"
 width="971.000000pt" height="971.000000pt" viewBox="0 0 971.000000 971.000000"
 preserveAspectRatio="xMidYMid meet">
<metadata>
Created by potrace 1.11, written by Peter Selinger 2001-2013
</metadata>
<g transform="translate(0.000000,971.000000) scale(0.100000,-0.100000)"
fill="#000000" stroke="none">
<path d="M7102 9688 c-24 -11 -54 -36 -68 -54 -23 -30 -118 -254 -108 -254 3
0 -2 -13 -11 -30 -8 -16 -15 -33 -16 -37 0 -10 -36 -133 -56 -193 -8 -25 -17
-53 -19 -62 -2 -10 -6 -26 -8 -35 -3 -10 -25 -88 -49 -173 -49 -168 -107 -377
-156 -560 -50 -184 -182 -684 -186 -700 -4 -17 -107 -414 -165 -635 -21 -82
-71 -276 -110 -430 -39 -154 -89 -350 -112 -435 -22 -85 -41 -161 -43 -170 -4
-22 -204 -807 -266 -1045 -28 -110 -52 -206 -52 -212 -1 -21 -15 -15 -22 10
-16 50 -95 110 -162 120 -81 13 -184 -43 -214 -115 -20 -49 -106 -196 -142
-242 -96 -125 -163 -181 -258 -215 -22 -8 -30 -6 -47 12 -36 40 -72 134 -87
227 -3 19 -7 46 -10 60 -3 14 -7 61 -11 105 -8 118 -39 177 -112 215 -62 32
-136 31 -193 -2 -45 -27 -143 -124 -239 -238 -82 -97 -354 -367 -440 -436
-230 -186 -420 -276 -581 -276 -117 0 -163 34 -222 162 -27 58 -31 76 -33 175
-2 116 8 238 27 316 6 26 12 55 13 65 3 17 13 19 87 20 180 2 302 26 459 91
222 91 483 275 705 498 148 149 208 231 260 360 39 96 42 230 6 319 -57 143
-246 264 -419 270 -189 7 -441 -74 -642 -205 -248 -161 -486 -439 -636 -744
-21 -44 -40 -82 -41 -84 -2 -2 -11 3 -21 12 -49 44 -139 59 -195 32 -137 -65
-157 -223 -40 -325 72 -63 93 -80 102 -80 20 0 20 -21 2 -112 -42 -204 -56
-442 -34 -571 26 -153 104 -313 202 -413 29 -30 51 -54 49 -54 -13 0 -620
-213 -709 -248 -35 -14 -81 -65 -96 -104 -32 -89 7 -191 89 -234 63 -33 99
-27 342 61 508 182 1133 371 1526 460 76 18 301 66 325 71 17 2 37 7 45 9 8 2
29 7 45 10 17 3 41 7 55 9 157 28 163 29 270 46 200 31 374 51 560 65 153 12
210 13 210 4 0 -5 -49 -209 -110 -454 -60 -245 -112 -456 -114 -468 -6 -29 -8
-37 -51 -212 -20 -82 -38 -158 -40 -168 -2 -10 -18 -75 -35 -145 -37 -151 -35
-140 -53 -222 -8 -36 -43 -189 -77 -340 -82 -365 -156 -710 -176 -825 -2 -16
-7 -37 -9 -45 -2 -8 -7 -31 -10 -50 -3 -19 -8 -48 -11 -63 -6 -30 -8 -39 -19
-132 -4 -33 -9 -63 -11 -66 -5 -9 -17 -147 -19 -224 -4 -167 43 -265 152 -320
183 -92 472 8 891 308 70 50 183 136 252 193 137 112 141 115 250 211 96 86
475 465 561 563 122 138 157 181 362 444 12 16 61 88 110 160 48 72 92 136 97
143 6 7 10 15 10 18 0 3 11 23 25 45 65 103 208 402 220 459 2 9 8 28 14 44
12 31 46 164 56 217 3 19 8 90 10 156 10 327 -115 542 -441 759 -216 143 -555
276 -834 326 -62 11 -93 17 -97 18 -1 1 10 29 24 64 22 55 63 217 76 302 4 25
14 78 41 225 57 305 154 830 160 865 3 17 8 41 11 55 3 14 12 61 20 105 8 44
21 118 30 165 16 86 22 118 50 270 8 47 17 96 20 110 7 33 47 250 51 275 1 11
17 94 34 185 17 91 33 176 35 190 3 14 7 36 10 50 7 33 33 177 40 215 2 17 9
55 15 85 16 80 61 322 64 345 2 11 6 34 9 50 4 17 9 46 12 65 3 19 12 67 20
105 7 39 16 86 19 105 10 60 16 93 26 140 5 25 12 59 15 75 19 110 36 204 40
225 11 53 37 196 41 220 3 14 7 36 9 50 3 14 7 34 9 45 2 11 13 70 25 130 11
61 23 127 27 149 3 21 8 48 10 60 12 57 53 276 59 313 3 23 12 71 19 107 21
97 0 171 -63 221 -60 48 -141 57 -209 23z m-3022 -3916 c28 -14 34 -22 32 -42
-11 -77 -174 -261 -367 -415 -27 -22 -52 -43 -55 -46 -3 -3 -49 -36 -104 -73
-119 -80 -240 -139 -338 -166 -80 -21 -168 -34 -168 -24 0 25 161 283 227 364
53 66 168 177 233 227 188 145 439 226 540 175z m2115 -644 c-10 -45 -20 -96
-22 -113 -5 -29 -19 -53 -26 -44 -5 5 56 250 61 245 2 -3 -4 -42 -13 -88z
m-1779 -900 c9 -29 30 -79 45 -110 16 -32 29 -60 29 -62 0 -3 -17 -8 -37 -12
-109 -20 -186 -34 -213 -39 -14 -3 -36 -7 -50 -10 -14 -2 -38 -7 -55 -11 -26
-5 -8 16 115 144 80 82 146 150 147 151 1 0 9 -23 19 -51z m1570 -462 c528
-39 999 -208 1243 -446 92 -91 123 -164 123 -299 0 -71 -3 -97 -17 -161 -3
-14 -8 -35 -11 -47 -18 -89 -109 -302 -192 -448 -54 -96 -212 -339 -224 -343
-4 -2 -8 -8 -8 -13 0 -5 -6 -17 -14 -26 -8 -10 -63 -79 -123 -154 -179 -226
-269 -325 -503 -559 -178 -177 -213 -210 -365 -341 -267 -230 -548 -425 -721
-502 -77 -34 -85 -34 -80 1 3 15 8 56 11 92 4 36 8 67 10 70 2 3 6 28 9 55 4
28 9 57 11 65 2 8 6 31 9 51 10 66 57 303 101 504 24 110 46 211 49 225 5 30
32 149 46 205 5 22 33 139 60 260 61 262 80 345 125 530 19 77 36 151 39 165
3 14 17 70 30 125 14 55 61 249 105 430 44 182 87 353 95 380 8 28 22 82 31
121 17 71 17 72 48 69 18 -2 68 -6 113 -9z"/>
</g>
</svg>
