<?xml version="1.0" encoding="utf-8"?>
<!-- Generator: Adobe Illustrator 24.1.0, SVG Export Plug-In . SVG Version: 6.00 Build 0)  -->
<svg version="1.1" id="Layer_1" xmlns="http://www.w3.org/2000/svg" xmlns:xlink="http://www.w3.org/1999/xlink" x="0px" y="0px"
	 viewBox="0 0 1408 1076" style="enable-background:new 0 0 1408 1076;" xml:space="preserve">
<style type="text/css">
	.st0{clip-path:url(#SVGID_2_);}
	.st1{fill:#E79D69;}
	.st2{fill:#ED6C6D;}
	.st3{fill:none;}
	.st4{fill:#66848F;}
	.st5{fill:#EFEFEF;}
	.st6{fill:#E0E0E0;}
	.st7{fill:#8FA5AA;}
	.st8{fill:#F8F8F8;}
	.st9{fill:none;stroke:#EFEFEF;stroke-width:0.5;stroke-miterlimit:10;}
	.st10{fill:none;stroke:#F8F8F8;stroke-width:0.5;stroke-miterlimit:10;}
	.st11{fill:#F49095;}
	.st12{fill:#EFB38B;}
</style>
<g id="Capa_2">
	<g>
		<defs>
			<rect id="SVGID_1_" x="-3" width="1412" height="1079"/>
		</defs>
		<clipPath id="SVGID_2_">
			<use xlink:href="#SVGID_1_"  style="overflow:visible;"/>
		</clipPath>
		<g class="st0">
			<path class="st1" d="M790.8,213.1c7,0.4,60.6,3.6,77.7,2.1c0.8-0.1,1.3,0.6,1.4,1.4c0.5,5.8,0.2,25.6,0.2,26.4
				c-0.2,3-70.1-3.6-79.2-2.2c-0.4,0.1-0.6-0.3-0.7-0.7c-0.8-3.7,0-22.4,0-26.4C790.1,213.4,790.4,213.1,790.8,213.1
				C790.8,213.1,790.8,213.1,790.8,213.1z"/>
			<path class="st2" d="M234,245c0,0-5,27-2,27s17,0,22,1s13-1,13-1s6-24,3-27H234z"/>
			<path class="st2" d="M233,272c0,0-5,27-2,27s17,0,22,1s13-1,13-1s6-24,3-27H233z"/>
			<path class="st2" d="M237,299c0,0-5,27-2,27s17,0,22,1s13-1,13-1s6-24,3-27H237z"/>
			<path class="st2" d="M196,300c0,0-5,27-2,27s17,0,22,1s13-1,13-1s6-24,3-27H196z"/>
			<path class="st2" d="M230,328c0,0-5,27-2,27s17,0,22,1s13-1,13-1s6-24,3-27H230z"/>
			<path class="st2" d="M191,326c0,0-5,27-2,27s17,0,22,1s13-1,13-1s6-24,3-27H191z"/>
			<path class="st2" d="M235,355c0,0-5,27-2,27s17,0,22,1s13-1,13-1s6-24,3-27H235z"/>
			<path class="st2" d="M233,381c0,0-5,27-2,27s17,0,22,1s13-1,13-1s6-24,3-27H233z"/>
			<path class="st2" d="M196,351c0,0-5,27-2,27s17,0,22,1s13-1,13-1s6-24,3-27H196z"/>
			<path class="st2" d="M234,407c0,0-5,27-2,27s17,0,22,1s13-1,13-1s6-24,3-27H234z"/>
			<path class="st2" d="M196,377c0,0-5,27-2,27s17,0,22,1s13-1,13-1s6-24,3-27H196z"/>
			<path class="st2" d="M191,404c0,0-5,27-2,27s17,0,22,1s13-1,13-1s6-24,3-27H191z"/>
			<path class="st2" d="M193,435c0,0-5,27-2,27s17,0,22,1s13-1,13-1s6-24,3-27H193z"/>
			<path class="st2" d="M197,469c0,0-5,27-2,27s17,0,22,1s13-1,13-1s6-24,3-27H197z"/>
			<path class="st2" d="M196,495c0,0-5,27-2,27s17,0,22,1s13-1,13-1s6-24,3-27H196z"/>
			<path class="st2" d="M233,469c0,0-5,27-2,27s17,0,22,1s13-1,13-1s6-24,3-27H233z"/>
			<path class="st2" d="M233,493c0,0-5,27-2,27s17,0,22,1s13-1,13-1s6-24,3-27H233z"/>
			<path class="st2" d="M4,455c0,0-2,27,1,27s17,0,22,1s13-1,13-1s3-24,0-27H4z"/>
			<path class="st2" d="M366,247c0,0,2,27,0,28s33-2,38,1c0,0-2-28,0-28L366,247z"/>
			<path class="st2" d="M325,273c0,0,2,27,0,28s33-2,38,1c0,0-2-28,0-28L325,273z"/>
			<path class="st2" d="M369.3,276.1c-1.2,0-2.1,0.9-2.2,2c0,0.1,0,0.1,0,0.2c0.4,6.5,1.5,24.9-0.2,25.7s25.8-1.4,35.4,0.2
				c1.1,0.2,2.2-0.6,2.4-1.7c0-0.2,0-0.3,0-0.5c-0.4-5.6-1-17.7-0.5-22.7c0.1-1.2-0.7-2.2-1.9-2.3c0,0-0.1,0-0.1,0L369.3,276.1z"/>
			<path class="st2" d="M420,248c0,0-5,27-2,27s17,0,22,1s13-1,13-1s6-24,3-27H420z"/>
			<path class="st2" d="M460,248c0,0-5,27-2,27s17,0,22,1s13-1,13-1s6-24,3-27H460z"/>
			<path class="st2" d="M438,277c0,0-2,27,1,27s17,0,22,1s13-1,13-1s3-24,0-27H438z"/>
			<path class="st2" d="M416,306c0,0-2,27,1,27s16.9,1.6,22,1s13-1.6,13-1c0,0,3-24,0-27H416z"/>
			<path class="st2" d="M460,304c0,0-2,27,1,27s16.9,1.6,22,1s13-1.6,13-1c0,0,3-24,0-27H460z"/>
			<path class="st2" d="M418,334c0,0-2,27,1,27s16.9,1.6,22,1s13-1.6,13-1c0,0,3-24,0-27H418z"/>
			<path class="st2" d="M418,362c0,0-2,27,1,27s16.9,1.6,22,1s13-1.6,13-1c0,0,3-24,0-27H418z"/>
			<path class="st2" d="M507,276c0,0-2,27,1,27s16.9,1.6,22,1s13-1.6,13-1c0,0,3-24,0-27H507z"/>
			<path class="st2" d="M509,245c0,0-2,27,1,27s16.9,1.6,22,1s13-1.6,13-1c0,0,3-24,0-27H509z"/>
			<path class="st2" d="M549,247c0,0-2,27,1,27s16.9,1.6,22,1s13-1.6,13-1c0,0,3-24,0-27H549z"/>
			<path class="st2" d="M595,248c0,0-2,27,1,27s16.9,1.6,22,1s13-1.6,13-1c0,0,3-24,0-27H595z"/>
			<path class="st2" d="M634,276c0,0-2,27,1,27s16.9,1.6,22,1s13-1.6,13-1c0,0,3-24,0-27H634z"/>
			<path class="st2" d="M593,304c0,0-2,27,1,27s16.9,1.6,22,1s13-1.6,13-1c0,0,3-24,0-27H593z"/>
			<path class="st2" d="M636,304c0,0-2,27,1,27s16.9,1.6,22,1s13-1.6,13-1c0,0,3-24,0-27H636z"/>
			<path class="st2" d="M639,333c0,0-2,27,1,27s16.9,1.6,22,1s13-1.6,13-1c0,0,3-24,0-27H639z"/>
			<rect x="227.1" y="547.7" class="st3" width="39.8" height="28.3"/>
			<path class="st2" d="M230.1,547.7c0,0-5,27-2,27s17,0,22,1s13-1,13-1s6-24,3-27H230.1z"/>
			<rect x="191.9" y="546.6" class="st3" width="39.8" height="28.3"/>
			<path class="st2" d="M194.8,546.6c0,0-5,27-2,27s17,0,22,1s13-1,13-1s6-24,3-27H194.8z"/>
			<rect x="274.2" y="548.2" class="st3" width="39.8" height="28.3"/>
			<path class="st2" d="M277.2,548.2c0,0-5,27-2,27s17,0,22,1s13-1,13-1s6-24,3-27H277.2z"/>
			<rect x="459.3" y="336.9" class="st3" width="39.8" height="28.3"/>
			<path class="st2" d="M462.3,336.9c0,0-5,27-2,27s17,0,22,1s13-1,13-1s6-24,3-27H462.3z"/>
			<rect x="458.8" y="359.9" class="st3" width="39.8" height="28.3"/>
			<path class="st2" d="M461.7,359.9c0,0-5,27-2,27s17,0,22,1s13-1,13-1s6-24,3-27H461.7z"/>
			<rect x="454.5" y="386.6" class="st3" width="39.8" height="28.3"/>
			<path class="st2" d="M457.5,386.6c0,0-5,27-2,27s17,0,22,1s13-1,13-1s6-24,3-27H457.5z"/>
			<rect x="450.2" y="416.1" class="st3" width="39.8" height="28.3"/>
			<path class="st2" d="M453.2,416.1c0,0-5,27-2,27s17,0,22,1s13-1,13-1s6-24,3-27H453.2z"/>
			<rect x="499.4" y="333.1" class="st3" width="39.8" height="28.3"/>
			<path class="st2" d="M502.4,333.1c0,0-5,27-2,27s17,0,22,1s13-1,13-1s6-24,3-27H502.4z"/>
			<rect x="506.9" y="304.3" class="st3" width="39.8" height="28.3"/>
			<path class="st2" d="M509.9,304.3c0,0-5,27-2,27s17,0,22,1s13-1,13-1s6-24,3-27H509.9z"/>
			<rect x="548.7" y="274.8" class="st3" width="39.8" height="28.3"/>
			<path class="st2" d="M551.6,274.8c0,0-5,27-2,27s17,0,22,1s13-1,13-1s6-24,3-27H551.6z"/>
			<rect x="548.1" y="305.9" class="st3" width="39.8" height="28.3"/>
			<path class="st2" d="M551.1,305.9c0,0-5,27-2,27s17,0,22,1s13-1,13-1s6-24,3-27H551.1z"/>
			<rect x="592" y="277" class="st3" width="39.8" height="28.3"/>
			<path class="st2" d="M594.9,277c0,0-5,27-2,27s17,0,22,1s13-1,13-1s6-24,3-27H594.9z"/>
			<rect x="588.2" y="361" class="st3" width="39.8" height="28.3"/>
			<path class="st2" d="M591.2,361c0,0-5,27-2,27s17,0,22,1s13-1,13-1s6-24,3-27H591.2z"/>
			<rect x="635.8" y="471.7" class="st3" width="39.8" height="28.3"/>
			<path class="st2" d="M638.8,471.7c0,0-5,27-2,27s17,0,22,1s13-1,13-1s6-24,3-27H638.8z"/>
			<rect x="705.6" y="413.8" class="st3" width="39.8" height="28.3"/>
			<path class="st2" d="M708.6,413.8c0,0-5,27-2,27s17,0,22,1s13-1,13-1s6-24,3-27H708.6z"/>
			<rect x="742.8" y="325.1" class="st3" width="39.8" height="28.3"/>
			<path class="st2" d="M745.8,325.1c0,0-5,27-2,27s17,0,22,1s13-1,13-1s6-24,3-27H745.8z"/>
			<rect x="877.6" y="247" class="st3" width="39.8" height="28.3"/>
			<path class="st2" d="M880.6,247c0,0-5,27-2,27s17,0,22,1s13-1,13-1s6-24,3-27H880.6z"/>
			<rect x="825.7" y="249.2" class="st3" width="39.8" height="28.3"/>
			<path class="st2" d="M828.7,249.2c0,0-5,27-2,27s17,0,22,1s13-1,13-1s6-24,3-27H828.7z"/>
			<rect x="915.6" y="246.5" class="st3" width="39.8" height="28.3"/>
			<path class="st2" d="M918.6,246.5c0,0-5,27-2,27s17,0,22,1s13-1,13-1s6-24,3-27L918.6,246.5z"/>
			<rect x="917.2" y="274.3" class="st3" width="39.8" height="28.3"/>
			<path class="st2" d="M920.2,274.3c0,0-5,27-2,27s17,0,22,1s13-1,13-1s6-24,3-27H920.2z"/>
			<rect x="1003.9" y="307.5" class="st3" width="39.8" height="28.3"/>
			<path class="st2" d="M1006.8,307.5c0,0-5,27-2,27s17,0,22,1c5,1,13-1,13-1s6-24,3-27H1006.8z"/>
			<rect x="915.6" y="331" class="st3" width="39.8" height="28.3"/>
			<path class="st2" d="M918.6,331c0,0-5,27-2,27s17,0,22,1s13-1,13-1s6-24,3-27H918.6z"/>
			<rect x="950.5" y="659.5" class="st3" width="39.8" height="28.3"/>
			<path class="st2" d="M953.4,659.5c0,0-5,27-2,27s17,0,22,1s13-1,13-1s6-24,3-27H953.4z"/>
			<rect x="866.9" y="727.8" class="st3" width="39.8" height="28.3"/>
			<path class="st2" d="M869.8,727.8c0,0-5,27-2,27s17,0,22,1s13-1,13-1s6-24,3-27H869.8z"/>
			<rect x="564.1" y="704.7" class="st3" width="39.8" height="28.3"/>
			<path class="st2" d="M567,704.7c0,0-5,27-2,27s17,0,22,1s13-1,13-1s6-24,3-27H567z"/>
			<rect x="472.8" y="624.5" class="st3" width="39.8" height="28.3"/>
			<path class="st2" d="M475.7,624.5c0,0-5,27-2,27s17,0,22,1s13-1,13-1s6-24,3-27H475.7z"/>
			<rect x="912.3" y="657.3" class="st3" width="38" height="28.2"/>
			<path class="st4" d="M912.9,657.3c0,0-2,27,1,27s16.9,1.6,22,1s13-1.6,13-1c0,0,3-24,0-27H912.9z"/>
			<rect x="991.8" y="636.1" class="st3" width="38" height="28.2"/>
			<path class="st4" d="M992.4,636.1c0,0-2,27,1,27s16.9,1.6,22,1s13-1.6,13-1c0,0,3-24,0-27H992.4z"/>
			<rect x="638.6" y="246.8" class="st3" width="38" height="28.1"/>
			<path class="st4" d="M639.2,246.8c0,0-2,27,1,27s16.9,1.6,22,1s13-1.6,13-1c0,0,3-24,0-27H639.2z"/>
			<rect x="704.7" y="244" class="st3" width="38" height="28.1"/>
			<path class="st4" d="M705.3,244c0,0-2,27,1,27s16.9,1.6,22,1s13-1.6,13-1c0,0,3-24,0-27H705.3z"/>
			<rect x="746.8" y="246.3" class="st3" width="38" height="28.2"/>
			<path class="st4" d="M747.5,246.3c0,0-2,27,1,27s16.9,1.6,22,1s13-1.6,13-1c0,0,3-24,0-27L747.5,246.3z"/>
			<rect x="739.4" y="271.3" class="st3" width="38" height="28.1"/>
			<path class="st4" d="M740.1,271.3c0,0-2,27,1,27s16.9,1.6,22,1s13-1.6,13-1c0,0,3-24,0-27H740.1z"/>
			<rect x="743.4" y="297.5" class="st3" width="38" height="28.1"/>
			<path class="st4" d="M744,297.5c0,0-2,27,1,27s16.9,1.6,22,1s13-1.6,13-1c0,0,3-24,0-27H744z"/>
			<rect x="746.8" y="354.5" class="st3" width="38" height="28.1"/>
			<path class="st4" d="M747.5,354.5c0,0-2,27,1,27s16.9,1.6,22,1s13-1.6,13-1c0,0,3-24,0-27H747.5z"/>
			<rect x="828.3" y="277.6" class="st3" width="38" height="28.1"/>
			<path class="st4" d="M828.9,277.6c0,0-2,27,1,27s16.9,1.6,22,1s13-1.6,13-1c0,0,3-24,0-27H828.9z"/>
			<rect x="789.5" y="245.7" class="st3" width="38" height="28.2"/>
			<path class="st4" d="M790.2,245.7c0,0-2,27,1,27s16.9,1.6,22,1s13-1.6,13-1c0,0,3-24,0-27L790.2,245.7z"/>
			<rect x="979.3" y="248" class="st3" width="38" height="28.2"/>
			<path class="st4" d="M979.9,248c0,0-2,27,1,27s16.9,1.6,22,1s13-1.6,13-1c0,0,3-24,0-27H979.9z"/>
			<rect x="1064.7" y="250.3" class="st3" width="38" height="28.2"/>
			<path class="st4" d="M1065.4,250.3c0,0-2,27,1,27s16.9,1.6,22,1s13-1.6,13-1c0,0,3-24,0-27L1065.4,250.3z"/>
			<path class="st2" d="M277,220c0,0-2,27,1,27s16.9,1.6,22,1s13-1.6,13-1c0,0,3-24,0-27H277z"/>
			<rect x="273.7" y="247" class="st3" width="39.8" height="28.3"/>
			<path class="st2" d="M276.6,247c0,0-5,27-2,27s17,0,22,1s13-1,13-1s6-24,3-27H276.6z"/>
			<rect x="275.3" y="272.2" class="st3" width="39.8" height="28.3"/>
			<path class="st2" d="M278.3,272.2c0,0-5,27-2,27s17,0,22,1s13-1,13-1s6-24,3-27H278.3z"/>
			<rect x="265.7" y="298.9" class="st3" width="39.8" height="28.3"/>
			<path class="st2" d="M268.6,298.9c0,0-5,27-2,27s17,0,22,1s13-1,13-1s6-24,3-27H268.6z"/>
			<rect x="267.8" y="328.9" class="st3" width="39.8" height="28.3"/>
			<path class="st2" d="M270.8,328.9c0,0-5,27-2,27s17,0,22,1s13-1,13-1s6-24,3-27H270.8z"/>
			<rect x="272.6" y="355.1" class="st3" width="39.8" height="28.3"/>
			<path class="st2" d="M275.6,355.1c0,0-5,27-2,27s17,0,22,1s13-1,13-1s6-24,3-27H275.6z"/>
			<rect x="272.1" y="382.9" class="st3" width="39.8" height="28.3"/>
			<path class="st2" d="M275,382.9c0,0-5,27-2,27s17,0,22,1s13-1,13-1s6-24,3-27H275z"/>
			<rect x="266.7" y="415" class="st3" width="39.8" height="28.3"/>
			<path class="st2" d="M269.7,415c0,0-5,27-2,27s17,0,22,1s13-1,13-1s6-24,3-27H269.7z"/>
			<rect x="267.3" y="438.5" class="st3" width="39.8" height="28.3"/>
			<path class="st2" d="M270.2,438.5c0,0-5,27-2,27s17,0,22,1s13-1,13-1s6-24,3-27H270.2z"/>
			<rect x="227.1" y="438.5" class="st3" width="39.8" height="28.3"/>
			<path class="st2" d="M230.1,438.5c0,0-5,27-2,27s17,0,22,1s13-1,13-1s6-24,3-27H230.1z"/>
			<rect x="266.7" y="466.4" class="st3" width="39.8" height="28.3"/>
			<path class="st2" d="M269.7,466.4c0,0-5,27-2,27s17,0,22,1s13-1,13-1s6-24,3-27H269.7z"/>
			<rect x="271" y="493.6" class="st3" width="39.8" height="28.3"/>
			<path class="st2" d="M274,493.6c0,0-5,27-2,27s17,0,22,1s13-1,13-1s6-24,3-27H274z"/>
			<rect x="269.4" y="522.5" class="st3" width="39.8" height="28.3"/>
			<path class="st2" d="M272.4,522.5c0,0-5,27-2,27s17,0,22,1s13-1,13-1s6-24,3-27H272.4z"/>
			<rect x="231.4" y="525.7" class="st3" width="39.8" height="28.3"/>
			<path class="st2" d="M234.4,525.7c0,0-5,27-2,27s17,0,22,1c5,1,13-1,13-1s6-24,3-27H234.4z"/>
			<path class="st4" d="M559,628c0,0-2,27,1,27s16.9,1.7,22,1s13-1.6,13-1c0,0,3-24,0-27H559z"/>
			<rect x="512.9" y="658.2" class="st3" width="38" height="28.2"/>
			<path class="st4" d="M513.5,658.2c0,0-2,27,1,27s17,1.7,22,1s13-1.6,13-1c0,0,3-24,0-27H513.5z"/>
			<rect x="518.6" y="683.8" class="st3" width="38" height="28.2"/>
			<path class="st4" d="M519.3,683.8c0,0-2,27,1,27s16.9,1.6,22,1s13-1.6,13-1c0,0,3-24,0-27H519.3z"/>
			<rect x="474.8" y="711.2" class="st3" width="38" height="28.2"/>
			<path class="st4" d="M475.5,711.2c0,0-2,27,1,27s16.9,1.6,22,1s13-1.6,13-1c0,0,3-24,0-27H475.5z"/>
			<rect x="522" y="734.3" class="st3" width="38" height="28.2"/>
			<path class="st4" d="M522.7,734.3c0,0-2,27,1,27s16.9,1.6,22,1s13-1.6,13-1c0,0,3-24,0-27H522.7z"/>
			<rect x="519.6" y="762.8" class="st3" width="38" height="28.2"/>
			<path class="st4" d="M520.3,762.8c0,0-2,27,1,27s16.9,1.7,22,1s13-1.6,13-1c0,0,3-24,0-27H520.3z"/>
			<rect x="565.4" y="789.3" class="st3" width="38" height="28.2"/>
			<path class="st4" d="M566,789.3c0,0-2,27,1,27s16.9,1.7,22,1s13-1.6,13-1c0,0,3-24,0-27H566z"/>
			<rect x="604.9" y="624" class="st3" width="38" height="28.2"/>
			<path class="st4" d="M605.5,624c0,0-2,27,1,27s16.9,1.7,22,1s13-1.6,13-1c0,0,3-24,0-27H605.5z"/>
			<rect x="635.2" y="629.8" class="st3" width="38" height="28.2"/>
			<path class="st4" d="M635.9,629.8c0,0-2,27,1,27s17,1.7,22,1s13-1.6,13-1c0,0,3-24,0-27H635.9z"/>
			<rect x="637.2" y="656.3" class="st3" width="38" height="28.2"/>
			<path class="st4" d="M637.8,656.3c0,0-2,27,1,27s16.9,1.7,22,1s13-1.6,13-1c0,0,3-24,0-27H637.8z"/>
			<rect x="633.3" y="689.1" class="st3" width="38" height="28.2"/>
			<path class="st4" d="M634,689.1c0,0-2,27,1,27s16.9,1.6,22,1s13-1.6,13-1c0,0,3-24,0-27H634z"/>
			<rect x="783.6" y="633.2" class="st3" width="38" height="28.2"/>
			<path class="st4" d="M784.3,633.2c0,0-2,27,1,27s16.9,1.6,22,1s13-1.6,13-1c0,0,3-24,0-27H784.3z"/>
			<rect x="786" y="661.1" class="st3" width="38" height="28.2"/>
			<path class="st4" d="M786.7,661.1c0,0-2,27,1,27s16.9,1.7,22,1s13-1.6,13-1c0,0,3-24,0-27H786.7z"/>
			<rect x="780.8" y="686.2" class="st3" width="38" height="28.2"/>
			<path class="st4" d="M781.4,686.2c0,0-2,27,1,27s16.9,1.6,22,1s13-1.6,13-1c0,0,3-24,0-27H781.4z"/>
			<rect x="783.2" y="711.2" class="st3" width="38" height="28.2"/>
			<path class="st4" d="M783.8,711.2c0,0-2,27,1,27s16.9,1.6,22,1s13-1.6,13-1c0,0,3-24,0-27H783.8z"/>
			<rect x="822.2" y="628.3" class="st3" width="38" height="28.2"/>
			<path class="st4" d="M822.8,628.3c0,0-2,27,1,27s16.9,1.6,22,1s13-1.6,13-1c0,0,3-24,0-27H822.8z"/>
			<rect x="735.9" y="631.2" class="st3" width="38" height="28.2"/>
			<path class="st4" d="M736.6,631.2c0,0-2,27,1,27s17,1.6,22,1s13-1.6,13-1c0,0,3-24,0-27H736.6z"/>
			<rect x="869.4" y="631.2" class="st3" width="38" height="28.2"/>
			<path class="st4" d="M870,631.2c0,0-2,27,1,27s17,1.6,22,1s13-1.6,13-1c0,0,3-24,0-27H870z"/>
			<rect x="912.3" y="632.2" class="st3" width="38" height="28.2"/>
			<path class="st4" d="M912.9,632.2c0,0-2,27,1,27s16.9,1.7,22,1s13-1.6,13-1c0,0,3-24,0-27H912.9z"/>
			<path class="st2" d="M924,300c0,0-2,27,1,27s16.9,1.6,22,1s13-1.6,13-1c0,0,3-24,0-27H924z"/>
			<path class="st2" d="M1006,276c0,0-2,27,1,27s16.9,1.6,22,1c5.1-0.6,13-1.6,13-1c0,0,3-24,0-27H1006z"/>
			<path class="st2" d="M1097,280c0,0-2,27,1,27s16.9,1.6,22,1s13-1.6,13-1c0,0,3-24,0-27H1097z"/>
			<path class="st2" d="M704,272c0,0-2,27,1,27s16.9,1.6,22,1s13-1.6,13-1c0,0,3-24,0-27H704z"/>
			<path class="st2" d="M701,300c0,0-2,27,1,27s16.9,1.6,22,1s13-1.6,13-1c0,0,3-24,0-27H701z"/>
			<path class="st2" d="M704,330c0,0-2,27,1,27s16.9,1.6,22,1s13-1.6,13-1c0,0,3-24,0-27H704z"/>
			<path class="st2" d="M704,355c0,0-2,27,1,27s16.9,1.6,22,1s13-1.6,13-1c0,0,3-24,0-27H704z"/>
			<path class="st2" d="M710,379c0,0-2,27,1,27s16.9,1.6,22,1s13-1.6,13-1c0,0,3-24,0-27H710z"/>
			<path class="st2" d="M753,390c0,0-2,27,1,27s16.9,1.6,22,1s13-1.6,13-1c0,0,3-24,0-27H753z"/>
			<path class="st2" d="M794,276c0,0-2,27,1,27s16.9,1.6,22,1s13-1.6,13-1c0,0,3-24,0-27H794z"/>
			<path class="st2" d="M793,305c0,0-2,27,1,27s16.9,1.6,22,1s13-1.6,13-1c0,0,3-24,0-27H793z"/>
			<path class="st2" d="M791,333c0,0-2,27,1,27s16.9,1.6,22,1s13-1.6,13-1c0,0,3-24,0-27H791z"/>
			<path class="st2" d="M793,360c0,0-2,27,1,27s16.9,1.6,22,1s13-1.6,13-1c0,0,3-24,0-27H793z"/>
			<path class="st2" d="M832,311c0,0-2,27,1,27s16.9,1.6,22,1s13-1.6,13-1c0,0,3-24,0-27H832z"/>
			<path class="st2" d="M834,342c0,0-2,27,1,27s16.9,1.6,22,1s13-1.6,13-1c0,0,3-24,0-27H834z"/>
			<path class="st2" d="M876,276c0,0-2,27,1,27s16.9,1.6,22,1s13-1.6,13-1c0,0,3-24,0-27H876z"/>
			<path class="st1" d="M701.8,211.1c7,0.4,60.6,3.6,77.7,2.1c0.8-0.1,1.3,0.6,1.4,1.4c0.5,5.8,0.2,25.6,0.2,26.4
				c-0.2,3-70.1-3.6-79.2-2.2c-0.4,0.1-0.6-0.3-0.7-0.7c-0.8-3.7,0-22.4,0-26.4C701.1,211.4,701.4,211.1,701.8,211.1
				C701.8,211.1,701.8,211.1,701.8,211.1z"/>
			<path class="st1" d="M876.8,215.1c7,0.4,60.6,3.6,77.7,2.1c0.8-0.1,1.3,0.6,1.4,1.4c0.5,5.8,0.2,25.6,0.2,26.4
				c-0.2,3-70.1-3.6-79.2-2.2c-0.4,0.1-0.6-0.3-0.7-0.7c-0.8-3.7,0-22.4,0-26.4C876.1,215.4,876.4,215.1,876.8,215.1
				C876.8,215.1,876.8,215.1,876.8,215.1z"/>
			<path class="st1" d="M960.8,215.1c7,0.4,60.6,3.6,77.7,2.1c0.8-0.1,1.3,0.6,1.4,1.4c0.5,5.8,0.2,25.6,0.2,26.4
				c-0.2,3-70.1-3.6-79.2-2.2c-0.4,0.1-0.6-0.3-0.7-0.7c-0.8-3.7,0-22.4,0-26.4C960.1,215.4,960.4,215.1,960.8,215.1
				C960.8,215.1,960.8,215.1,960.8,215.1z"/>
			<path class="st1" d="M1048.8,212.1c7,0.4,60.6,3.6,77.7,2.1c0.8-0.1,1.3,0.6,1.4,1.4c0.5,5.8,0.2,25.6,0.2,26.4
				c-0.2,3-70.1-3.6-79.2-2.2c-0.4,0.1-0.6-0.3-0.7-0.7c-0.8-3.7,0-22.4,0-26.4C1048.1,212.4,1048.4,212.1,1048.8,212.1
				C1048.8,212.1,1048.8,212.1,1048.8,212.1z"/>
			<path class="st1" d="M598.8,213.1c7,0.4,60.6,3.6,77.7,2.1c0.8-0.1,1.3,0.6,1.4,1.4c0.5,5.8,0.2,25.6,0.2,26.4
				c-0.2,3-70.1-3.6-79.2-2.2c-0.4,0.1-0.6-0.3-0.7-0.7c-0.8-3.7,0-22.4,0-26.4C598.1,213.4,598.4,213.1,598.8,213.1
				C598.8,213.1,598.8,213.1,598.8,213.1z"/>
			<path class="st1" d="M508.8,211.1c7.1,0.4,60.6,3.6,77.6,2.1c0.8-0.1,1.3,0.6,1.4,1.4c0.5,5.8,0.2,25.6,0.2,26.4
				c-0.2,3-70.1-3.6-79.2-2.2c-0.4,0.1-0.6-0.3-0.7-0.7c-0.8-3.7,0-22.4,0-26.4C508.1,211.4,508.3,211.1,508.8,211.1
				C508.7,211,508.7,211,508.8,211.1z"/>
			<path class="st1" d="M417.8,211.1c7,0.4,60.6,3.6,77.6,2.1c0.8-0.1,1.3,0.6,1.4,1.4c0.5,5.8,0.2,25.6,0.2,26.4
				c-0.2,3-70.1-3.6-79.2-2.2c-0.4,0.1-0.6-0.3-0.7-0.7c-0.8-3.7,0-22.4,0-26.4C417.1,211.4,417.3,211.1,417.8,211.1
				C417.7,211,417.7,211,417.8,211.1z"/>
			<path class="st1" d="M326.8,211.1c7,0.4,60.6,3.6,77.6,2.1c0.8-0.1,1.3,0.6,1.4,1.4c0.5,5.8,0.2,25.6,0.2,26.4
				c-0.2,3-70.1-3.6-79.2-2.2c-0.4,0.1-0.6-0.3-0.7-0.7c-0.8-3.7,0-22.4,0-26.4C326.1,211.4,326.3,211.1,326.8,211.1
				C326.7,211,326.7,211,326.8,211.1z"/>
			<path class="st2" d="M208.8,184.1c7,0.4,60.6,3.6,77.7,2.1c0.8-0.1,1.3,0.6,1.4,1.4c0.5,5.8,0.2,25.6,0.2,26.4
				c-0.2,3-70.1-3.6-79.2-2.2c-0.4,0.1-0.6-0.3-0.7-0.7c-0.8-3.7,0-22.4-0.1-26.4C208.1,184.4,208.3,184.1,208.8,184.1
				C208.7,184,208.7,184,208.8,184.1z"/>
			<path class="st2" d="M226.8,594c7,0.4,60.6,3.6,77.7,2.1c0.8-0.1,1.3,0.6,1.4,1.4c0.5,5.8,0.2,25.6,0.2,26.4
				c-0.2,3-70.1-3.6-79.2-2.2c-0.4,0.1-0.6-0.3-0.7-0.7c-0.8-3.7,0-22.4-0.1-26.3C226.1,594.4,226.3,594.1,226.8,594
				C226.7,594,226.7,594,226.8,594z"/>
			<path class="st2" d="M340.8,594c7,0.4,60.6,3.6,77.6,2.1c0.8-0.1,1.3,0.6,1.4,1.4c0.5,5.8,0.2,25.6,0.2,26.4
				c-0.2,3-70.1-3.6-79.2-2.2c-0.4,0.1-0.6-0.3-0.7-0.7c-0.8-3.7,0-22.4,0-26.3C340.1,594.4,340.3,594.1,340.8,594
				C340.7,594,340.7,594,340.8,594z"/>
			<path class="st2" d="M429.8,594c7,0.4,60.6,3.6,77.6,2.1c0.8-0.1,1.3,0.6,1.4,1.4c0.5,5.8,0.2,25.6,0.2,26.4
				c-0.2,3-70.1-3.6-79.2-2.2c-0.4,0.1-0.6-0.3-0.7-0.7c-0.8-3.7,0-22.4,0-26.3C429.1,594.4,429.3,594.1,429.8,594
				C429.7,594,429.7,594,429.8,594z"/>
			<path class="st2" d="M515.8,594c7,0.4,60.6,3.6,77.7,2.1c0.8-0.1,1.3,0.6,1.4,1.4c0.5,5.8,0.2,25.6,0.2,26.4
				c-0.2,3-70.1-3.6-79.2-2.2c-0.4,0.1-0.6-0.3-0.7-0.7c-0.8-3.7,0-22.4,0-26.3C515.1,594.4,515.4,594.1,515.8,594
				C515.8,594.1,515.8,594.1,515.8,594z"/>
			<path class="st2" d="M599.8,594c7,0.4,60.6,3.6,77.7,2.1c0.8-0.1,1.3,0.6,1.4,1.4c0.5,5.8,0.2,25.6,0.2,26.4
				c-0.2,3-70.1-3.6-79.2-2.2c-0.4,0.1-0.6-0.3-0.7-0.7c-0.8-3.7,0-22.4,0-26.3C599.1,594.4,599.4,594.1,599.8,594
				C599.8,594.1,599.8,594.1,599.8,594z"/>
			<path class="st2" d="M695.8,597c7,0.4,60.6,3.6,77.7,2.1c0.8-0.1,1.3,0.6,1.4,1.4c0.5,5.8,0.2,25.6,0.2,26.4
				c-0.2,3-70.1-3.6-79.2-2.2c-0.4,0.1-0.6-0.3-0.7-0.7c-0.8-3.7,0-22.4,0-26.3C695.1,597.4,695.4,597.1,695.8,597
				C695.8,597.1,695.8,597.1,695.8,597z"/>
			<path class="st2" d="M783.8,597c7,0.4,60.6,3.6,77.7,2.1c0.8-0.1,1.3,0.6,1.4,1.4c0.5,5.8,0.2,25.6,0.2,26.4
				c-0.2,3-70.1-3.6-79.2-2.2c-0.4,0.1-0.6-0.3-0.7-0.7c-0.8-3.7,0-22.4,0-26.3C783.1,597.4,783.4,597.1,783.8,597
				C783.8,597.1,783.8,597.1,783.8,597z"/>
			<path class="st2" d="M866.8,599c7,0.4,60.6,3.6,77.7,2.1c0.8-0.1,1.3,0.6,1.4,1.4c0.5,5.8,0.2,25.6,0.2,26.4
				c-0.2,3-70.1-3.6-79.2-2.2c-0.4,0.1-0.6-0.3-0.7-0.7c-0.8-3.7,0-22.4,0-26.3C866.1,599.4,866.4,599.1,866.8,599
				C866.8,599.1,866.8,599.1,866.8,599z"/>
			<path class="st2" d="M954.8,597c7,0.4,60.6,3.6,77.7,2.1c0.8-0.1,1.3,0.6,1.4,1.4c0.5,5.8,0.2,25.6,0.2,26.4
				c-0.2,3-70.1-3.6-79.2-2.2c-0.4,0.1-0.6-0.3-0.7-0.7c-0.8-3.7,0-22.4,0-26.3C954.1,597.4,954.4,597.1,954.8,597
				C954.8,597.1,954.8,597.1,954.8,597z"/>
			<path class="st2" d="M1038.8,599c7,0.4,60.6,3.6,77.7,2.1c0.8-0.1,1.3,0.6,1.4,1.4c0.5,5.8,0.2,25.6,0.2,26.4
				c-0.2,3-70.1-3.6-79.2-2.2c-0.4,0.1-0.6-0.3-0.7-0.7c-0.8-3.7,0-22.4,0-26.3C1038.1,599.4,1038.4,599.1,1038.8,599
				C1038.8,599.1,1038.8,599.1,1038.8,599z"/>
			<path class="st1" d="M698.8,464c7,0.4,60.6,3.6,77.7,2.1c0.8-0.1,1.3,0.6,1.4,1.4c0.5,5.8,0.2,25.6,0.2,26.4
				c-0.2,3-70.1-3.6-79.2-2.2c-0.4,0.1-0.6-0.3-0.7-0.7c-0.8-3.7,0-22.4,0-26.4C698.1,464.4,698.4,464.1,698.8,464
				C698.8,464.1,698.8,464.1,698.8,464z"/>
			<path class="st1" d="M787.8,461c7,0.4,60.6,3.6,77.7,2.1c0.8-0.1,1.3,0.6,1.4,1.4c0.5,5.8,0.2,25.6,0.2,26.4
				c-0.2,3-70.1-3.6-79.2-2.2c-0.4,0.1-0.6-0.3-0.7-0.7c-0.8-3.7,0-22.4,0-26.4C787.1,461.4,787.4,461.1,787.8,461
				C787.8,461.1,787.8,461.1,787.8,461z"/>
			<path class="st4" d="M876.8,464c7,0.4,60.6,3.6,77.7,2.1c0.8-0.1,1.3,0.6,1.4,1.4c0.5,5.8,0.2,25.6,0.2,26.4
				c-0.2,3-70.1-3.6-79.2-2.2c-0.4,0.1-0.6-0.3-0.7-0.7c-0.8-3.7,0-22.4,0-26.4C876.1,464.4,876.4,464.1,876.8,464
				C876.8,464.1,876.8,464.1,876.8,464z"/>
			<path class="st4" d="M963.8,464c7,0.4,60.6,3.6,77.7,2.1c0.8-0.1,1.3,0.6,1.4,1.4c0.5,5.8,0.2,25.6,0.2,26.4
				c-0.2,3-70.1-3.6-79.2-2.2c-0.4,0.1-0.6-0.3-0.7-0.7c-0.8-3.7,0-22.4,0-26.4C963.1,464.4,963.4,464.1,963.8,464
				C963.8,464.1,963.8,464.1,963.8,464z"/>
			<path class="st1" d="M1056.8,466c7,0.4,60.6,3.6,77.7,2.1c0.8-0.1,1.3,0.6,1.4,1.4c0.5,5.8,0.2,25.6,0.2,26.4
				c-0.2,3-70.1-3.6-79.2-2.2c-0.4,0.1-0.6-0.3-0.7-0.7c-0.8-3.7,0-22.4,0-26.4C1056.1,466.4,1056.4,466.1,1056.8,466
				C1056.8,466.1,1056.8,466.1,1056.8,466z"/>
			<path class="st4" d="M561,734c0,0-2,27,1,27s16.9,1.7,22,1s13-1.6,13-1c0,0,3-24,0-27H561z"/>
			<path class="st4" d="M434,681c0,0-2,27,1,27s16.9,1.7,22,1s13-1.6,13-1c0,0,3-24,0-27H434z"/>
			<path class="st4" d="M953,632c0,0-2,27,1,27s16.9,1.7,22,1s13-1.6,13-1c0,0,3-24,0-27H953z"/>
			<path class="st4" d="M995,670c0,0-2,27,1,27s16.9,1.7,22,1s13-1.6,13-1c0,0,3-24,0-27H995z"/>
			<path class="st4" d="M953,691c0,0-2,27,1,27s16.9,1.7,22,1s13-1.6,13-1c0,0,3-24,0-27H953z"/>
			<path class="st4" d="M1072,677c0,0-2,27,1,27s16.9,1.7,22,1s13-1.6,13-1c0,0,3-24,0-27H1072z"/>
			<path class="st4" d="M1072,639c0,0-2,27,1,27s16.9,1.7,22,1s13-1.6,13-1c0,0,3-24,0-27H1072z"/>
			<path class="st4" d="M-34,323c0,0-2,27,1,27s16.9,1.6,22,1s13-1.6,13-1c0,0,3-24,0-27H-34z"/>
			<path class="st4" d="M-36,355c0,0-2,27,1,27s16.9,1.6,22,1s13-1.6,13-1c0,0,3-24,0-27H-36z"/>
			<path class="st4" d="M-34,418c0,0-2,27,1,27s16.9,1.6,22,1s13-1.6,13-1c0,0,3-24,0-27H-34z"/>
			<path class="st4" d="M11,417c0,0-2,27,1,27s16.9,1.6,22,1s13-1.6,13-1c0,0,3-24,0-27H11z"/>
			<path class="st4" d="M7,387c0,0-2,27,1,27s16.9,1.6,22,1s13-1.6,13-1c0,0,3-24,0-27H7z"/>
			<path class="st4" d="M5,357c0,0-2,27,1,27s16.9,1.6,22,1s13-1.6,13-1c0,0,3-24,0-27H5z"/>
			<path class="st4" d="M11,323c0,0-2,27,1,27s16.9,1.6,22,1s13-1.6,13-1c0,0,3-24,0-27H11z"/>
			<path class="st4" d="M53,323c0,0-2,27,1,27s16.9,1.6,22,1s13-1.6,13-1c0,0,3-24,0-27H53z"/>
			<path class="st4" d="M53,357c0,0-2,27,1,27s16.9,1.6,22,1s13-1.6,13-1c0,0,3-24,0-27H53z"/>
			<path class="st4" d="M53,389c0,0-2,27,1,27s16.9,1.6,22,1s13-1.6,13-1c0,0,3-24,0-27H53z"/>
			<path class="st4" d="M53,418c0,0-2,27,1,27s16.9,1.6,22,1s13-1.6,13-1c0,0,3-24,0-27H53z"/>
			<path class="st4" d="M343,628c0,0-2,27,1,27s16.9,1.7,22,1s13-1.6,13-1c0,0,3-24,0-27H343z"/>
			<path class="st4" d="M224,631c0,0-2,27,1,27s16.9,1.7,22,1s13-1.6,13-1c0,0,3-24,0-27H224z"/>
			<path class="st4" d="M257,628c0,0-2,27,1,27s16.9,1.7,22,1s13-1.6,13-1c0,0,3-24,0-27H257z"/>
			<path class="st4" d="M291,632c0,0-2,27,1,27s16.9,1.7,22,1s13-1.6,13-1c0,0,3-24,0-27H291z"/>
			<path class="st2" d="M192,652c0,0-2,27,1,27s16.9,1.7,22,1s13-1.6,13-1c0,0,3-24,0-27H192z"/>
			<path class="st4" d="M228,652c0,0-2,27,1,27s16.9,1.7,22,1s13-1.6,13-1c0,0,3-24,0-27H228z"/>
			<path class="st4" d="M267,659c0,0-2,27,1,27s16.9,1.7,22,1s13-1.6,13-1c0,0,3-24,0-27H267z"/>
			<path class="st4" d="M189,681c0,0-2,27,1,27s16.9,1.7,22,1s13-1.6,13-1c0,0,3-24,0-27H189z"/>
			<path class="st2" d="M192,710c0,0-2,27,1,27s16.9,1.7,22,1s13-1.6,13-1c0,0,3-24,0-27H192z"/>
			<path class="st4" d="M224,685c0,0-2,27,1,27s16.9,1.7,22,1s13-1.6,13-1c0,0,3-24,0-27H224z"/>
			<path class="st4" d="M257,682c0,0-2,27,1,27s16.9,1.7,22,1s13-1.6,13-1c0,0,3-24,0-27H257z"/>
			<path class="st4" d="M300,681c0,0-2,27,1,27s16.9,1.7,22,1s13-1.6,13-1c0,0,3-24,0-27H300z"/>
			<path class="st4" d="M224,712c0,0-2,27,1,27s16.9,1.7,22,1s13-1.6,13-1c0,0,3-24,0-27H224z"/>
			<path class="st2" d="M260,712c0,0-2,27,1,27s16.9,1.7,22,1s13-1.6,13-1c0,0,3-24,0-27H260z"/>
			<path class="st2" d="M212,729c0,0-2,27,1,27s16.9,1.7,22,1s13-1.6,13-1c0,0,3-24,0-27H212z"/>
			<path class="st4" d="M345,654c0,0-2,27,1,27s16.9,1.7,22,1s13-1.6,13-1c0,0,3-24,0-27H345z"/>
			<path class="st4" d="M383,628c0,0-2,27,1,27s16.9,1.7,22,1s13-1.6,13-1c0,0,3-24,0-27H383z"/>
			<path class="st4" d="M434,631c0,0-2,27,1,27s16.9,1.7,22,1s13-1.6,13-1c0,0,3-24,0-27H434z"/>
			<path class="st4" d="M477,657c0,0-2,27,1,27s16.9,1.7,22,1s13-1.6,13-1c0,0,3-24,0-27H477z"/>
			<path class="st4" d="M518,630c0,0-2,27,1,27s16.9,1.7,22,1s13-1.6,13-1c0,0,3-24,0-27H518z"/>
			<path class="st2" d="M598,333c0,0-2,27,1,27s16.9,1.6,22,1s13-1.6,13-1c0,0,3-24,0-27H598z"/>
			<path class="st2" d="M639,360c0,0-2,27,1,27s16.9,1.6,22,1s13-1.6,13-1c0,0,3-24,0-27H639z"/>
			<path class="st2" d="M638,388c0,0-2,27,1,27s16.9,1.6,22,1s13-1.6,13-1c0,0,3-24,0-27H638z"/>
			<path class="st2" d="M639,418c0,0-2,27,1,27s16.9,1.6,22,1s13-1.6,13-1c0,0,3-24,0-27H639z"/>
			<path class="st2" d="M640,442c0,0-2,27,1,27s16.9,1.6,22,1s13-1.6,13-1c0,0,3-24,0-27H640z"/>
			<path class="st2" d="M790,495c0,0-2,27,1,27s16.9,1.7,22,1s13-1.6,13-1c0,0,3-24,0-27H790z"/>
			<path class="st2" d="M826,530c0,0-2,27,1,27s16.9,1.7,22,1s13-1.6,13-1c0,0,3-24,0-27H826z"/>
			<path class="st2" d="M876,495c0,0-2,27,1,27s16.9,1.7,22,1s13-1.6,13-1c0,0,3-24,0-27H876z"/>
			<path class="st2" d="M963,526c0,0-2,27,1,27s16.9,1.7,22,1s13-1.6,13-1c0,0,3-24,0-27H963z"/>
			<path class="st2" d="M1065,531c0,0-2,27,1,27s16.9,1.7,22,1s13-1.6,13-1c0,0,3-24,0-27H1065z"/>
			<path class="st4" d="M434,711c0,0-2,27,1,27s16.9,1.7,22,1s13-1.6,13-1c0,0,3-24,0-27H434z"/>
			<path class="st4" d="M569,760c0,0-2,27,1,27s16.9,1.7,22,1s13-1.6,13-1c0,0,3-24,0-27H569z"/>
			<path class="st4" d="M740,660c0,0-2,27,1,27s16.9,1.7,22,1s13-1.6,13-1c0,0,3-24,0-27H740z"/>
			<path class="st4" d="M870,659c0,0-2,27,1,27s16.9,1.7,22,1s13-1.6,13-1c0,0,3-24,0-27H870z"/>
			<path class="st4" d="M872,694c0,0-2,27,1,27s16.9,1.7,22,1s13-1.6,13-1c0,0,3-24,0-27H872z"/>
			<path class="st5" d="M1410.5,936.5c0,0,11-2,8,8c-1.3,4.5-13.6,28.6-26,53.9c-2.6-1.5-5.3-3-7.9-4.3
				c12.5-25.4,24.4-48.2,23.9-49.6c-1-3-85-2-85-2c-3.4,0-17.9,8.5-25.1,33.3c-3.5-0.1-6.5-0.1-8.7-0.1c3.2-15,9.5-27.4,21-32.2
				c1.6-0.7,2.8-2.1,3.2-3.9c0.4-1.5,1.1-3.1,2.7-3.1C1348.4,936.3,1378.6,936.7,1410.5,936.5z"/>
			<path class="st6" d="M1409.5,1010.5l-0.7,29.3v1.9l-0.1,3.9l-0.2,6.9c0,0-1.9,2-8.1,4.2c-0.9,0.3-1.9,0.7-3,1
				c-6.4,2-16.2,3.9-30.8,4.9v-0.1c-4.4-0.6,10.9-33.2,26-64.1C1398.6,1001.9,1404.2,1006,1409.5,1010.5z"/>
			<path class="st5" d="M1301.4,1061.1c18.3,1.7,36.6,2.4,54.9,2c3.6-0.1,7-0.3,10.2-0.5c14.7-1,24.4-2.9,30.8-4.9
				c1.1-0.3,2.1-0.7,3-1c6.2-2.3,8.1-4.2,8.1-4.2v27h-185c0.1,0.4,0.2,0.7,0.2,1.1c-0.2,0.1-0.5-4-3.2-6.1c-4.7-3.6-11.9-8.1-15-13
				c-3.6-5.7-11.5-12.5-10.6-37.9c0-0.1,0-0.2,0.1-0.2c0.1-0.1,0.3-0.1,0.4,0c0,0,0,0,0,0c7,7.5,18.5,18.4,35.7,25.3
				c7.2,2.9,14.7,5.2,22.4,6.8c13.9,2,26.5,3.5,38.1,4.7C1294.9,1060.5,1298.2,1060.8,1301.4,1061.1z"/>
			<path class="st5" d="M1392.5,998.4c-15.1,30.9-30.4,63.6-26,64.1v0.1c-3.2,0.2-6.5,0.4-10.2,0.5c-1.8-6.6,13.7-39.5,28.2-69
				C1387.2,995.4,1389.9,996.9,1392.5,998.4z"/>
			<path class="st6" d="M1384.6,994.1c-14.6,29.5-30.1,62.4-28.2,69c-18.3,0.4-36.7-0.3-54.9-2c-9.8-39.5-8.4-66.9-3-85.3
				C1317.4,976.2,1353,978.5,1384.6,994.1z"/>
			<path class="st6" d="M1303.5,872.5c0,0,11-2,8,8s-34,94-26,95c0.8,0.1,2.2,0.1,4.2,0.2c-7.5,35.1,1.9,84.5,1.9,84.5
				c-11.6-1.2-24.2-2.7-38.1-4.7c-7.7-1.6-15.2-3.8-22.4-6.8c-17.2-6.9-28.8-17.8-35.7-25.3c-0.1-0.1-0.3-0.1-0.4,0c0,0,0,0,0,0
				l-0.2-0.4c12.4-7.9,23.9-19.2,30.8-30.5c1.8-2.9,3.4-6,4.9-9.1l0.1,0.1c16.7-9.8,46-3,41-13s28-86,27-89s-85-1.6-85-1.6
				c-1.8-2.2-3.7-4.4-5.9-6.9L1303.5,872.5z"/>
			<path class="st5" d="M1298.4,975.8c-5.4,18.4-6.8,45.7,3,85.3c-3.2-0.3-6.4-0.6-9.8-0.9c0,0-9.4-49.4-1.9-84.5
				C1291.9,975.7,1294.9,975.7,1298.4,975.8z"/>
			<path class="st5" d="M1225.5,897.5c4.7,9.3,18.4,38.5,9.6,72.7c-1.2,4.5-2.8,9-4.7,13.2c-1.4,3.1-3.1,6.1-4.9,9.1
				c-6.9,11.3-18.4,22.6-30.8,30.5c-12.8,8.1-26.6,12.5-37.2,9.5c-20.8-5.9,11-64.1,11.7-65.5c-0.2,1.2-0.5,2.3-0.7,3.5
				c-17,71,17,42,17,42c98-62-35-175-44-186c-7.3-8.9-37.3-18.4-54.4-23.3c-4.1-1.2-7.4-2.1-9.6-2.7c-11-3-11-13-13-17s2-5,5-7
				s8,3,8,3c16.7,3.8,32.9,9.8,48,18c27.7,15,44.2,33.4,71,63c4.2,4.7,7.9,8.8,11.2,12.5c2.2,2.5,4.1,4.8,5.9,6.9
				C1218.2,885.3,1222.2,891.2,1225.5,897.5z"/>
			<path class="st7" d="M1169.2,967c5.6-30.9-9.2-81.1-82.2-163.8c17.1,4.9,47.2,14.5,54.4,23.3c9,11,142,124,44,186
				c0,0-34,29-17-42C1168.8,969.4,1169,968.2,1169.2,967z"/>
			<path class="st5" d="M-9.5,939.5c0,0-11-2-8,8c1.4,4.5,13.6,28.6,26,53.9c2.6-1.5,5.3-3,7.9-4.3C3.9,971.7-8,948.9-7.5,947.5
				c1-3,85-2,85-2c3.4,0,17.9,8.5,25.1,33.3c3.5-0.1,6.5-0.1,8.7-0.1c-3.2-15-9.5-27.4-21-32.2c-1.6-0.7-2.8-2.1-3.2-3.9
				c-0.4-1.5-1.1-3.1-2.7-3.1C52.5,939.3,22.4,939.7-9.5,939.5z"/>
			<path class="st6" d="M-8.5,1013.5l0.7,29.3v1.9l0.1,3.9l0.2,6.9c0,0,1.9,2,8.1,4.2c0.9,0.3,1.9,0.7,3,1c6.4,2,16.2,3.9,30.9,4.9
				v-0.1c4.4-0.6-10.9-33.2-26-64.1C2.4,1004.9-3.3,1009-8.5,1013.5z"/>
			<path class="st5" d="M99.6,1064.1c-18.3,1.7-36.6,2.4-55,2c-3.6-0.1-7-0.3-10.2-0.5c-14.7-1-24.5-2.9-30.9-4.9
				c-1.1-0.3-2.1-0.7-3-1c-6.2-2.3-8.1-4.2-8.1-4.2v27h185c-0.1,0.4-0.2,0.7-0.1,1.1c0.2,0.1,0.5-4,3.1-6.1c4.6-3.6,11.9-8.1,15-13
				c3.6-5.7,11.5-12.5,10.6-37.9c0-0.1,0-0.2-0.1-0.2c-0.1-0.1-0.3-0.1-0.4,0c0,0,0,0,0,0c-7,7.5-18.5,18.4-35.7,25.3
				c-7.2,2.9-14.7,5.2-22.4,6.8c-13.9,2-26.5,3.5-38.1,4.7C106,1063.5,102.8,1063.8,99.6,1064.1z"/>
			<path class="st5" d="M8.5,1001.4c15.1,30.9,30.4,63.6,26,64.1v0.1c3.2,0.2,6.5,0.4,10.2,0.5c1.8-6.6-13.7-39.5-28.2-69
				C13.7,998.4,11.1,999.9,8.5,1001.4z"/>
			<path class="st6" d="M16.4,997.1c14.6,29.5,30.1,62.4,28.2,69c18.4,0.4,36.7-0.3,55-2c9.8-39.5,8.4-66.9,3-85.3
				C83.6,979.2,48,981.5,16.4,997.1z"/>
			<path class="st6" d="M97.5,875.5c0,0-11-2-8,8s34,94,26,95c-0.8,0.1-2.2,0.1-4.2,0.2c7.5,35.1-1.9,84.5-1.9,84.5
				c11.6-1.2,24.2-2.7,38.1-4.7c7.7-1.6,15.2-3.8,22.4-6.8c17.2-6.9,28.8-17.8,35.7-25.3c0.1-0.1,0.3-0.1,0.4,0c0,0,0,0,0,0l0.2-0.4
				c-12.4-7.9-23.9-19.2-30.8-30.5c-1.8-2.9-3.4-6-4.9-9.1l-0.1,0.1c-16.7-9.8-46-3-41-13s-28-86-27-89s85-1.6,85-1.6
				c1.8-2.2,3.7-4.4,5.9-6.9L97.5,875.5z"/>
			<path class="st5" d="M102.6,978.8c5.4,18.4,6.8,45.7-3,85.3c3.2-0.3,6.4-0.6,9.8-0.9c0,0,9.4-49.4,1.9-84.5
				C109.1,978.7,106.1,978.7,102.6,978.8z"/>
			<path class="st5" d="M175.5,900.5c-4.7,9.3-18.4,38.5-9.6,72.7c1.2,4.5,2.8,9,4.7,13.2c1.4,3.1,3.1,6.1,4.9,9.1
				c6.9,11.3,18.4,22.6,30.8,30.5c12.8,8.1,26.6,12.5,37.2,9.5c20.7-5.9-11-64.1-11.7-65.5c0.2,1.2,0.5,2.3,0.7,3.5
				c17,71-17,42-17,42c-98-62,35-175,44-186c7.3-8.9,37.3-18.4,54.4-23.3c4.1-1.2,7.5-2.1,9.6-2.7c11-3,11-13,13-17s-2-5-5-7
				s-8,3-8,3c-16.7,3.8-32.9,9.8-48,18c-27.7,15-44.2,33.4-71,63c-4.2,4.7-7.9,8.8-11.2,12.5c-2.2,2.5-4.1,4.8-5.9,6.9
				C182.8,888.3,178.8,894.2,175.5,900.5z"/>
			<path class="st7" d="M231.8,970c-5.6-30.9,9.2-81.1,82.2-163.8c-17.1,4.9-47.2,14.5-54.4,23.3c-9,11-142,124-44,186
				c0,0,34,29,17-42C232.2,972.4,232,971.2,231.8,970z"/>
			<path class="st8" d="M199.2,809.5c0,0,15.5-0.6,13,3.5v-1.5L129.9,858l-0.1,0.1C74.4,889,7.3,927.3-2.3,932.8l-1.2,0.7l-0.3-124
				L199.2,809.5z"/>
			<path class="st5" d="M212.2,813v8.5l-215.7,121v-9l1.2-0.7l132.1-74.7l0.1-0.1c34.7-19.4,64.8-35.9,73.3-39.5
				C208.8,816.1,211.4,814.3,212.2,813z"/>
			<path class="st8" d="M212.2,811.5v1.5c-0.8,1.3-3.4,3.1-9,5.5c-8.4,3.7-38.6,20.2-73.3,39.5L212.2,811.5z"/>
			<polyline class="st9" points="-3.5,933.5 -3.5,942.5 212.2,821.5 212.2,813 212.2,811.5 			"/>
			<path class="st10" d="M129.8,858.1C74.4,889,7.3,927.3-2.3,932.8"/>
			<path class="st10" d="M-3.5,933.5l-0.3-124h203c0,0,15.5-0.6,13,3.5c-0.8,1.3-3.4,3.1-9,5.5c-8.4,3.7-38.6,20.2-73.3,39.5"/>
			<line class="st10" x1="129.9" y1="858" x2="129.8" y2="858.1"/>
			<path class="st2" d="M388,520c0,0-5,27-2,27s17,0,22,1s13-1,13-1s6-24,3-27H388z"/>
			<path class="st4" d="M452,519c0,0-2,27,1,27s16.9,1.7,22,1s13-1.6,13-1c0,0,3-24,0-27H452z"/>
			<path class="st8" d="M1408.2,932.5l0.3-123h-203c0,0-9.3-0.3-12.3,1.4L1408.2,932.5z"/>
			<path class="st8" d="M1408.2,932.5l-215-121.6c-0.3,0.1-0.5,0.3-0.7,0.5v1.6c0.8,1.3,3.4,3.1,9,5.5c23,10,206.7,115,206.7,115
				L1408.2,932.5z"/>
			<path class="st5" d="M1192.5,811.4c0.2-0.2,0.4-0.4,0.7-0.5l-0.7-0.4V811.4z"/>
			<path class="st8" d="M1192.5,811.4c-0.4,0.5-0.4,1.1,0,1.6V811.4z"/>
			<path class="st5" d="M1192.5,820.5l215.7,121v-8c0,0-183.7-105-206.7-115c-5.6-2.4-8.2-4.2-9-5.5V820.5z"/>
			<polyline class="st9" points="1192.5,811.5 1192.5,811.4 1192.5,810.5 			"/>
			<line class="st9" x1="1408.2" y1="941.5" x2="1192.5" y2="820.5"/>
			<polyline class="st9" points="1192.5,820.5 1192.5,813 1192.5,811.5 			"/>
			<polyline class="st10" points="1408.2,941.5 1408.2,942.5 1192.5,821.5 1192.5,820.5 			"/>
			<line class="st9" x1="1408.2" y1="933.5" x2="1408.2" y2="941.5"/>
			<path class="st10" d="M1408.2,933.5v-1l0.3-123h-203c0,0-9.3-0.3-12.3,1.4c-0.3,0.1-0.5,0.3-0.7,0.5c-0.4,0.5-0.4,1.1,0,1.6
				c0.8,1.3,3.4,3.1,9,5.5C1224.5,828.5,1408.2,933.5,1408.2,933.5"/>
			<line class="st10" x1="1193.2" y1="810.9" x2="1408.2" y2="932.5"/>
			<path class="st11" d="M1289.6,803.1c3,0.1,6,0.7,8.9,1.8c2.8,1.1,4.4,2.8,4.8,5c0.2,1,0.2,25.4,0,26.5c-0.1,1-0.6,2-1.3,2.7
				c-1.9,2-5.4,3.3-10.8,3.9c-2.8,0.2-5.6,0.2-8.4-0.1c-7.2-0.9-11.1-3.1-11.7-6.5c-0.2-1-0.2-25.5,0-26.5c0.5-3,3.2-5,8.5-6.1
				C1282.9,803.1,1286.3,802.9,1289.6,803.1z M1281.5,806.6c-2.8,0.4-4.8,1.1-5.1,1.8c-0.2,0.2-0.2,0.5,0,0.7
				c0.4,0.7,2.4,1.4,5.2,1.8c3.1,0.3,6.3,0.3,9.4,0.2c4.3-0.4,7-1.3,7-2.3s-2.5-1.8-6.2-2.2C1288.4,806.3,1285,806.3,1281.5,806.6z"
				/>
			<path class="st11" d="M1272,813.2v2.6l-1.3,0.1c-2.7,0.1-4,0.9-4.6,2.9c-0.3,2.2-0.3,4.4,0,6.6c0.6,2,1.9,2.8,4.6,2.9l1.3,0.1
				v5.2l-1-0.1c-4.8-0.3-7.5-1.8-9.1-5c-1.7-4.1-1.7-8.7,0-12.8c1.6-3.2,4.3-4.7,9.1-5l1-0.1V813.2z"/>
			<path class="st12" d="M45.4,788.1c-3,0.1-6,0.7-8.9,1.8c-2.8,1.1-4.4,2.8-4.8,5c-0.2,1-0.2,25.4,0,26.5c0.1,1,0.6,2,1.3,2.7
				c1.9,2,5.4,3.3,10.9,3.9c2.8,0.2,5.6,0.2,8.4-0.1c7.2-0.9,11.1-3.1,11.7-6.5c0.2-1,0.2-25.5,0-26.5c-0.5-3-3.2-5-8.5-6.1
				C52.2,788.1,48.8,787.9,45.4,788.1z M53.5,791.6c2.8,0.4,4.8,1.1,5.1,1.8c0.2,0.2,0.2,0.5,0,0.7c-0.4,0.7-2.4,1.4-5.2,1.8
				c-3.1,0.3-6.3,0.4-9.5,0.2c-4.3-0.4-7-1.3-7-2.3s2.5-1.8,6.2-2.2C46.6,791.3,50.1,791.3,53.5,791.6z"/>
			<path class="st12" d="M63,798.2v2.6l1.3,0.1c2.7,0.1,4,0.9,4.6,2.9c0.3,2.2,0.3,4.4,0,6.6c-0.6,2-1.9,2.8-4.6,2.9l-1.3,0.1v5.2
				l1-0.1c4.8-0.3,7.5-1.8,9.1-5c1.7-4.1,1.7-8.7,0-12.8c-1.6-3.2-4.3-4.7-9.1-5l-1-0.1V798.2z"/>
		</g>
	</g>
</g>
</svg>
