<?xml version="1.0" encoding="utf-8"?>
<!-- Generator: Adobe Illustrator 22.1.0, SVG Export Plug-In . SVG Version: 6.00 Build 0)  -->
<svg version="1.1" xmlns="http://www.w3.org/2000/svg" xmlns:xlink="http://www.w3.org/1999/xlink" x="0px" y="0px"
	 viewBox="0 0 1412 1068" style="enable-background:new 0 0 1412 1068;" xml:space="preserve">
<style type="text/css">
	.st0{clip-path:url(#SVGID_2_);fill:#F1CF3F;}
	.st1{clip-path:url(#SVGID_2_);fill:#E63943;}
	.st2{clip-path:url(#SVGID_2_);}
	.st3{fill:none;}
	.st4{fill:#F4E0DF;}
	.st5{fill:#2AB3BD;}
	.st6{clip-path:url(#SVGID_2_);fill:#F4E0DF;}
	.st7{clip-path:url(#SVGID_2_);fill:#2AB3BD;}
	.st8{clip-path:url(#SVGID_2_);fill:#CB1E0D;}
	.st9{clip-path:url(#SVGID_2_);fill:#228936;}
	.st10{clip-path:url(#SVGID_2_);fill:#156998;}
	.st11{display:none;clip-path:url(#SVGID_2_);}
	.st12{display:inline;}
	.st13{fill:#212121;}
	.st14{fill:#2A74A0;}
	.st15{fill:none;stroke:#000000;stroke-miterlimit:10;}
	.st16{fill:#EFEFEF;}
	.st17{fill:#F8F8F8;}
</style>
<g id="Capa_1">
	
		<image style="display:none;overflow:visible;" width="2448" height="1836" xlink:href="engineering.png"  transform="matrix(0.5784 0 0 0.5784 -4 18)">
	</image>
</g>
<g id="Capa_2">
	<g id="postits">
	</g>
	<g>
		<defs>
			<rect id="SVGID_1_" x="0" width="1412" height="1079"/>
		</defs>
		<clipPath id="SVGID_2_">
			<use xlink:href="#SVGID_1_"  style="overflow:visible;"/>
		</clipPath>
		<path class="st0" d="M793.8,213c7.1,0.4,60.6,3.6,77.7,2.1c0.8-0.1,1.3,0.6,1.4,1.4c0.5,5.8,0.2,25.6,0.2,26.4
			c-0.2,3-70.1-3.6-79.2-2.2c-0.4,0.1-0.6-0.3-0.7-0.7c-0.8-3.7,0-22.4,0-26.3C793.1,213.3,793.4,213,793.8,213z"/>
		<path class="st1" d="M237,245c0,0-5,27-2,27s17,0,22,1s13-1,13-1s6-24,3-27H237z"/>
		<path class="st1" d="M236,272c0,0-5,27-2,27s17,0,22,1s13-1,13-1s6-24,3-27H236z"/>
		<path class="st1" d="M240,299c0,0-5,27-2,27s17,0,22,1s13-1,13-1s6-24,3-27H240z"/>
		<path class="st1" d="M199,300c0,0-5,27-2,27s17,0,22,1s13-1,13-1s6-24,3-27H199z"/>
		<path class="st1" d="M233,328c0,0-5,27-2,27s17,0,22,1s13-1,13-1s6-24,3-27H233z"/>
		<path class="st1" d="M194,326c0,0-5,27-2,27s17,0,22,1s13-1,13-1s6-24,3-27H194z"/>
		<path class="st1" d="M238,355c0,0-5,27-2,27s17,0,22,1s13-1,13-1s6-24,3-27H238z"/>
		<path class="st1" d="M236,381c0,0-5,27-2,27s17,0,22,1s13-1,13-1s6-24,3-27H236z"/>
		<path class="st1" d="M199,351c0,0-5,27-2,27s17,0,22,1s13-1,13-1s6-24,3-27H199z"/>
		<path class="st1" d="M237,407c0,0-5,27-2,27s17,0,22,1s13-1,13-1s6-24,3-27H237z"/>
		<path class="st1" d="M199,377c0,0-5,27-2,27s17,0,22,1s13-1,13-1s6-24,3-27H199z"/>
		<path class="st1" d="M194,404c0,0-5,27-2,27s17,0,22,1s13-1,13-1s6-24,3-27H194z"/>
		<path class="st1" d="M196,435c0,0-5,27-2,27s17,0,22,1s13-1,13-1s6-24,3-27H196z"/>
		<path class="st1" d="M200,469c0,0-5,27-2,27s17,0,22,1s13-1,13-1s6-24,3-27H200z"/>
		<path class="st1" d="M199,495c0,0-5,27-2,27s17,0,22,1s13-1,13-1s6-24,3-27H199z"/>
		<path class="st1" d="M236,469c0,0-5,27-2,27s17,0,22,1s13-1,13-1s6-24,3-27H236z"/>
		<path class="st1" d="M236,493c0,0-5,27-2,27s17,0,22,1s13-1,13-1s6-24,3-27H236z"/>
		<path class="st1" d="M7,455c0,0-2,27,1,27s17,0,22,1s13-1,13-1s3-24,0-27H7z"/>
		<path class="st1" d="M369,247c0,0,2,27,0,28s33-2,38,1c0,0-2-28,0-28L369,247z"/>
		<path class="st1" d="M328,273c0,0,2,27,0,28s33-2,38,1c0,0-2-28,0-28L328,273z"/>
		<path class="st1" d="M372.3,276.1c-1.2,0-2.2,1-2.2,2.2c0.4,6.5,1.5,24.9-0.2,25.7c-1.8,0.9,25.8-1.4,35.4,0.2
			c1.3,0.2,2.5-0.9,2.4-2.2c-0.4-5.6-1-17.7-0.5-22.7c0.1-1.2-0.8-2.3-2-2.3L372.3,276.1z"/>
		<path class="st1" d="M423,248c0,0-5,27-2,27s17,0,22,1s13-1,13-1s6-24,3-27H423z"/>
		<path class="st1" d="M463,248c0,0-5,27-2,27s17,0,22,1s13-1,13-1s6-24,3-27H463z"/>
		<path class="st1" d="M441,277c0,0-2,27,1,27s17,0,22,1s13-1,13-1s3-24,0-27H441z"/>
		<path class="st1" d="M419,306c0,0-2,27,1,27s16.9,1.6,22,1c5-0.6,13-1.6,13-1c0,0,3-24,0-27H419z"/>
		<path class="st1" d="M463,304c0,0-2,27,1,27s16.9,1.6,22,1c5-0.6,13-1.6,13-1c0,0,3-24,0-27H463z"/>
		<path class="st1" d="M421,334c0,0-2,27,1,27s16.9,1.6,22,1c5-0.6,13-1.6,13-1c0,0,3-24,0-27H421z"/>
		<path class="st1" d="M421,362c0,0-2,27,1,27s16.9,1.6,22,1c5-0.6,13-1.6,13-1c0,0,3-24,0-27H421z"/>
		<path class="st1" d="M510,276c0,0-2,27,1,27s16.9,1.6,22,1c5-0.6,13-1.6,13-1c0,0,3-24,0-27H510z"/>
		<path class="st1" d="M512,245c0,0-2,27,1,27s16.9,1.6,22,1c5-0.6,13-1.6,13-1c0,0,3-24,0-27H512z"/>
		<path class="st1" d="M552,247c0,0-2,27,1,27s16.9,1.6,22,1c5-0.6,13-1.6,13-1c0,0,3-24,0-27H552z"/>
		<path class="st1" d="M598,248c0,0-2,27,1,27s16.9,1.6,22,1c5-0.6,13-1.6,13-1c0,0,3-24,0-27H598z"/>
		<path class="st1" d="M637,276c0,0-2,27,1,27s16.9,1.6,22,1c5-0.6,13-1.6,13-1c0,0,3-24,0-27H637z"/>
		<path class="st1" d="M596,304c0,0-2,27,1,27s16.9,1.6,22,1c5-0.6,13-1.6,13-1c0,0,3-24,0-27H596z"/>
		<path class="st1" d="M639,304c0,0-2,27,1,27s16.9,1.6,22,1c5-0.6,13-1.6,13-1c0,0,3-24,0-27H639z"/>
		<path class="st1" d="M642,333c0,0-2,27,1,27s16.9,1.6,22,1c5-0.6,13-1.6,13-1c0,0,3-24,0-27H642z"/>
		<g class="st2">
			<g>
				<g>
					<rect x="231.1" y="547.7" class="st3" width="38" height="28.1"/>
					<path class="st4" d="M231.7,547.7c0,0-2,27,1,27s16.9,1.6,22,1c5-0.6,13-1.6,13-1c0,0,3-24,0-27H231.7z"/>
				</g>
			</g>
		</g>
		<g class="st2">
			<g>
				<g>
					<rect x="195.8" y="546.7" class="st3" width="38" height="28.1"/>
					<path class="st4" d="M196.4,546.7c0,0-2,27,1,27s16.9,1.6,22,1c5-0.6,13-1.6,13-1c0,0,3-24,0-27H196.4z"/>
				</g>
			</g>
		</g>
		<g class="st2">
			<g>
				<g>
					<rect x="278.1" y="548.3" class="st3" width="38" height="28.1"/>
					<path class="st4" d="M278.8,548.3c0,0-2,27,1,27s16.9,1.6,22,1c5-0.6,13-1.6,13-1c0,0,3-24,0-27H278.8z"/>
				</g>
			</g>
		</g>
		<g class="st2">
			<g>
				<g>
					<rect x="463.2" y="337" class="st3" width="38" height="28.1"/>
					<path class="st4" d="M463.9,337c0,0-2,27,1,27s16.9,1.6,22,1c5-0.6,13-1.6,13-1c0,0,3-24,0-27H463.9z"/>
				</g>
			</g>
		</g>
		<g class="st2">
			<g>
				<g>
					<rect x="462.7" y="360" class="st3" width="38" height="28.1"/>
					<path class="st4" d="M463.3,360c0,0-2,27,1,27s16.9,1.6,22,1c5-0.6,13-1.6,13-1c0,0,3-24,0-27H463.3z"/>
				</g>
			</g>
		</g>
		<g class="st2">
			<g>
				<g>
					<rect x="458.4" y="386.7" class="st3" width="38" height="28.1"/>
					<path class="st4" d="M459.1,386.7c0,0-2,27,1,27s16.9,1.6,22,1c5-0.6,13-1.6,13-1c0,0,3-24,0-27H459.1z"/>
				</g>
			</g>
		</g>
		<g class="st2">
			<g>
				<g>
					<rect x="454.1" y="416.1" class="st3" width="38" height="28.1"/>
					<path class="st4" d="M454.8,416.1c0,0-2,27,1,27s16.9,1.6,22,1c5-0.6,13-1.6,13-1c0,0,3-24,0-27H454.8z"/>
				</g>
			</g>
		</g>
		<g class="st2">
			<g>
				<g>
					<rect x="503.3" y="333.2" class="st3" width="38" height="28.1"/>
					<path class="st4" d="M504,333.2c0,0-2,27,1,27s16.9,1.6,22,1c5-0.6,13-1.6,13-1c0,0,3-24,0-27H504z"/>
				</g>
			</g>
		</g>
		<g class="st2">
			<g>
				<g>
					<rect x="510.8" y="304.3" class="st3" width="38" height="28.1"/>
					<path class="st4" d="M511.5,304.3c0,0-2,27,1,27c3,0,16.9,1.6,22,1c5-0.6,13-1.6,13-1c0,0,3-24,0-27H511.5z"/>
				</g>
			</g>
		</g>
		<g class="st2">
			<g>
				<g>
					<rect x="552.6" y="274.9" class="st3" width="38" height="28.1"/>
					<path class="st4" d="M553.2,274.9c0,0-2,27,1,27s16.9,1.6,22,1c5-0.6,13-1.6,13-1c0,0,3-24,0-27H553.2z"/>
				</g>
			</g>
		</g>
		<g class="st2">
			<g>
				<g>
					<rect x="552" y="305.9" class="st3" width="38" height="28.1"/>
					<path class="st4" d="M552.7,305.9c0,0-2,27,1,27s16.9,1.6,22,1c5-0.6,13-1.6,13-1c0,0,3-24,0-27H552.7z"/>
				</g>
			</g>
		</g>
		<g class="st2">
			<g>
				<g>
					<rect x="595.9" y="277" class="st3" width="38" height="28.1"/>
					<path class="st4" d="M596.5,277c0,0-2,27,1,27s16.9,1.6,22,1c5-0.6,13-1.6,13-1c0,0,3-24,0-27H596.5z"/>
				</g>
			</g>
		</g>
		<g class="st2">
			<g>
				<g>
					<rect x="592.1" y="361" class="st3" width="38" height="28.1"/>
					<path class="st4" d="M592.8,361c0,0-2,27,1,27s16.9,1.6,22,1c5-0.6,13-1.6,13-1c0,0,3-24,0-27H592.8z"/>
				</g>
			</g>
		</g>
		<g class="st2">
			<g>
				<g>
					<rect x="639.7" y="471.8" class="st3" width="38" height="28.1"/>
					<path class="st4" d="M640.4,471.8c0,0-2,27,1,27s16.9,1.6,22,1c5-0.6,13-1.6,13-1c0,0,3-24,0-27H640.4z"/>
				</g>
			</g>
		</g>
		<g class="st2">
			<g>
				<g>
					<rect x="705.5" y="427.9" class="st3" width="38" height="28.1"/>
					<path class="st4" d="M706.2,427.9c0,0-2,27,1,27s16.9,1.6,22,1c5-0.6,13-1.6,13-1c0,0,3-24,0-27H706.2z"/>
				</g>
			</g>
		</g>
		<g class="st2">
			<g>
				<g>
					<rect x="746.7" y="325.2" class="st3" width="38" height="28.1"/>
					<path class="st4" d="M747.4,325.2c0,0-2,27,1,27s16.9,1.6,22,1c5-0.6,13-1.6,13-1c0,0,3-24,0-27H747.4z"/>
				</g>
			</g>
		</g>
		<g class="st2">
			<g>
				<g>
					<rect x="881.5" y="247.1" class="st3" width="38" height="28.1"/>
					<path class="st4" d="M882.2,247.1c0,0-2,27,1,27s16.9,1.6,22,1c5-0.6,13-1.6,13-1c0,0,3-24,0-27H882.2z"/>
				</g>
			</g>
		</g>
		<g class="st2">
			<g>
				<g>
					<rect x="829.6" y="249.2" class="st3" width="38" height="28.1"/>
					<path class="st4" d="M830.3,249.2c0,0-2,27,1,27s16.9,1.6,22,1c5-0.6,13-1.6,13-1c0,0,3-24,0-27H830.3z"/>
				</g>
			</g>
		</g>
		<g class="st2">
			<g>
				<g>
					<rect x="919.5" y="246.6" class="st3" width="38" height="28.1"/>
					<path class="st4" d="M920.2,246.6c0,0-2,27,1,27s16.9,1.6,22,1c5-0.6,13-1.6,13-1c0,0,3-24,0-27H920.2z"/>
				</g>
			</g>
		</g>
		<g class="st2">
			<g>
				<g>
					<rect x="921.1" y="274.4" class="st3" width="38" height="28.1"/>
					<path class="st4" d="M921.8,274.4c0,0-2,27,1,27s16.9,1.6,22,1c5-0.6,13-1.6,13-1c0,0,3-24,0-27H921.8z"/>
				</g>
			</g>
		</g>
		<g class="st2">
			<g>
				<g>
					<rect x="1007.8" y="307.5" class="st3" width="38" height="28.1"/>
					<path class="st4" d="M1008.4,307.5c0,0-2,27,1,27s16.9,1.6,22,1c5-0.6,13-1.6,13-1c0,0,3-24,0-27H1008.4z"/>
				</g>
			</g>
		</g>
		<g class="st2">
			<g>
				<g>
					<rect x="919.5" y="331.1" class="st3" width="38" height="28.1"/>
					<path class="st4" d="M920.2,331.1c0,0-2,27,1,27s16.9,1.6,22,1c5-0.6,13-1.6,13-1c0,0,3-24,0-27H920.2z"/>
				</g>
			</g>
		</g>
		<g class="st2">
			<g>
				<g>
					<rect x="954.4" y="659.6" class="st3" width="38" height="28.1"/>
					<path class="st4" d="M955,659.6c0,0-2,27,1,27s16.9,1.6,22,1c5-0.6,13-1.6,13-1c0,0,3-24,0-27H955z"/>
				</g>
			</g>
		</g>
		<g class="st2">
			<g>
				<g>
					<rect x="870.8" y="727.8" class="st3" width="38" height="28.1"/>
					<path class="st4" d="M871.4,727.8c0,0-2,27,1,27s16.9,1.6,22,1c5-0.6,13-1.6,13-1c0,0,3-24,0-27H871.4z"/>
				</g>
			</g>
		</g>
		<g class="st2">
			<g>
				<g>
					<rect x="568" y="704.8" class="st3" width="38" height="28.1"/>
					<path class="st4" d="M568.6,704.8c0,0-2,27,1,27s16.9,1.6,22,1c5-0.6,13-1.6,13-1c0,0,3-24,0-27H568.6z"/>
				</g>
			</g>
		</g>
		<g class="st2">
			<g>
				<g>
					<rect x="476.7" y="624.6" class="st3" width="38" height="28.1"/>
					<path class="st4" d="M477.3,624.6c0,0-2,27,1,27s16.9,1.6,22,1c5-0.6,13-1.6,13-1c0,0,3-24,0-27H477.3z"/>
				</g>
			</g>
		</g>
		<g class="st2">
			<g>
				<g>
					<rect x="915.3" y="657.3" class="st3" width="38" height="28.1"/>
					<path class="st5" d="M915.9,657.3c0,0-2,27,1,27s16.9,1.6,22,1c5-0.6,13-1.6,13-1c0,0,3-24,0-27H915.9z"/>
				</g>
			</g>
		</g>
		<g class="st2">
			<g>
				<g>
					<rect x="994.8" y="636.1" class="st3" width="38" height="28.1"/>
					<path class="st5" d="M995.4,636.1c0,0-2,27,1,27s16.9,1.6,22,1c5-0.6,13-1.6,13-1c0,0,3-24,0-27H995.4z"/>
				</g>
			</g>
		</g>
		<g class="st2">
			<g>
				<g>
					<rect x="641.6" y="246.8" class="st3" width="38" height="28.1"/>
					<path class="st5" d="M642.2,246.8c0,0-2,27,1,27s16.9,1.6,22,1c5-0.6,13-1.6,13-1c0,0,3-24,0-27H642.2z"/>
				</g>
			</g>
		</g>
		<g class="st2">
			<g>
				<g>
					<rect x="707.7" y="244" class="st3" width="38" height="28.1"/>
					<path class="st5" d="M708.3,244c0,0-2,27,1,27s16.9,1.6,22,1c5-0.6,13-1.6,13-1c0,0,3-24,0-27H708.3z"/>
				</g>
			</g>
		</g>
		<g class="st2">
			<g>
				<g>
					<rect x="749.8" y="246.3" class="st3" width="38" height="28.1"/>
					<path class="st5" d="M750.5,246.3c0,0-2,27,1,27s16.9,1.6,22,1c5-0.6,13-1.6,13-1c0,0,3-24,0-27H750.5z"/>
				</g>
			</g>
		</g>
		<g class="st2">
			<g>
				<g>
					<rect x="742.4" y="271.3" class="st3" width="38" height="28.1"/>
					<path class="st5" d="M743.1,271.3c0,0-2,27,1,27s16.9,1.6,22,1c5-0.6,13-1.6,13-1c0,0,3-24,0-27H743.1z"/>
				</g>
			</g>
		</g>
		<g class="st2">
			<g>
				<g>
					<rect x="746.4" y="297.6" class="st3" width="38" height="28.1"/>
					<path class="st5" d="M747,297.6c0,0-2,27,1,27s16.9,1.6,22,1c5-0.6,13-1.6,13-1c0,0,3-24,0-27H747z"/>
				</g>
			</g>
		</g>
		<g class="st2">
			<g>
				<g>
					<rect x="749.8" y="354.5" class="st3" width="38" height="28.1"/>
					<path class="st5" d="M750.5,354.5c0,0-2,27,1,27s16.9,1.6,22,1c5-0.6,13-1.6,13-1c0,0,3-24,0-27H750.5z"/>
				</g>
			</g>
		</g>
		<g class="st2">
			<g>
				<g>
					<rect x="831.3" y="277.6" class="st3" width="38" height="28.1"/>
					<path class="st5" d="M831.9,277.6c0,0-2,27,1,27s16.9,1.6,22,1c5-0.6,13-1.6,13-1c0,0,3-24,0-27H831.9z"/>
				</g>
			</g>
		</g>
		<g class="st2">
			<g>
				<g>
					<rect x="792.5" y="245.7" class="st3" width="38" height="28.1"/>
					<path class="st5" d="M793.2,245.7c0,0-2,27,1,27s16.9,1.6,22,1c5-0.6,13-1.6,13-1c0,0,3-24,0-27H793.2z"/>
				</g>
			</g>
		</g>
		<g class="st2">
			<g>
				<g>
					<rect x="982.3" y="248" class="st3" width="38" height="28.1"/>
					<path class="st5" d="M982.9,248c0,0-2,27,1,27s16.9,1.6,22,1c5-0.6,13-1.6,13-1c0,0,3-24,0-27H982.9z"/>
				</g>
			</g>
		</g>
		<g class="st2">
			<g>
				<g>
					<rect x="1067.7" y="250.3" class="st3" width="38" height="28.1"/>
					<path class="st5" d="M1068.4,250.3c0,0-2,27,1,27s16.9,1.6,22,1c5-0.6,13-1.6,13-1c0,0,3-24,0-27H1068.4z"/>
				</g>
			</g>
		</g>
		<path class="st6" d="M280,220c0,0-2,27,1,27s16.9,1.6,22,1c5-0.6,13-1.6,13-1c0,0,3-24,0-27H280z"/>
		<g class="st2">
			<g>
				<g>
					<rect x="277.6" y="247.1" class="st3" width="38" height="28.1"/>
					<path class="st4" d="M278.3,247.1c0,0-2,27,1,27s16.9,1.6,22,1c5-0.6,13-1.6,13-1c0,0,3-24,0-27H278.3z"/>
				</g>
			</g>
		</g>
		<g class="st2">
			<g>
				<g>
					<rect x="279.2" y="272.2" class="st3" width="38" height="28.1"/>
					<path class="st4" d="M279.9,272.2c0,0-2,27,1,27s16.9,1.6,22,1c5-0.6,13-1.6,13-1c0,0,3-24,0-27H279.9z"/>
				</g>
			</g>
		</g>
		<g class="st2">
			<g>
				<g>
					<rect x="269.6" y="299" class="st3" width="38" height="28.1"/>
					<path class="st4" d="M270.2,299c0,0-2,27,1,27s16.9,1.6,22,1c5-0.6,13-1.6,13-1c0,0,3-24,0-27H270.2z"/>
				</g>
			</g>
		</g>
		<g class="st2">
			<g>
				<g>
					<rect x="271.7" y="328.9" class="st3" width="38" height="28.1"/>
					<path class="st4" d="M272.4,328.9c0,0-2,27,1,27s16.9,1.6,22,1c5-0.6,13-1.6,13-1c0,0,3-24,0-27H272.4z"/>
				</g>
			</g>
		</g>
		<g class="st2">
			<g>
				<g>
					<rect x="276.5" y="355.1" class="st3" width="38" height="28.1"/>
					<path class="st4" d="M277.2,355.1c0,0-2,27,1,27s16.9,1.6,22,1c5-0.6,13-1.6,13-1c0,0,3-24,0-27H277.2z"/>
				</g>
			</g>
		</g>
		<g class="st2">
			<g>
				<g>
					<rect x="276" y="383" class="st3" width="38" height="28.1"/>
					<path class="st4" d="M276.6,383c0,0-2,27,1,27s16.9,1.6,22,1c5-0.6,13-1.6,13-1c0,0,3-24,0-27H276.6z"/>
				</g>
			</g>
		</g>
		<g class="st2">
			<g>
				<g>
					<rect x="270.6" y="415.1" class="st3" width="38" height="28.1"/>
					<path class="st4" d="M271.3,415.1c0,0-2,27,1,27s16.9,1.6,22,1c5-0.6,13-1.6,13-1c0,0,3-24,0-27H271.3z"/>
				</g>
			</g>
		</g>
		<g class="st2">
			<g>
				<g>
					<rect x="271.2" y="438.6" class="st3" width="38" height="28.1"/>
					<path class="st4" d="M271.8,438.6c0,0-2,27,1,27s16.9,1.6,22,1c5-0.6,13-1.6,13-1c0,0,3-24,0-27H271.8z"/>
				</g>
			</g>
		</g>
		<g class="st2">
			<g>
				<g>
					<rect x="231.1" y="438.6" class="st3" width="38" height="28.1"/>
					<path class="st4" d="M231.7,438.6c0,0-2,27,1,27s16.9,1.6,22,1c5-0.6,13-1.6,13-1c0,0,3-24,0-27H231.7z"/>
				</g>
			</g>
		</g>
		<g class="st2">
			<g>
				<g>
					<rect x="270.6" y="466.4" class="st3" width="38" height="28.1"/>
					<path class="st4" d="M271.3,466.4c0,0-2,27,1,27s16.9,1.6,22,1c5-0.6,13-1.6,13-1c0,0,3-24,0-27H271.3z"/>
				</g>
			</g>
		</g>
		<g class="st2">
			<g>
				<g>
					<rect x="274.9" y="493.7" class="st3" width="38" height="28.1"/>
					<path class="st4" d="M275.6,493.7c0,0-2,27,1,27s16.9,1.6,22,1c5-0.6,13-1.6,13-1c0,0,3-24,0-27H275.6z"/>
				</g>
			</g>
		</g>
		<g class="st2">
			<g>
				<g>
					<rect x="273.3" y="522.6" class="st3" width="38" height="28.1"/>
					<path class="st4" d="M274,522.6c0,0-2,27,1,27s16.9,1.6,22,1c5-0.6,13-1.6,13-1c0,0,3-24,0-27H274z"/>
				</g>
			</g>
		</g>
		<g class="st2">
			<g>
				<g>
					<rect x="235.3" y="525.8" class="st3" width="38" height="28.1"/>
					<path class="st4" d="M236,525.8c0,0-2,27,1,27s16.9,1.6,22,1c5-0.6,13-1.6,13-1c0,0,3-24,0-27H236z"/>
				</g>
			</g>
		</g>
		<path class="st7" d="M562,628c0,0-2,27,1,27s16.9,1.6,22,1c5-0.6,13-1.6,13-1c0,0,3-24,0-27H562z"/>
		<g class="st2">
			<g>
				<g>
					<rect x="515.9" y="658.2" class="st3" width="38" height="28.1"/>
					<path class="st5" d="M516.5,658.2c0,0-2,27,1,27s16.9,1.6,22,1c5-0.6,13-1.6,13-1c0,0,3-24,0-27H516.5z"/>
				</g>
			</g>
		</g>
		<g class="st2">
			<g>
				<g>
					<rect x="521.6" y="683.8" class="st3" width="38" height="28.1"/>
					<path class="st5" d="M522.3,683.8c0,0-2,27,1,27s16.9,1.6,22,1c5-0.6,13-1.6,13-1c0,0,3-24,0-27H522.3z"/>
				</g>
			</g>
		</g>
		<g class="st2">
			<g>
				<g>
					<rect x="477.8" y="711.2" class="st3" width="38" height="28.1"/>
					<path class="st5" d="M478.5,711.2c0,0-2,27,1,27s16.9,1.6,22,1c5-0.6,13-1.6,13-1c0,0,3-24,0-27H478.5z"/>
				</g>
			</g>
		</g>
		<g class="st2">
			<g>
				<g>
					<rect x="525" y="734.3" class="st3" width="38" height="28.1"/>
					<path class="st5" d="M525.7,734.3c0,0-2,27,1,27s16.9,1.6,22,1c5-0.6,13-1.6,13-1c0,0,3-24,0-27H525.7z"/>
				</g>
			</g>
		</g>
		<g class="st2">
			<g>
				<g>
					<rect x="522.6" y="762.8" class="st3" width="38" height="28.1"/>
					<path class="st5" d="M523.3,762.8c0,0-2,27,1,27s16.9,1.6,22,1c5-0.6,13-1.6,13-1c0,0,3-24,0-27H523.3z"/>
				</g>
			</g>
		</g>
		<g class="st2">
			<g>
				<g>
					<rect x="568.4" y="789.3" class="st3" width="38" height="28.1"/>
					<path class="st5" d="M569,789.3c0,0-2,27,1,27s16.9,1.6,22,1c5-0.6,13-1.6,13-1c0,0,3-24,0-27H569z"/>
				</g>
			</g>
		</g>
		<g class="st2">
			<g>
				<g>
					<rect x="607.9" y="624" class="st3" width="38" height="28.1"/>
					<path class="st5" d="M608.5,624c0,0-2,27,1,27s16.9,1.6,22,1c5-0.6,13-1.6,13-1c0,0,3-24,0-27H608.5z"/>
				</g>
			</g>
		</g>
		<g class="st2">
			<g>
				<g>
					<rect x="638.2" y="629.8" class="st3" width="38" height="28.1"/>
					<path class="st5" d="M638.9,629.8c0,0-2,27,1,27s16.9,1.6,22,1c5-0.6,13-1.6,13-1c0,0,3-24,0-27H638.9z"/>
				</g>
			</g>
		</g>
		<g class="st2">
			<g>
				<g>
					<rect x="640.2" y="656.3" class="st3" width="38" height="28.1"/>
					<path class="st5" d="M640.8,656.3c0,0-2,27,1,27s16.9,1.6,22,1c5-0.6,13-1.6,13-1c0,0,3-24,0-27H640.8z"/>
				</g>
			</g>
		</g>
		<g class="st2">
			<g>
				<g>
					<rect x="636.3" y="689.1" class="st3" width="38" height="28.1"/>
					<path class="st5" d="M637,689.1c0,0-2,27,1,27s16.9,1.6,22,1c5-0.6,13-1.6,13-1c0,0,3-24,0-27H637z"/>
				</g>
			</g>
		</g>
		<g class="st2">
			<g>
				<g>
					<rect x="786.6" y="633.2" class="st3" width="38" height="28.1"/>
					<path class="st5" d="M787.3,633.2c0,0-2,27,1,27s16.9,1.6,22,1c5-0.6,13-1.6,13-1c0,0,3-24,0-27H787.3z"/>
				</g>
			</g>
		</g>
		<g class="st2">
			<g>
				<g>
					<rect x="789" y="661.1" class="st3" width="38" height="28.1"/>
					<path class="st5" d="M789.7,661.1c0,0-2,27,1,27s16.9,1.6,22,1c5-0.6,13-1.6,13-1c0,0,3-24,0-27H789.7z"/>
				</g>
			</g>
		</g>
		<g class="st2">
			<g>
				<g>
					<rect x="783.7" y="686.2" class="st3" width="38" height="28.1"/>
					<path class="st5" d="M784.4,686.2c0,0-2,27,1,27s16.9,1.6,22,1c5-0.6,13-1.6,13-1c0,0,3-24,0-27H784.4z"/>
				</g>
			</g>
		</g>
		<g class="st2">
			<g>
				<g>
					<rect x="786.2" y="711.2" class="st3" width="38" height="28.1"/>
					<path class="st5" d="M786.8,711.2c0,0-2,27,1,27s16.9,1.6,22,1c5-0.6,13-1.6,13-1c0,0,3-24,0-27H786.8z"/>
				</g>
			</g>
		</g>
		<g class="st2">
			<g>
				<g>
					<rect x="825.2" y="628.3" class="st3" width="38" height="28.1"/>
					<path class="st5" d="M825.8,628.3c0,0-2,27,1,27s16.9,1.6,22,1c5-0.6,13-1.6,13-1c0,0,3-24,0-27H825.8z"/>
				</g>
			</g>
		</g>
		<g class="st2">
			<g>
				<g>
					<rect x="738.9" y="631.2" class="st3" width="38" height="28.1"/>
					<path class="st5" d="M739.6,631.2c0,0-2,27,1,27s16.9,1.6,22,1c5-0.6,13-1.6,13-1c0,0,3-24,0-27H739.6z"/>
				</g>
			</g>
		</g>
		<g class="st2">
			<g>
				<g>
					<rect x="872.4" y="631.2" class="st3" width="38" height="28.1"/>
					<path class="st5" d="M873.1,631.2c0,0-2,27,1,27s16.9,1.6,22,1c5-0.6,13-1.6,13-1c0,0,3-24,0-27H873.1z"/>
				</g>
			</g>
		</g>
		<g class="st2">
			<g>
				<g>
					<rect x="915.3" y="632.2" class="st3" width="38" height="28.1"/>
					<path class="st5" d="M915.9,632.2c0,0-2,27,1,27s16.9,1.6,22,1c5-0.6,13-1.6,13-1c0,0,3-24,0-27H915.9z"/>
				</g>
			</g>
		</g>
		<path class="st1" d="M927,300c0,0-2,27,1,27s16.9,1.6,22,1c5-0.6,13-1.6,13-1c0,0,3-24,0-27H927z"/>
		<path class="st1" d="M1009,276c0,0-2,27,1,27s16.9,1.6,22,1c5-0.6,13-1.6,13-1c0,0,3-24,0-27H1009z"/>
		<path class="st1" d="M1100,280c0,0-2,27,1,27s16.9,1.6,22,1c5-0.6,13-1.6,13-1c0,0,3-24,0-27H1100z"/>
		<path class="st1" d="M707,272c0,0-2,27,1,27s16.9,1.6,22,1c5-0.6,13-1.6,13-1c0,0,3-24,0-27H707z"/>
		<path class="st1" d="M704,300c0,0-2,27,1,27s16.9,1.6,22,1c5-0.6,13-1.6,13-1c0,0,3-24,0-27H704z"/>
		<path class="st1" d="M707,330c0,0-2,27,1,27s16.9,1.6,22,1c5-0.6,13-1.6,13-1c0,0,3-24,0-27H707z"/>
		<path class="st1" d="M707,355c0,0-2,27,1,27s16.9,1.6,22,1c5-0.6,13-1.6,13-1c0,0,3-24,0-27H707z"/>
		<path class="st1" d="M713,379c0,0-2,27,1,27s16.9,1.6,22,1c5-0.6,13-1.6,13-1c0,0,3-24,0-27H713z"/>
		<path class="st1" d="M756,390c0,0-2,27,1,27s16.9,1.6,22,1c5-0.6,13-1.6,13-1c0,0,3-24,0-27H756z"/>
		<path class="st1" d="M797,276c0,0-2,27,1,27s16.9,1.6,22,1c5-0.6,13-1.6,13-1c0,0,3-24,0-27H797z"/>
		<path class="st1" d="M796,305c0,0-2,27,1,27s16.9,1.6,22,1c5-0.6,13-1.6,13-1c0,0,3-24,0-27H796z"/>
		<path class="st1" d="M794,333c0,0-2,27,1,27s16.9,1.6,22,1c5-0.6,13-1.6,13-1c0,0,3-24,0-27H794z"/>
		<path class="st1" d="M796,360c0,0-2,27,1,27s16.9,1.6,22,1c5-0.6,13-1.6,13-1c0,0,3-24,0-27H796z"/>
		<path class="st1" d="M835,311c0,0-2,27,1,27s16.9,1.6,22,1c5-0.6,13-1.6,13-1c0,0,3-24,0-27H835z"/>
		<path class="st1" d="M837,342c0,0-2,27,1,27s16.9,1.6,22,1c5-0.6,13-1.6,13-1c0,0,3-24,0-27H837z"/>
		<path class="st1" d="M879,276c0,0-2,27,1,27s16.9,1.6,22,1c5-0.6,13-1.6,13-1c0,0,3-24,0-27H879z"/>
		<path class="st0" d="M704.8,211c7.1,0.4,60.6,3.6,77.7,2.1c0.8-0.1,1.3,0.6,1.4,1.4c0.5,5.8,0.2,25.6,0.2,26.4
			c-0.2,3-70.1-3.6-79.2-2.2c-0.4,0.1-0.6-0.3-0.7-0.7c-0.8-3.7,0-22.4,0-26.3C704.1,211.3,704.4,211,704.8,211z"/>
		<path class="st0" d="M879.8,215c7.1,0.4,60.6,3.6,77.7,2.1c0.8-0.1,1.3,0.6,1.4,1.4c0.5,5.8,0.2,25.6,0.2,26.4
			c-0.2,3-70.1-3.6-79.2-2.2c-0.4,0.1-0.6-0.3-0.7-0.7c-0.8-3.7,0-22.4,0-26.3C879.1,215.3,879.4,215,879.8,215z"/>
		<path class="st0" d="M963.8,215c7.1,0.4,60.6,3.6,77.7,2.1c0.8-0.1,1.3,0.6,1.4,1.4c0.5,5.8,0.2,25.6,0.2,26.4
			c-0.2,3-70.1-3.6-79.2-2.2c-0.4,0.1-0.6-0.3-0.7-0.7c-0.8-3.7,0-22.4,0-26.3C963.1,215.3,963.4,215,963.8,215z"/>
		<path class="st0" d="M1051.8,212c7.1,0.4,60.6,3.6,77.7,2.1c0.8-0.1,1.3,0.6,1.4,1.4c0.5,5.8,0.2,25.6,0.2,26.4
			c-0.2,3-70.1-3.6-79.2-2.2c-0.4,0.1-0.6-0.3-0.7-0.7c-0.8-3.7,0-22.4,0-26.3C1051.1,212.3,1051.4,212,1051.8,212z"/>
		<path class="st0" d="M601.8,213c7.1,0.4,60.6,3.6,77.7,2.1c0.8-0.1,1.3,0.6,1.4,1.4c0.5,5.8,0.2,25.6,0.2,26.4
			c-0.2,3-70.1-3.6-79.2-2.2c-0.4,0.1-0.6-0.3-0.7-0.7c-0.8-3.7,0-22.4,0-26.3C601.1,213.3,601.4,213,601.8,213z"/>
		<path class="st0" d="M511.8,211c7.1,0.4,60.6,3.6,77.7,2.1c0.8-0.1,1.3,0.6,1.4,1.4c0.5,5.8,0.2,25.6,0.2,26.4
			c-0.2,3-70.1-3.6-79.2-2.2c-0.4,0.1-0.6-0.3-0.7-0.7c-0.8-3.7,0-22.4,0-26.3C511.1,211.3,511.4,211,511.8,211z"/>
		<path class="st0" d="M420.8,211c7.1,0.4,60.6,3.6,77.7,2.1c0.8-0.1,1.3,0.6,1.4,1.4c0.5,5.8,0.2,25.6,0.2,26.4
			c-0.2,3-70.1-3.6-79.2-2.2c-0.4,0.1-0.6-0.3-0.7-0.7c-0.8-3.7,0-22.4,0-26.3C420.1,211.3,420.4,211,420.8,211z"/>
		<path class="st0" d="M329.8,211c7.1,0.4,60.6,3.6,77.7,2.1c0.8-0.1,1.3,0.6,1.4,1.4c0.5,5.8,0.2,25.6,0.2,26.4
			c-0.2,3-70.1-3.6-79.2-2.2c-0.4,0.1-0.6-0.3-0.7-0.7c-0.8-3.7,0-22.4,0-26.3C329.1,211.3,329.4,211,329.8,211z"/>
		<path class="st8" d="M211.8,184c7.1,0.4,60.6,3.6,77.7,2.1c0.8-0.1,1.3,0.6,1.4,1.4c0.5,5.8,0.2,25.6,0.2,26.4
			c-0.2,3-70.1-3.6-79.2-2.2c-0.4,0.1-0.6-0.3-0.7-0.7c-0.8-3.7,0-22.4,0-26.3C211.1,184.3,211.4,184,211.8,184z"/>
		<path class="st8" d="M229.8,594c7.1,0.4,60.6,3.6,77.7,2.1c0.8-0.1,1.3,0.6,1.4,1.4c0.5,5.8,0.2,25.6,0.2,26.4
			c-0.2,3-70.1-3.6-79.2-2.2c-0.4,0.1-0.6-0.3-0.7-0.7c-0.8-3.7,0-22.4,0-26.3C229.1,594.3,229.4,594,229.8,594z"/>
		<path class="st9" d="M343.8,594c7.1,0.4,60.6,3.6,77.7,2.1c0.8-0.1,1.3,0.6,1.4,1.4c0.5,5.8,0.2,25.6,0.2,26.4
			c-0.2,3-70.1-3.6-79.2-2.2c-0.4,0.1-0.6-0.3-0.7-0.7c-0.8-3.7,0-22.4,0-26.3C343.1,594.3,343.4,594,343.8,594z"/>
		<path class="st9" d="M432.8,594c7.1,0.4,60.6,3.6,77.7,2.1c0.8-0.1,1.3,0.6,1.4,1.4c0.5,5.8,0.2,25.6,0.2,26.4
			c-0.2,3-70.1-3.6-79.2-2.2c-0.4,0.1-0.6-0.3-0.7-0.7c-0.8-3.7,0-22.4,0-26.3C432.1,594.3,432.4,594,432.8,594z"/>
		<path class="st9" d="M518.8,594c7.1,0.4,60.6,3.6,77.7,2.1c0.8-0.1,1.3,0.6,1.4,1.4c0.5,5.8,0.2,25.6,0.2,26.4
			c-0.2,3-70.1-3.6-79.2-2.2c-0.4,0.1-0.6-0.3-0.7-0.7c-0.8-3.7,0-22.4,0-26.3C518.1,594.3,518.4,594,518.8,594z"/>
		<path class="st9" d="M602.8,594c7.1,0.4,60.6,3.6,77.7,2.1c0.8-0.1,1.3,0.6,1.4,1.4c0.5,5.8,0.2,25.6,0.2,26.4
			c-0.2,3-70.1-3.6-79.2-2.2c-0.4,0.1-0.6-0.3-0.7-0.7c-0.8-3.7,0-22.4,0-26.3C602.1,594.3,602.4,594,602.8,594z"/>
		<path class="st9" d="M698.8,597c7.1,0.4,60.6,3.6,77.7,2.1c0.8-0.1,1.3,0.6,1.4,1.4c0.5,5.8,0.2,25.6,0.2,26.4
			c-0.2,3-70.1-3.6-79.2-2.2c-0.4,0.1-0.6-0.3-0.7-0.7c-0.8-3.7,0-22.4,0-26.3C698.1,597.3,698.4,597,698.8,597z"/>
		<path class="st9" d="M786.8,597c7.1,0.4,60.6,3.6,77.7,2.1c0.8-0.1,1.3,0.6,1.4,1.4c0.5,5.8,0.2,25.6,0.2,26.4
			c-0.2,3-70.1-3.6-79.2-2.2c-0.4,0.1-0.6-0.3-0.7-0.7c-0.8-3.7,0-22.4,0-26.3C786.1,597.3,786.4,597,786.8,597z"/>
		<path class="st9" d="M869.8,599c7.1,0.4,60.6,3.6,77.7,2.1c0.8-0.1,1.3,0.6,1.4,1.4c0.5,5.8,0.2,25.6,0.2,26.4
			c-0.2,3-70.1-3.6-79.2-2.2c-0.4,0.1-0.6-0.3-0.7-0.7c-0.8-3.7,0-22.4,0-26.3C869.1,599.3,869.4,599,869.8,599z"/>
		<path class="st9" d="M957.8,597c7.1,0.4,60.6,3.6,77.7,2.1c0.8-0.1,1.3,0.6,1.4,1.4c0.5,5.8,0.2,25.6,0.2,26.4
			c-0.2,3-70.1-3.6-79.2-2.2c-0.4,0.1-0.6-0.3-0.7-0.7c-0.8-3.7,0-22.4,0-26.3C957.1,597.3,957.4,597,957.8,597z"/>
		<path class="st9" d="M1041.8,599c7.1,0.4,60.6,3.6,77.7,2.1c0.8-0.1,1.3,0.6,1.4,1.4c0.5,5.8,0.2,25.6,0.2,26.4
			c-0.2,3-70.1-3.6-79.2-2.2c-0.4,0.1-0.6-0.3-0.7-0.7c-0.8-3.7,0-22.4,0-26.3C1041.1,599.3,1041.4,599,1041.8,599z"/>
		<path class="st0" d="M701.8,464c7.1,0.4,60.6,3.6,77.7,2.1c0.8-0.1,1.3,0.6,1.4,1.4c0.5,5.8,0.2,25.6,0.2,26.4
			c-0.2,3-70.1-3.6-79.2-2.2c-0.4,0.1-0.6-0.3-0.7-0.7c-0.8-3.7,0-22.4,0-26.3C701.1,464.3,701.4,464,701.8,464z"/>
		<path class="st0" d="M790.8,461c7.1,0.4,60.6,3.6,77.7,2.1c0.8-0.1,1.3,0.6,1.4,1.4c0.5,5.8,0.2,25.6,0.2,26.4
			c-0.2,3-70.1-3.6-79.2-2.2c-0.4,0.1-0.6-0.3-0.7-0.7c-0.8-3.7,0-22.4,0-26.3C790.1,461.3,790.4,461,790.8,461z"/>
		<path class="st10" d="M879.8,464c7.1,0.4,60.6,3.6,77.7,2.1c0.8-0.1,1.3,0.6,1.4,1.4c0.5,5.8,0.2,25.6,0.2,26.4
			c-0.2,3-70.1-3.6-79.2-2.2c-0.4,0.1-0.6-0.3-0.7-0.7c-0.8-3.7,0-22.4,0-26.3C879.1,464.3,879.4,464,879.8,464z"/>
		<path class="st10" d="M966.8,464c7.1,0.4,60.6,3.6,77.7,2.1c0.8-0.1,1.3,0.6,1.4,1.4c0.5,5.8,0.2,25.6,0.2,26.4
			c-0.2,3-70.1-3.6-79.2-2.2c-0.4,0.1-0.6-0.3-0.7-0.7c-0.8-3.7,0-22.4,0-26.3C966.1,464.3,966.4,464,966.8,464z"/>
		<path class="st10" d="M1059.8,466c7.1,0.4,60.6,3.6,77.7,2.1c0.8-0.1,1.3,0.6,1.4,1.4c0.5,5.8,0.2,25.6,0.2,26.4
			c-0.2,3-70.1-3.6-79.2-2.2c-0.4,0.1-0.6-0.3-0.7-0.7c-0.8-3.7,0-22.4,0-26.3C1059.1,466.3,1059.4,466,1059.8,466z"/>
		<path class="st10" d="M564,734c0,0-2,27,1,27s16.9,1.6,22,1c5-0.6,13-1.6,13-1c0,0,3-24,0-27H564z"/>
		<path class="st10" d="M437,681c0,0-2,27,1,27s16.9,1.6,22,1c5-0.6,13-1.6,13-1c0,0,3-24,0-27H437z"/>
		<path class="st10" d="M956,632c0,0-2,27,1,27s16.9,1.6,22,1c5-0.6,13-1.6,13-1c0,0,3-24,0-27H956z"/>
		<path class="st10" d="M998,670c0,0-2,27,1,27s16.9,1.6,22,1c5-0.6,13-1.6,13-1c0,0,3-24,0-27H998z"/>
		<path class="st10" d="M956,691c0,0-2,27,1,27s16.9,1.6,22,1c5-0.6,13-1.6,13-1c0,0,3-24,0-27H956z"/>
		<path class="st10" d="M1075,677c0,0-2,27,1,27s16.9,1.6,22,1c5-0.6,13-1.6,13-1c0,0,3-24,0-27H1075z"/>
		<path class="st10" d="M1075,639c0,0-2,27,1,27s16.9,1.6,22,1c5-0.6,13-1.6,13-1c0,0,3-24,0-27H1075z"/>
		<path class="st10" d="M-31,323c0,0-2,27,1,27s16.9,1.6,22,1c5-0.6,13-1.6,13-1c0,0,3-24,0-27H-31z"/>
		<path class="st10" d="M-33,355c0,0-2,27,1,27s16.9,1.6,22,1c5-0.6,13-1.6,13-1c0,0,3-24,0-27H-33z"/>
		<path class="st10" d="M-36,387c0,0-2,27,1,27s16.9,1.6,22,1c5-0.6,13-1.6,13-1c0,0,3-24,0-27H-36z"/>
		<path class="st10" d="M-31,418c0,0-2,27,1,27s16.9,1.6,22,1c5-0.6,13-1.6,13-1c0,0,3-24,0-27H-31z"/>
		<path class="st10" d="M14,417c0,0-2,27,1,27s16.9,1.6,22,1c5-0.6,13-1.6,13-1c0,0,3-24,0-27H14z"/>
		<path class="st10" d="M10,387c0,0-2,27,1,27s16.9,1.6,22,1c5-0.6,13-1.6,13-1c0,0,3-24,0-27H10z"/>
		<path class="st10" d="M8,357c0,0-2,27,1,27s16.9,1.6,22,1c5-0.6,13-1.6,13-1c0,0,3-24,0-27H8z"/>
		<path class="st10" d="M14,323c0,0-2,27,1,27s16.9,1.6,22,1c5-0.6,13-1.6,13-1c0,0,3-24,0-27H14z"/>
		<path class="st10" d="M56,323c0,0-2,27,1,27s16.9,1.6,22,1c5-0.6,13-1.6,13-1c0,0,3-24,0-27H56z"/>
		<path class="st10" d="M56,357c0,0-2,27,1,27s16.9,1.6,22,1c5-0.6,13-1.6,13-1c0,0,3-24,0-27H56z"/>
		<path class="st10" d="M56,389c0,0-2,27,1,27s16.9,1.6,22,1c5-0.6,13-1.6,13-1c0,0,3-24,0-27H56z"/>
		<path class="st10" d="M56,418c0,0-2,27,1,27s16.9,1.6,22,1c5-0.6,13-1.6,13-1c0,0,3-24,0-27H56z"/>
		<path class="st7" d="M346,628c0,0-2,27,1,27s16.9,1.6,22,1c5-0.6,13-1.6,13-1c0,0,3-24,0-27H346z"/>
		<path class="st7" d="M227,631c0,0-2,27,1,27s16.9,1.6,22,1c5-0.6,13-1.6,13-1c0,0,3-24,0-27H227z"/>
		<path class="st7" d="M260,628c0,0-2,27,1,27s16.9,1.6,22,1c5-0.6,13-1.6,13-1c0,0,3-24,0-27H260z"/>
		<path class="st7" d="M294,632c0,0-2,27,1,27s16.9,1.6,22,1c5-0.6,13-1.6,13-1c0,0,3-24,0-27H294z"/>
		<path class="st7" d="M195,652c0,0-2,27,1,27s16.9,1.6,22,1c5-0.6,13-1.6,13-1c0,0,3-24,0-27H195z"/>
		<path class="st7" d="M231,652c0,0-2,27,1,27s16.9,1.6,22,1c5-0.6,13-1.6,13-1c0,0,3-24,0-27H231z"/>
		<path class="st7" d="M270,659c0,0-2,27,1,27s16.9,1.6,22,1c5-0.6,13-1.6,13-1c0,0,3-24,0-27H270z"/>
		<path class="st7" d="M192,681c0,0-2,27,1,27s16.9,1.6,22,1c5-0.6,13-1.6,13-1c0,0,3-24,0-27H192z"/>
		<path class="st7" d="M195,710c0,0-2,27,1,27s16.9,1.6,22,1c5-0.6,13-1.6,13-1c0,0,3-24,0-27H195z"/>
		<path class="st7" d="M227,685c0,0-2,27,1,27s16.9,1.6,22,1c5-0.6,13-1.6,13-1c0,0,3-24,0-27H227z"/>
		<path class="st7" d="M260,682c0,0-2,27,1,27s16.9,1.6,22,1c5-0.6,13-1.6,13-1c0,0,3-24,0-27H260z"/>
		<path class="st7" d="M303,681c0,0-2,27,1,27s16.9,1.6,22,1c5-0.6,13-1.6,13-1c0,0,3-24,0-27H303z"/>
		<path class="st7" d="M227,712c0,0-2,27,1,27s16.9,1.6,22,1c5-0.6,13-1.6,13-1c0,0,3-24,0-27H227z"/>
		<path class="st7" d="M263,712c0,0-2,27,1,27s16.9,1.6,22,1c5-0.6,13-1.6,13-1c0,0,3-24,0-27H263z"/>
		<path class="st7" d="M215,729c0,0-2,27,1,27s16.9,1.6,22,1c5-0.6,13-1.6,13-1c0,0,3-24,0-27H215z"/>
		<path class="st7" d="M348,654c0,0-2,27,1,27s16.9,1.6,22,1c5-0.6,13-1.6,13-1c0,0,3-24,0-27H348z"/>
		<path class="st7" d="M386,628c0,0-2,27,1,27s16.9,1.6,22,1c5-0.6,13-1.6,13-1c0,0,3-24,0-27H386z"/>
		<path class="st7" d="M437,631c0,0-2,27,1,27s16.9,1.6,22,1c5-0.6,13-1.6,13-1c0,0,3-24,0-27H437z"/>
		<path class="st7" d="M480,657c0,0-2,27,1,27s16.9,1.6,22,1c5-0.6,13-1.6,13-1c0,0,3-24,0-27H480z"/>
		<path class="st7" d="M521,630c0,0-2,27,1,27s16.9,1.6,22,1c5-0.6,13-1.6,13-1c0,0,3-24,0-27H521z"/>
		<path class="st1" d="M601,333c0,0-2,27,1,27s16.9,1.6,22,1c5-0.6,13-1.6,13-1c0,0,3-24,0-27H601z"/>
		<path class="st1" d="M642,360c0,0-2,27,1,27s16.9,1.6,22,1c5-0.6,13-1.6,13-1c0,0,3-24,0-27H642z"/>
		<path class="st1" d="M641,388c0,0-2,27,1,27s16.9,1.6,22,1c5-0.6,13-1.6,13-1c0,0,3-24,0-27H641z"/>
		<path class="st1" d="M642,418c0,0-2,27,1,27s16.9,1.6,22,1c5-0.6,13-1.6,13-1c0,0,3-24,0-27H642z"/>
		<path class="st1" d="M643,442c0,0-2,27,1,27s16.9,1.6,22,1c5-0.6,13-1.6,13-1c0,0,3-24,0-27H643z"/>
		<path class="st1" d="M793,495c0,0-2,27,1,27s16.9,1.6,22,1c5-0.6,13-1.6,13-1c0,0,3-24,0-27H793z"/>
		<path class="st1" d="M829,530c0,0-2,27,1,27s16.9,1.6,22,1c5-0.6,13-1.6,13-1c0,0,3-24,0-27H829z"/>
		<path class="st1" d="M879,495c0,0-2,27,1,27s16.9,1.6,22,1c5-0.6,13-1.6,13-1c0,0,3-24,0-27H879z"/>
		<path class="st1" d="M966,526c0,0-2,27,1,27s16.9,1.6,22,1c5-0.6,13-1.6,13-1c0,0,3-24,0-27H966z"/>
		<path class="st1" d="M1068,531c0,0-2,27,1,27s16.9,1.6,22,1c5-0.6,13-1.6,13-1c0,0,3-24,0-27H1068z"/>
		<path class="st10" d="M437,711c0,0-2,27,1,27s16.9,1.6,22,1c5-0.6,13-1.6,13-1c0,0,3-24,0-27H437z"/>
		<path class="st10" d="M572,760c0,0-2,27,1,27s16.9,1.6,22,1c5-0.6,13-1.6,13-1c0,0,3-24,0-27H572z"/>
		<path class="st10" d="M743,660c0,0-2,27,1,27s16.9,1.6,22,1c5-0.6,13-1.6,13-1c0,0,3-24,0-27H743z"/>
		<path class="st10" d="M873,659c0,0-2,27,1,27s16.9,1.6,22,1c5-0.6,13-1.6,13-1c0,0,3-24,0-27H873z"/>
		<path class="st10" d="M875,694c0,0-2,27,1,27s16.9,1.6,22,1c5-0.6,13-1.6,13-1c0,0,3-24,0-27H875z"/>
		<g id="XMLID_1_" class="st11">
			<g class="st12">
				<path class="st13" d="M891,972.2c14.6,5.1,29,12.5,41.5,23.3l-0.7,29.3l0,1.9l-0.1,3.9l-0.2,6.9c0,0-1.9,2-8.1,4.2
					c-0.9,0.3-1.9,0.7-3,1c-5,1.5-11.9,3-21.6,4.1C889.8,1013.7,888.4,989.7,891,972.2z"/>
				<path d="M929.3,925.6c-5.9,0.8-32.4,6.8-38.3,46.5c-5.5-1.9-11.1-3.5-16.5-4.9c8.4-33.8,33.8-41.8,33.8-41.8h20.8
					c0.1,0,0.2,0,0.2,0L929.3,925.6z"/>
				<path d="M898.8,1046.8c-4.7,0.5-10,0.9-16.1,1.2v0c-12.2-36.4-12.7-62.3-8.2-80.7c5.5,1.3,11,2.9,16.5,4.9
					C888.4,989.7,889.8,1013.7,898.8,1046.8z"/>
				<path d="M929.1,925.5h-20.8h-61.8c0,0,0,5-6,5c-3.4,0-15.3,7.1-20.8,30.3c-2.8-0.1-5.1-0.1-7-0.1c3.5-16.2,10.5-29.4,23.8-33.2
					c0,0-1-6,2-6h84.2c2.5,0,4.9,0.7,6.9,2.1c0.3,0.2,0.5,0.5,0.5,0.8c0,0.5-0.3,0.9-0.8,1C929.2,925.5,929.1,925.5,929.1,925.5z"/>
				<path class="st13" d="M874.5,967.3c-4.5,18.3-4.1,44.3,8.2,80.7v0c-14.6,0.6-33.4,0.2-57.5-1.8c-10.1-40.5-9.7-67.6-5.5-85.4
					C832,961,852.5,961.9,874.5,967.3z"/>
				<path d="M814.6,1045.2c0,0-9.4-49.4-1.9-84.5c1.9,0,4.2,0,7,0.1c-4.2,17.7-4.6,44.9,5.5,85.4
					C821.8,1045.8,818.2,1045.5,814.6,1045.2z"/>
				<path class="st14" d="M664.5,811.5c9,11,142,124,44,186c0,0-34,29-17-42c0.3-1.1,0.5-2.3,0.7-3.5c5.6-30.9-9.2-81.1-82.2-163.8
					C627.2,793.1,657.2,802.6,664.5,811.5z"/>
				<path d="M718.3,1008.4c7,7.5,18.5,18.4,35.7,25.3c12.3,5,22.4,6.8,22.4,6.8c13.9,2,26.5,3.5,38.1,4.7c3.6,0.4,7.2,0.7,10.6,1
					c24.1,2.1,42.9,2.4,57.5,1.8c6.1-0.2,11.4-0.7,16.1-1.2c9.7-1.1,16.7-2.6,21.6-4.1c1.1-0.3,2.1-0.7,3-1c6.2-2.3,8.1-4.2,8.1-4.2
					s0,26,0,27h-185c0.1,0.5,0.2,1.1,0.2,1.1c-0.2,0.1-0.5-4-3.2-6.1c-4.7-3.6-11.9-8.1-15-13c-3.6-5.7-11.5-12.5-10.6-37.9
					c0-0.1,0-0.2,0.1-0.2C718.1,1008.3,718.2,1008.3,718.3,1008.4z"/>
				<path d="M748.5,977.5c-6.9,11.3-18.4,22.6-30.8,30.5c-12.8,8.1-26.6,12.5-37.2,9.5c-20.8-5.9,11-64.1,11.7-65.5
					c-0.2,1.2-0.5,2.3-0.7,3.5c-17,71,17,42,17,42c98-62-35-175-44-186c-7.3-8.9-37.3-18.4-54.4-23.3c-4.1-1.2-7.5-2.1-9.6-2.7
					c-11-3-11-13-13-17s2-5,5-7s8,3,8,3c21.5,4.9,37.5,12.3,48,18c27.7,15,44.2,33.4,71,63c4.2,4.7,7.9,8.8,11.2,12.5
					c2.2,2.5,4.1,4.8,5.9,6.9c5.3,6.4,9,11.7,12,17.6c4.7,9.3,18.4,38.5,9.6,72.7c-1.2,4.6-2.8,9-4.7,13.2
					C751.9,971.5,750.3,974.6,748.5,977.5z"/>
				<path class="st13" d="M717.7,1008c12.4-7.9,23.9-19.2,30.8-30.5c1.8-2.9,3.4-6,4.9-9.1l0.1,0.1c16.7-9.8,46-3,41-13s18-84,17-87
					s-75-3.6-75-3.6c-1.8-2.1-3.7-4.4-5.9-6.9c32-0.2,63.9-0.3,95.8-0.5c0,0,11-2,8,8s-34,94-26,95c0.8,0.1,2.2,0.1,4.2,0.2
					c-7.5,35.1,1.9,84.5,1.9,84.5c-11.5-1.2-24.2-2.7-38.1-4.7c0,0-10.1-1.8-22.4-6.8c-17.2-6.9-28.8-17.8-35.7-25.3
					c-0.1-0.1-0.3-0.1-0.4,0L717.7,1008z"/>
			</g>
			<g class="st12">
				<path class="st15" d="M692.2,952C692.2,952,692.2,952,692.2,952c-0.8,1.4-32.5,59.6-11.7,65.5c10.7,3,24.4-1.4,37.2-9.5
					c12.4-7.9,23.9-19.2,30.8-30.5c1.8-2.9,3.4-6,4.9-9.1c2-4.2,3.5-8.6,4.7-13.2c8.8-34.2-4.9-63.4-9.6-72.7
					c-3-5.9-6.7-11.2-12-17.6c-1.8-2.1-3.7-4.4-5.9-6.9c-3.2-3.7-6.9-7.8-11.2-12.5c-26.8-29.6-43.3-48-71-63
					c-10.5-5.7-26.5-13.1-48-18c0,0-5-5-8-3s-7,3-5,7s2,14,13,17c2.1,0.6,5.5,1.5,9.6,2.7c17.1,4.9,47.2,14.5,54.4,23.3
					c9,11,142,124,44,186c0,0-34,29-17-42C691.8,954.4,692,953.2,692.2,952c5.5-30.9-9.2-81.1-82.2-163.8"/>
				<path class="st15" d="M932,1064.5h-0.5h-185c0.1,0.5,0.2,1.1,0.2,1.1c-0.2,0.1-0.5-4-3.2-6.1c-4.7-3.6-11.9-8.1-15-13
					c-3.6-5.7-11.5-12.5-10.6-37.9c0-0.1,0-0.2,0.1-0.2c0.1-0.1,0.3-0.1,0.4,0c7,7.5,18.5,18.4,35.7,25.3c12.3,5,22.4,6.8,22.4,6.8
					c13.9,2,26.5,3.5,38.1,4.7c3.6,0.4,7.2,0.7,10.6,1c24.1,2.1,42.9,2.4,57.5,1.8c6.1-0.2,11.4-0.7,16.1-1.2
					c9.7-1.1,16.7-2.6,21.6-4.1c1.1-0.3,2.1-0.7,3-1c6.2-2.3,8.1-4.2,8.1-4.2l0.2-6.9l0.1-3.9l0-1.9l0.7-29.3
					c-12.5-10.8-26.9-18.2-41.5-23.3c-5.5-1.9-11.1-3.5-16.5-4.9c-21.9-5.4-42.5-6.3-54.8-6.5c-2.8-0.1-5.1-0.1-7-0.1
					c-2,0-3.4-0.1-4.2-0.2c-8-1,23-85,26-95s-8-8-8-8c-32,0.2-63.9,0.3-95.8,0.5"/>
				<path class="st15" d="M736.5,864.9c0,0,74,0.6,75,3.6s-22,77-17,87s-24.3,3.2-41,13"/>
				<path class="st15" d="M814.6,1045.2c0,0-9.4-49.4-1.9-84.5c3.5-16.2,10.5-29.4,23.8-33.2c0,0-1-6,2-6h84.2
					c2.5,0,4.9,0.7,6.9,2.1c0.3,0.2,0.5,0.5,0.5,0.8c0,0.5-0.3,0.9-0.8,1c-0.1,0-0.1,0-0.2,0h-20.8h-61.8c0,0,0,5-6,5
					c-3.4,0-15.3,7.1-20.8,30.3c-4.2,17.7-4.6,44.9,5.5,85.4"/>
				<path class="st15" d="M930.5,925.5c0,0-0.4,0-1.2,0.1c-5.9,0.8-32.4,6.8-38.3,46.5c-2.6,17.5-1.2,41.6,7.7,74.7"/>
				<path class="st15" d="M908.3,925.5c0,0-25.4,8-33.8,41.8c-4.5,18.3-4.1,44.3,8.2,80.7"/>
				<path class="st15" d="M931.5,1037.5c0,0,0,26,0,27"/>
			</g>
		</g>
		<g id="XMLID_2_" class="st2">
			<g>
				<path d="M1413.5,936.5c0,0,11-2,8,8c-1.3,4.5-13.6,28.6-26,53.9c-2.6-1.5-5.3-3-7.9-4.3c12.5-25.4,24.4-48.2,23.9-49.6
					c-1-3-85-2-85-2c-3.4,0-17.9,8.5-25.1,33.3c-3.5-0.1-6.5-0.1-8.7-0.1c3.2-15,9.5-27.4,21-32.2c1.6-0.7,2.8-2.2,3.2-3.9
					c0.4-1.5,1.1-3.1,2.7-3.1C1351.4,936.3,1381.6,936.7,1413.5,936.5z"/>
				<path class="st13" d="M1412.5,1010.5l-0.7,29.3l0,1.9l-0.1,3.9l-0.2,6.9c0,0-1.9,2-8.1,4.2c-0.9,0.3-1.9,0.7-3,1
					c-6.4,2-16.2,3.9-30.8,4.9l0-0.1c-4.4-0.6,10.9-33.2,26-64.1C1401.4,1001.9,1407.2,1005.9,1412.5,1010.5z"/>
				<path d="M1304.4,1061.1c22.7,2,40.7,2.4,54.9,2c3.6-0.1,7-0.3,10.2-0.5c14.7-1,24.4-2.9,30.8-4.9c1.1-0.3,2.1-0.7,3-1
					c6.2-2.3,8.1-4.2,8.1-4.2s0,26,0,27h-185c0.1,0.5,0.2,1.1,0.2,1.1c-0.2,0.1-0.5-4-3.2-6.1c-4.7-3.6-11.9-8.1-15-13
					c-3.6-5.7-11.5-12.5-10.6-37.9c0-0.1,0-0.2,0.1-0.2c0.1-0.1,0.3-0.1,0.4,0c7,7.5,18.5,18.4,35.7,25.3c12.3,5,22.4,6.8,22.4,6.8
					c13.9,2,26.5,3.5,38.1,4.7C1297.9,1060.5,1301.2,1060.8,1304.4,1061.1z"/>
				<path d="M1395.5,998.4c-15.1,30.9-30.4,63.6-26,64.1l0,0.1c-3.2,0.2-6.5,0.4-10.2,0.5c-1.8-6.5,13.7-39.5,28.2-69
					C1390.2,995.4,1392.9,996.8,1395.5,998.4z"/>
				<path class="st13" d="M1387.6,994.1c-14.6,29.5-30.1,62.4-28.2,69c-14.3,0.4-32.3,0-54.9-2c-9.8-39.5-8.4-66.9-3-85.3
					C1320.4,976.2,1356,978.5,1387.6,994.1z"/>
				<path class="st13" d="M1306.5,872.5c0,0,11-2,8,8s-34,94-26,95c0.8,0.1,2.2,0.1,4.2,0.2c-7.5,35.1,1.9,84.5,1.9,84.5
					c-11.5-1.2-24.2-2.7-38.1-4.7c0,0-10.1-1.8-22.4-6.8c-17.2-6.9-28.8-17.8-35.7-25.3c-0.1-0.1-0.3-0.1-0.4,0l-0.2-0.4
					c12.4-7.9,23.9-19.2,30.8-30.5c1.8-2.9,3.4-6,4.9-9.1l0.1,0.1c16.7-9.8,46-3,41-13s28-86,27-89s-84.9-1.6-84.9-1.6
					c-1.8-2.1-3.7-4.4-5.9-6.9C1242.6,872.8,1274.6,872.7,1306.5,872.5z"/>
				<path d="M1301.4,975.8c-5.4,18.4-6.8,45.7,3,85.3c-3.2-0.3-6.5-0.6-9.8-0.9c0,0-9.4-49.4-1.9-84.5
					C1294.9,975.7,1297.9,975.7,1301.4,975.8z"/>
				<path class="st13" d="M1228.5,897.5c4.7,9.3,18.4,38.5,9.6,72.7c-1.2,4.6-2.8,9-4.7,13.2c-1.4,3.1-3.1,6.1-4.9,9.1
					c-6.9,11.3-18.4,22.6-30.8,30.5c-12.8,8.1-26.6,12.5-37.2,9.5c-20.8-5.9,11-64.1,11.7-65.5c-0.2,1.2-0.5,2.3-0.7,3.5
					c-17,71,17,42,17,42c98-62-35-175-44-186c-7.3-8.9-37.3-18.4-54.4-23.3c-4.1-1.2-7.4-2.1-9.6-2.7c-11-3-11-13-13-17s2-5,5-7
					s8,3,8,3c21.5,4.9,37.6,12.3,48,18c27.7,15,44.2,33.4,71,63c4.2,4.7,7.9,8.8,11.2,12.5c2.2,2.5,4.1,4.8,5.9,6.9
					C1221.8,886.3,1225.5,891.6,1228.5,897.5z"/>
				<path class="st14" d="M1172.2,967c5.6-30.9-9.2-81.1-82.2-163.8c17.1,4.9,47.2,14.5,54.4,23.3c9,11,142,124,44,186
					c0,0-34,29-17-42C1171.8,969.4,1172,968.2,1172.2,967z"/>
			</g>
		</g>
		<g id="XMLID_3_" class="st2">
			<g>
				<path d="M-6.5,939.5c0,0-11-2-8,8c1.4,4.5,13.6,28.6,26,53.9c2.6-1.5,5.3-3,7.9-4.3C6.9,971.7-5,948.9-4.5,947.5c1-3,85-2,85-2
					c3.4,0,17.9,8.5,25.1,33.3c3.5-0.1,6.5-0.1,8.7-0.1c-3.2-15-9.5-27.4-21-32.2c-1.6-0.7-2.8-2.2-3.2-3.9
					c-0.4-1.5-1.1-3.1-2.7-3.1C55.5,939.3,25.4,939.7-6.5,939.5z"/>
				<path class="st13" d="M-5.5,1013.5l0.7,29.3l0,1.9l0.1,3.9l0.2,6.9c0,0,1.9,2,8.1,4.2c0.9,0.3,1.9,0.7,3,1
					c6.4,2,16.2,3.9,30.8,4.9l0-0.1c4.4-0.6-10.9-33.2-26-64.1C5.5,1004.9-0.2,1008.9-5.5,1013.5z"/>
				<path d="M47.6,1066.1c-3.6-0.1-7-0.3-10.2-0.5c-14.7-1-24.4-2.9-30.8-4.9c-1.1-0.3-2.1-0.7-3-1c-6.2-2.3-8.1-4.2-8.1-4.2
					s0,26,0,27h185c-0.1,0.5-0.2,1.1-0.2,1.1c0.2,0.1,0.5-4,3.2-6.1c4.6-3.6,11.9-8.1,15-13c3.6-5.7,11.5-12.5,10.6-37.9
					c0-0.1,0-0.2-0.1-0.2c-0.1-0.1-0.3-0.1-0.4,0c-7,7.5-18.5,18.4-35.7,25.3c-12.3,5-22.4,6.8-22.4,6.8c-13.9,2-26.5,3.5-38.1,4.7
					c-3.4,0.3-6.6,0.6-9.8,0.9C79.9,1066,61.9,1066.5,47.6,1066.1z"/>
				<path d="M11.5,1001.4c15.1,30.9,30.4,63.6,26,64.1l0,0.1c3.2,0.2,6.5,0.4,10.2,0.5c1.8-6.5-13.7-39.5-28.2-69
					C16.7,998.4,14.1,999.8,11.5,1001.4z"/>
				<path class="st13" d="M19.4,997.1c14.6,29.5,30.1,62.4,28.2,69c14.3,0.4,32.3,0,54.9-2c9.8-39.5,8.4-66.9,3-85.3
					C86.6,979.2,51,981.5,19.4,997.1z"/>
				<path class="st13" d="M100.5,875.5c0,0-11-2-8,8s34,94,26,95c-0.8,0.1-2.2,0.1-4.2,0.2c7.5,35.1-1.9,84.5-1.9,84.5
					c11.6-1.2,24.2-2.7,38.1-4.7c0,0,10.1-1.8,22.4-6.8c17.2-6.9,28.8-17.8,35.7-25.3c0.1-0.1,0.3-0.1,0.4,0l0.2-0.4
					c-12.4-7.9-23.9-19.2-30.8-30.5c-1.8-2.9-3.4-6-4.9-9.1l-0.1,0.1c-16.7-9.8-46-3-41-13c5-10-28-86-27-89s85-1.6,85-1.6
					c1.8-2.1,3.7-4.4,5.9-6.9C164.4,875.8,132.4,875.7,100.5,875.5z"/>
				<path d="M105.6,978.8c5.4,18.4,6.8,45.7-3,85.3c3.2-0.3,6.5-0.6,9.8-0.9c0,0,9.4-49.4,1.9-84.5
					C112.1,978.7,109.1,978.7,105.6,978.8z"/>
				<path class="st13" d="M178.5,900.5c-4.7,9.3-18.4,38.5-9.6,72.7c1.2,4.6,2.8,9,4.7,13.2c1.4,3.1,3.1,6.1,4.9,9.1
					c6.9,11.3,18.4,22.6,30.8,30.5c12.8,8.1,26.6,12.5,37.2,9.5c20.8-5.9-11-64.1-11.7-65.5c0.2,1.2,0.5,2.3,0.7,3.5
					c17,71-17,42-17,42c-98-62,35-175,44-186c7.3-8.9,37.3-18.4,54.4-23.3c4.1-1.2,7.5-2.1,9.6-2.7c11-3,11-13,13-17s-2-5-5-7
					s-8,3-8,3c-21.5,4.9-37.6,12.3-48,18c-27.7,15-44.2,33.4-71,63c-4.2,4.7-7.9,8.8-11.2,12.5c-2.2,2.5-4.1,4.8-5.9,6.9
					C185.2,889.3,181.5,894.6,178.5,900.5z"/>
				<path class="st14" d="M234.8,970c-5.5-30.9,9.2-81.1,82.2-163.8c-17.1,4.9-47.2,14.5-54.4,23.3c-9,11-142,124-44,186
					c0,0,34,29,17-42C235.2,972.4,235,971.2,234.8,970z"/>
			</g>
		</g>
		<g id="XMLID_5_" class="st2">
			<g>
				<path class="st16" d="M215.2,813v8.5l-215.7,121v-9l1.2-0.7l132.1-74.7l0.1-0.1c34.7-19.4,64.8-35.9,73.3-39.5
					C211.8,816.1,214.4,814.3,215.2,813z"/>
				<path class="st17" d="M215.2,813c-0.8,1.3-3.4,3.1-9,5.5c-8.4,3.7-38.6,20.2-73.3,39.5l82.3-46.5V813z"/>
				<path class="st17" d="M215.2,811.5L132.9,858l-0.1,0.1C77.4,889,10.3,927.3,0.7,932.8l-1.2,0.7l-0.3-124h203
					c0,0,15.5-0.6,13,3.5V811.5z"/>
			</g>
		</g>
		<g id="XMLID_4_" class="st2">
			<g>
				<path class="st17" d="M1205.5,818.5c-5.6-2.4-8.2-4.2-9-5.5v-1.5l82.3,46.5C1244.1,838.7,1213.9,822.2,1205.5,818.5z"/>
				<path class="st16" d="M1412.2,933.5v9l-215.7-121V813c0.8,1.3,3.4,3.1,9,5.5c8.4,3.7,38.6,20.2,73.3,39.5l0.1,0.1l132.1,74.7
					L1412.2,933.5z"/>
				<path class="st17" d="M1196.5,813c-2.5-4.1,13-3.5,13-3.5h203l-0.3,124l-1.2-0.7c-9.6-5.5-76.7-43.8-132.1-74.7l-0.1-0.1
					l-82.3-46.5V813z"/>
			</g>
		</g>
	</g>
</g>
</svg>
