<svg xmlns="http://www.w3.org/2000/svg" xmlns:xlink="http://www.w3.org/1999/xlink" viewBox="0 0 1408 1076"><defs><style>.cls-1,.cls-10,.cls-11{fill:none;}.cls-2{clip-path:url(#clip-path);}.cls-3{fill:#f5d248;}.cls-4{fill:#e5424f;}.cls-5{fill:#27a4b8;}.cls-6{fill:#efefef;}.cls-7{fill:#e0e0e0;}.cls-8{fill:#9fc8cc;}.cls-9{fill:#f8f8f8;}.cls-10{stroke:#efefef;}.cls-10,.cls-11{stroke-miterlimit:10;stroke-width:0.5px;}.cls-11{stroke:#f8f8f8;}.cls-12{fill:#dd6f7c;}.cls-13{fill:#efd684;}</style><clipPath id="clip-path"><rect class="cls-1" x="-3" width="1412" height="1079"/></clipPath></defs><title>engineering17</title><g id="Capa_2" data-name="Capa 2"><g class="cls-2"><path class="cls-3" d="M790.77,213.05c7.05.43,60.64,3.61,77.65,2.12.82-.08,1.34.6,1.41,1.41.51,5.8.23,25.56.17,26.42-.2,3-70.12-3.57-79.17-2.22-.41.06-.62-.3-.71-.7-.83-3.66,0-22.4,0-26.35A.66.66,0,0,1,790.77,213.05Z"/><path class="cls-4" d="M234,245s-5,27-2,27,17,0,22,1,13-1,13-1,6-24,3-27Z"/><path class="cls-4" d="M233,272s-5,27-2,27,17,0,22,1,13-1,13-1,6-24,3-27Z"/><path class="cls-4" d="M237,299s-5,27-2,27,17,0,22,1,13-1,13-1,6-24,3-27Z"/><path class="cls-4" d="M196,300s-5,27-2,27,17,0,22,1,13-1,13-1,6-24,3-27Z"/><path class="cls-4" d="M230,328s-5,27-2,27,17,0,22,1,13-1,13-1,6-24,3-27Z"/><path class="cls-4" d="M191,326s-5,27-2,27,17,0,22,1,13-1,13-1,6-24,3-27Z"/><path class="cls-4" d="M235,355s-5,27-2,27,17,0,22,1,13-1,13-1,6-24,3-27Z"/><path class="cls-4" d="M233,381s-5,27-2,27,17,0,22,1,13-1,13-1,6-24,3-27Z"/><path class="cls-4" d="M196,351s-5,27-2,27,17,0,22,1,13-1,13-1,6-24,3-27Z"/><path class="cls-4" d="M234,407s-5,27-2,27,17,0,22,1,13-1,13-1,6-24,3-27Z"/><path class="cls-4" d="M196,377s-5,27-2,27,17,0,22,1,13-1,13-1,6-24,3-27Z"/><path class="cls-4" d="M191,404s-5,27-2,27,17,0,22,1,13-1,13-1,6-24,3-27Z"/><path class="cls-4" d="M193,435s-5,27-2,27,17,0,22,1,13-1,13-1,6-24,3-27Z"/><path class="cls-4" d="M197,469s-5,27-2,27,17,0,22,1,13-1,13-1,6-24,3-27Z"/><path class="cls-4" d="M196,495s-5,27-2,27,17,0,22,1,13-1,13-1,6-24,3-27Z"/><path class="cls-4" d="M233,469s-5,27-2,27,17,0,22,1,13-1,13-1,6-24,3-27Z"/><path class="cls-4" d="M233,493s-5,27-2,27,17,0,22,1,13-1,13-1,6-24,3-27Z"/><path class="cls-4" d="M4,455s-2,27,1,27,17,0,22,1,13-1,13-1,3-24,0-27Z"/><path class="cls-4" d="M366,247s2,27,0,28,33-2,38,1c0,0-2-28,0-28Z"/><path class="cls-4" d="M325,273s2,27,0,28,33-2,38,1c0,0-2-28,0-28Z"/><path class="cls-4" d="M369.31,276.06a2.1,2.1,0,0,0-2.15,2.24c.43,6.54,1.48,24.88-.16,25.7s25.8-1.39,35.38.22A2.09,2.09,0,0,0,404.8,302c-.35-5.63-1-17.72-.51-22.74a2.12,2.12,0,0,0-2-2.34Z"/><path class="cls-4" d="M420,248s-5,27-2,27,17,0,22,1,13-1,13-1,6-24,3-27Z"/><path class="cls-4" d="M460,248s-5,27-2,27,17,0,22,1,13-1,13-1,6-24,3-27Z"/><path class="cls-4" d="M438,277s-2,27,1,27,17,0,22,1,13-1,13-1,3-24,0-27Z"/><path class="cls-4" d="M416,306s-2,27,1,27,16.94,1.65,22,1,13-1.63,13-1c0,0,3-24,0-27Z"/><path class="cls-4" d="M460,304s-2,27,1,27,16.94,1.65,22,1,13-1.63,13-1c0,0,3-24,0-27Z"/><path class="cls-4" d="M418,334s-2,27,1,27,16.94,1.65,22,1,13-1.63,13-1c0,0,3-24,0-27Z"/><path class="cls-4" d="M418,362s-2,27,1,27,16.94,1.65,22,1,13-1.63,13-1c0,0,3-24,0-27Z"/><path class="cls-4" d="M507,276s-2,27,1,27,16.94,1.65,22,1,13-1.63,13-1c0,0,3-24,0-27Z"/><path class="cls-4" d="M509,245s-2,27,1,27,16.94,1.65,22,1,13-1.63,13-1c0,0,3-24,0-27Z"/><path class="cls-4" d="M549,247s-2,27,1,27,16.94,1.65,22,1,13-1.63,13-1c0,0,3-24,0-27Z"/><path class="cls-4" d="M595,248s-2,27,1,27,16.94,1.65,22,1,13-1.63,13-1c0,0,3-24,0-27Z"/><path class="cls-4" d="M634,276s-2,27,1,27,16.94,1.65,22,1,13-1.63,13-1c0,0,3-24,0-27Z"/><path class="cls-4" d="M593,304s-2,27,1,27,16.94,1.65,22,1,13-1.63,13-1c0,0,3-24,0-27Z"/><path class="cls-4" d="M636,304s-2,27,1,27,16.94,1.65,22,1,13-1.63,13-1c0,0,3-24,0-27Z"/><path class="cls-4" d="M639,333s-2,27,1,27,16.94,1.65,22,1,13-1.63,13-1c0,0,3-24,0-27Z"/><rect class="cls-1" x="227.15" y="547.66" width="39.8" height="28.28"/><path class="cls-4" d="M230.11,547.66s-5,27-2,27,17,0,22,1,13-1,13-1,6-24,3-27Z"/><rect class="cls-1" x="191.85" y="546.59" width="39.8" height="28.28"/><path class="cls-4" d="M194.81,546.59s-5,27-2,27,17,0,22,1,13-1,13-1,6-24,3-27Z"/><rect class="cls-1" x="274.23" y="548.19" width="39.8" height="28.28"/><path class="cls-4" d="M277.19,548.19s-5,27-2,27,17,0,22,1,13-1,13-1,6-24,3-27Z"/><rect class="cls-1" x="459.32" y="336.89" width="39.8" height="28.28"/><path class="cls-4" d="M462.27,336.89s-5,27-2,27,17,0,22,1,13-1,13-1,6-24,3-27Z"/><rect class="cls-1" x="458.78" y="359.89" width="39.8" height="28.28"/><path class="cls-4" d="M461.74,359.89s-5,27-2,27,17,0,22,1,13-1,13-1,6-24,3-27Z"/><rect class="cls-1" x="454.5" y="386.64" width="39.8" height="28.28"/><path class="cls-4" d="M457.46,386.64s-5,27-2,27,17,0,22,1,13-1,13-1,6-24,3-27Z"/><rect class="cls-1" x="450.22" y="416.06" width="39.8" height="28.28"/><path class="cls-4" d="M453.18,416.06s-5,27-2,27,17,0,22,1,13-1,13-1,6-24,3-27Z"/><rect class="cls-1" x="499.43" y="333.15" width="39.8" height="28.28"/><path class="cls-4" d="M502.39,333.15s-5,27-2,27,17,0,22,1,13-1,13-1,6-24,3-27Z"/><rect class="cls-1" x="506.92" y="304.26" width="39.8" height="28.28"/><path class="cls-4" d="M509.88,304.26s-5,27-2,27,17,0,22,1,13-1,13-1,6-24,3-27Z"/><rect class="cls-1" x="548.65" y="274.84" width="39.8" height="28.28"/><path class="cls-4" d="M551.61,274.84s-5,27-2,27,17,0,22,1,13-1,13-1,6-24,3-27Z"/><rect class="cls-1" x="548.11" y="305.87" width="39.8" height="28.28"/><path class="cls-4" d="M551.07,305.87s-5,27-2,27,17,0,22,1,13-1,13-1,6-24,3-27Z"/><rect class="cls-1" x="591.98" y="276.98" width="39.8" height="28.28"/><path class="cls-4" d="M594.94,277s-5,27-2,27,17,0,22,1,13-1,13-1,6-24,3-27Z"/><rect class="cls-1" x="588.23" y="360.96" width="39.8" height="28.28"/><path class="cls-4" d="M591.19,361s-5,27-2,27,17,0,22,1,13-1,13-1,6-24,3-27Z"/><rect class="cls-1" x="635.84" y="471.7" width="39.8" height="28.28"/><path class="cls-4" d="M638.8,471.7s-5,27-2,27,17,0,22,1,13-1,13-1,6-24,3-27Z"/><rect class="cls-1" x="705.64" y="413.83" width="39.8" height="28.28"/><path class="cls-4" d="M708.6,413.83s-5,27-2,27,17,0,22,1,13-1,13-1,6-24,3-27Z"/><rect class="cls-1" x="742.83" y="325.12" width="39.8" height="28.28"/><path class="cls-4" d="M745.79,325.12s-5,27-2,27,17,0,22,1,13-1,13-1,6-24,3-27Z"/><rect class="cls-1" x="877.63" y="247.02" width="39.8" height="28.28"/><path class="cls-4" d="M880.59,247s-5,27-2,27,17,0,22,1,13-1,13-1,6-24,3-27Z"/><rect class="cls-1" x="825.74" y="249.16" width="39.8" height="28.28"/><path class="cls-4" d="M828.7,249.16s-5,27-2,27,17,0,22,1,13-1,13-1,6-24,3-27Z"/><rect class="cls-1" x="915.61" y="246.49" width="39.8" height="28.28"/><path class="cls-4" d="M918.57,246.49s-5,27-2,27,17,0,22,1,13-1,13-1,6-24,3-27Z"/><rect class="cls-1" x="917.22" y="274.31" width="39.8" height="28.28"/><path class="cls-4" d="M920.17,274.31s-5,27-2,27,17,0,22,1,13-1,13-1,6-24,3-27Z"/><rect class="cls-1" x="1003.87" y="307.47" width="39.8" height="28.28"/><path class="cls-4" d="M1006.83,307.47s-5,27-2,27,17,0,22,1,13-1,13-1,6-24,3-27Z"/><rect class="cls-1" x="915.61" y="331.01" width="39.8" height="28.28"/><path class="cls-4" d="M918.57,331s-5,27-2,27,17,0,22,1,13-1,13-1,6-24,3-27Z"/><rect class="cls-1" x="950.48" y="659.52" width="39.8" height="28.28"/><path class="cls-4" d="M953.44,659.52s-5,27-2,27,17,0,22,1,13-1,13-1,6-24,3-27Z"/><rect class="cls-1" x="866.88" y="727.76" width="39.8" height="28.28"/><path class="cls-4" d="M869.84,727.76s-5,27-2,27,17,0,22,1,13-1,13-1,6-24,3-27Z"/><rect class="cls-1" x="564.06" y="704.73" width="39.8" height="28.28"/><path class="cls-4" d="M567,704.73s-5,27-2,27,17,0,22,1,13-1,13-1,6-24,3-27Z"/><rect class="cls-1" x="472.79" y="624.55" width="39.8" height="28.28"/><path class="cls-4" d="M475.74,624.55s-5,27-2,27,17,0,22,1,13-1,13-1,6-24,3-27Z"/><rect class="cls-1" x="912.28" y="657.26" width="37.99" height="28.15"/><path class="cls-5" d="M912.94,657.26s-2,27,1,27,16.94,1.64,22,1,13-1.63,13-1c0,0,3-24,0-27Z"/><rect class="cls-1" x="991.78" y="636.06" width="37.99" height="28.15"/><path class="cls-5" d="M992.44,636.06s-2,27,1,27,16.94,1.64,22,1,13-1.63,13-1c0,0,3-24,0-27Z"/><rect class="cls-1" x="638.56" y="246.84" width="37.99" height="28.15"/><path class="cls-5" d="M639.22,246.84s-2,27,1,27,16.94,1.65,22,1,13-1.62,13-1c0,0,3-24,0-27Z"/><rect class="cls-1" x="704.65" y="244" width="37.99" height="28.15"/><path class="cls-5" d="M705.31,244s-2,27,1,27,16.94,1.64,22,1,13-1.63,13-1c0,0,3-24,0-27Z"/><rect class="cls-1" x="746.81" y="246.27" width="37.99" height="28.15"/><path class="cls-5" d="M747.47,246.27s-2,27,1,27,16.94,1.65,22,1,13-1.62,13-1c0,0,3-24,0-27Z"/><rect class="cls-1" x="739.41" y="271.34" width="37.99" height="28.15"/><path class="cls-5" d="M740.06,271.34s-2,27,1,27,16.94,1.65,22,1,13-1.62,13-1c0,0,3-24,0-27Z"/><rect class="cls-1" x="743.4" y="297.55" width="37.99" height="28.15"/><path class="cls-5" d="M744.05,297.55s-2,27,1,27,16.94,1.65,22,1,13-1.63,13-1c0,0,3-24,0-27Z"/><rect class="cls-1" x="746.81" y="354.52" width="37.99" height="28.15"/><path class="cls-5" d="M747.47,354.52s-2,27,1,27,16.94,1.65,22,1,13-1.62,13-1c0,0,3-24,0-27Z"/><rect class="cls-1" x="828.29" y="277.61" width="37.99" height="28.15"/><path class="cls-5" d="M828.94,277.61s-2,27,1,27,16.94,1.64,22,1,13-1.63,13-1c0,0,3-24,0-27Z"/><rect class="cls-1" x="789.54" y="245.7" width="37.99" height="28.15"/><path class="cls-5" d="M790.2,245.7s-2,27,1,27,16.94,1.65,22,1,13-1.62,13-1c0,0,3-24,0-27Z"/><rect class="cls-1" x="979.27" y="247.98" width="37.99" height="28.15"/><path class="cls-5" d="M979.92,248s-2,27,1,27,16.94,1.65,22,1,13-1.62,13-1c0,0,3-24,0-27Z"/><rect class="cls-1" x="1064.73" y="250.26" width="37.99" height="28.15"/><path class="cls-5" d="M1065.38,250.26s-2,27,1,27,16.94,1.65,22,1,13-1.62,13-1c0,0,3-24,0-27Z"/><path class="cls-4" d="M277,220s-2,27,1,27,16.94,1.65,22,1,13-1.63,13-1c0,0,3-24,0-27Z"/><rect class="cls-1" x="273.69" y="247.02" width="39.8" height="28.28"/><path class="cls-4" d="M276.65,247s-5,27-2,27,17,0,22,1,13-1,13-1,6-24,3-27Z"/><rect class="cls-1" x="275.3" y="272.17" width="39.8" height="28.28"/><path class="cls-4" d="M278.26,272.17s-5,27-2,27,17,0,22,1,13-1,13-1,6-24,3-27Z"/><rect class="cls-1" x="265.67" y="298.91" width="39.8" height="28.28"/><path class="cls-4" d="M268.63,298.91s-5,27-2,27,17,0,22,1,13-1,13-1,6-24,3-27Z"/><rect class="cls-1" x="267.81" y="328.87" width="39.8" height="28.28"/><path class="cls-4" d="M270.77,328.87s-5,27-2,27,17,0,22,1,13-1,13-1,6-24,3-27Z"/><rect class="cls-1" x="272.62" y="355.08" width="39.8" height="28.28"/><path class="cls-4" d="M275.58,355.08s-5,27-2,27,17,0,22,1,13-1,13-1,6-24,3-27Z"/><rect class="cls-1" x="272.09" y="382.9" width="39.8" height="28.28"/><path class="cls-4" d="M275.05,382.9s-5,27-2,27,17,0,22,1,13-1,13-1,6-24,3-27Z"/><rect class="cls-1" x="266.74" y="414.99" width="39.8" height="28.28"/><path class="cls-4" d="M269.7,415s-5,27-2,27,17,0,22,1,13-1,13-1,6-24,3-27Z"/><rect class="cls-1" x="267.27" y="438.53" width="39.8" height="28.28"/><path class="cls-4" d="M270.23,438.53s-5,27-2,27,17,0,22,1,13-1,13-1,6-24,3-27Z"/><rect class="cls-1" x="227.15" y="438.53" width="39.8" height="28.28"/><path class="cls-4" d="M230.11,438.53s-5,27-2,27,17,0,22,1,13-1,13-1,6-24,3-27Z"/><rect class="cls-1" x="266.74" y="466.35" width="39.8" height="28.28"/><path class="cls-4" d="M269.7,466.35s-5,27-2,27,17,0,22,1,13-1,13-1,6-24,3-27Z"/><rect class="cls-1" x="271.02" y="493.63" width="39.8" height="28.28"/><path class="cls-4" d="M274,493.63s-5,27-2,27,17,0,22,1,13-1,13-1,6-24,3-27Z"/><rect class="cls-1" x="269.41" y="522.51" width="39.8" height="28.28"/><path class="cls-4" d="M272.37,522.51s-5,27-2,27,17,0,22,1,13-1,13-1,6-24,3-27Z"/><rect class="cls-1" x="231.43" y="525.72" width="39.8" height="28.28"/><path class="cls-4" d="M234.39,525.72s-5,27-2,27,17,0,22,1,13-1,13-1,6-24,3-27Z"/><path class="cls-5" d="M559,628s-2,27,1,27,16.94,1.65,22,1,13-1.63,13-1c0,0,3-24,0-27Z"/><rect class="cls-1" x="512.86" y="658.22" width="37.99" height="28.15"/><path class="cls-5" d="M513.51,658.22s-2,27,1,27,17,1.65,22,1,13-1.63,13-1c0,0,3-24,0-27Z"/><rect class="cls-1" x="518.64" y="683.76" width="37.99" height="28.15"/><path class="cls-5" d="M519.3,683.76s-2,27,1,27,16.94,1.64,22,1,13-1.63,13-1c0,0,3-24,0-27Z"/><rect class="cls-1" x="474.8" y="711.22" width="37.99" height="28.15"/><path class="cls-5" d="M475.45,711.22s-2,27,1,27,16.94,1.64,22,1,13-1.63,13-1c0,0,3-24,0-27Z"/><rect class="cls-1" x="522.02" y="734.35" width="37.99" height="28.15"/><path class="cls-5" d="M522.67,734.35s-2,27,1,27,16.94,1.64,22,1,13-1.63,13-1c0,0,3-24,0-27Z"/><rect class="cls-1" x="519.61" y="762.77" width="37.99" height="28.15"/><path class="cls-5" d="M520.26,762.77s-2,27,1,27,16.94,1.65,22,1,13-1.62,13-1c0,0,3-24,0-27Z"/><rect class="cls-1" x="565.38" y="789.27" width="37.99" height="28.15"/><path class="cls-5" d="M566,789.27s-2,27,1,27,16.94,1.65,22,1,13-1.62,13-1c0,0,3-24,0-27Z"/><rect class="cls-1" x="604.89" y="624.01" width="37.99" height="28.15"/><path class="cls-5" d="M605.54,624s-2,27,1,27,16.94,1.65,22,1,13-1.63,13-1c0,0,3-24,0-27Z"/><rect class="cls-1" x="635.24" y="629.79" width="37.99" height="28.15"/><path class="cls-5" d="M635.89,629.79s-2,27,1,27,17,1.65,22,1,13-1.62,13-1c0,0,3-24,0-27Z"/><rect class="cls-1" x="637.17" y="656.29" width="37.99" height="28.15"/><path class="cls-5" d="M637.82,656.29s-2,27,1,27,16.94,1.65,22,1,13-1.62,13-1c0,0,3-24,0-27Z"/><rect class="cls-1" x="633.31" y="689.06" width="37.99" height="28.15"/><path class="cls-5" d="M634,689.06s-2,27,1,27,16.94,1.64,22,1,13-1.63,13-1c0,0,3-24,0-27Z"/><rect class="cls-1" x="783.64" y="633.17" width="37.99" height="28.15"/><path class="cls-5" d="M784.29,633.17s-2,27,1,27,16.94,1.64,22,1,13-1.63,13-1c0,0,3-24,0-27Z"/><rect class="cls-1" x="786.05" y="661.11" width="37.99" height="28.15"/><path class="cls-5" d="M786.7,661.11s-2,27,1,27,16.94,1.65,22,1,13-1.63,13-1c0,0,3-24,0-27Z"/><rect class="cls-1" x="780.75" y="686.17" width="37.99" height="28.15"/><path class="cls-5" d="M781.4,686.17s-2,27,1,27,16.94,1.64,22,1,13-1.63,13-1c0,0,3-24,0-27Z"/><rect class="cls-1" x="783.16" y="711.22" width="37.99" height="28.15"/><path class="cls-5" d="M783.81,711.22s-2,27,1,27,16.94,1.64,22,1,13-1.63,13-1c0,0,3-24,0-27Z"/><rect class="cls-1" x="822.18" y="628.35" width="37.99" height="28.15"/><path class="cls-5" d="M822.84,628.35s-2,27,1,27,16.94,1.64,22,1,13-1.63,13-1c0,0,3-24,0-27Z"/><rect class="cls-1" x="735.94" y="631.24" width="37.99" height="28.15"/><path class="cls-5" d="M736.59,631.24s-2,27,1,27,16.95,1.64,22,1,13-1.63,13-1c0,0,3-24,0-27Z"/><rect class="cls-1" x="869.4" y="631.24" width="37.99" height="28.15"/><path class="cls-5" d="M870.05,631.24s-2,27,1,27,17,1.64,22,1,13-1.63,13-1c0,0,3-24,0-27Z"/><rect class="cls-1" x="912.28" y="632.2" width="37.99" height="28.15"/><path class="cls-5" d="M912.94,632.2s-2,27,1,27,16.94,1.65,22,1,13-1.62,13-1c0,0,3-24,0-27Z"/><path class="cls-4" d="M924,300s-2,27,1,27,16.94,1.65,22,1,13-1.63,13-1c0,0,3-24,0-27Z"/><path class="cls-4" d="M1006,276s-2,27,1,27,16.94,1.65,22,1,13-1.63,13-1c0,0,3-24,0-27Z"/><path class="cls-4" d="M1097,280s-2,27,1,27,16.94,1.65,22,1,13-1.63,13-1c0,0,3-24,0-27Z"/><path class="cls-4" d="M704,272s-2,27,1,27,16.94,1.65,22,1,13-1.63,13-1c0,0,3-24,0-27Z"/><path class="cls-4" d="M701,300s-2,27,1,27,16.94,1.65,22,1,13-1.63,13-1c0,0,3-24,0-27Z"/><path class="cls-4" d="M704,330s-2,27,1,27,16.94,1.65,22,1,13-1.63,13-1c0,0,3-24,0-27Z"/><path class="cls-4" d="M704,355s-2,27,1,27,16.94,1.65,22,1,13-1.63,13-1c0,0,3-24,0-27Z"/><path class="cls-4" d="M710,379s-2,27,1,27,16.94,1.65,22,1,13-1.63,13-1c0,0,3-24,0-27Z"/><path class="cls-4" d="M753,390s-2,27,1,27,16.94,1.65,22,1,13-1.63,13-1c0,0,3-24,0-27Z"/><path class="cls-4" d="M794,276s-2,27,1,27,16.94,1.65,22,1,13-1.63,13-1c0,0,3-24,0-27Z"/><path class="cls-4" d="M793,305s-2,27,1,27,16.94,1.65,22,1,13-1.63,13-1c0,0,3-24,0-27Z"/><path class="cls-4" d="M791,333s-2,27,1,27,16.94,1.65,22,1,13-1.63,13-1c0,0,3-24,0-27Z"/><path class="cls-4" d="M793,360s-2,27,1,27,16.94,1.65,22,1,13-1.63,13-1c0,0,3-24,0-27Z"/><path class="cls-4" d="M832,311s-2,27,1,27,16.94,1.65,22,1,13-1.63,13-1c0,0,3-24,0-27Z"/><path class="cls-4" d="M834,342s-2,27,1,27,16.94,1.65,22,1,13-1.63,13-1c0,0,3-24,0-27Z"/><path class="cls-4" d="M876,276s-2,27,1,27,16.94,1.65,22,1,13-1.63,13-1c0,0,3-24,0-27Z"/><path class="cls-3" d="M701.77,211.05c7.05.43,60.64,3.61,77.65,2.12.82-.08,1.34.6,1.41,1.41.51,5.8.23,25.56.17,26.42-.2,3-70.12-3.57-79.17-2.22-.41.06-.62-.3-.71-.7-.83-3.66,0-22.4,0-26.35A.66.66,0,0,1,701.77,211.05Z"/><path class="cls-3" d="M876.77,215.05c7.05.43,60.64,3.61,77.65,2.12.82-.08,1.34.6,1.41,1.41.51,5.8.23,25.56.17,26.42-.2,3-70.12-3.57-79.17-2.22-.41.06-.62-.3-.71-.7-.83-3.66,0-22.4,0-26.35A.66.66,0,0,1,876.77,215.05Z"/><path class="cls-3" d="M960.77,215.05c7.05.43,60.64,3.61,77.65,2.12.82-.08,1.34.6,1.41,1.41.51,5.8.23,25.56.17,26.42-.2,3-70.12-3.57-79.17-2.22-.41.06-.62-.3-.71-.7-.83-3.66,0-22.4,0-26.35A.66.66,0,0,1,960.77,215.05Z"/><path class="cls-3" d="M1048.77,212.05c7,.43,60.64,3.61,77.65,2.12.82-.08,1.34.6,1.41,1.41.51,5.8.23,25.56.17,26.42-.2,3-70.12-3.57-79.17-2.22-.41.06-.62-.3-.71-.7-.83-3.66,0-22.4,0-26.35A.66.66,0,0,1,1048.77,212.05Z"/><path class="cls-3" d="M598.77,213.05c7.05.43,60.64,3.61,77.65,2.12.82-.08,1.34.6,1.41,1.41.51,5.8.23,25.56.17,26.42-.2,3-70.12-3.57-79.17-2.22-.41.06-.62-.3-.71-.7-.83-3.66,0-22.4,0-26.35A.66.66,0,0,1,598.77,213.05Z"/><path class="cls-3" d="M508.77,211.05c7.05.43,60.64,3.61,77.65,2.12.82-.08,1.34.6,1.41,1.41.51,5.8.23,25.56.17,26.42-.2,3-70.12-3.57-79.17-2.22-.41.06-.62-.3-.71-.7-.83-3.66,0-22.4-.05-26.35A.66.66,0,0,1,508.77,211.05Z"/><path class="cls-3" d="M417.77,211.05c7.05.43,60.64,3.61,77.65,2.12.82-.08,1.34.6,1.41,1.41.51,5.8.23,25.56.17,26.42-.2,3-70.12-3.57-79.17-2.22-.41.06-.62-.3-.71-.7-.83-3.66,0-22.4-.05-26.35A.66.66,0,0,1,417.77,211.05Z"/><path class="cls-3" d="M326.77,211.05c7.05.43,60.64,3.61,77.65,2.12.82-.08,1.34.6,1.41,1.41.51,5.8.23,25.56.17,26.42-.2,3-70.12-3.57-79.17-2.22-.41.06-.62-.3-.71-.7-.83-3.66,0-22.4-.05-26.35A.66.66,0,0,1,326.77,211.05Z"/><path class="cls-4" d="M208.77,184.05c7,.43,60.64,3.61,77.65,2.12.82-.08,1.34.6,1.41,1.41.51,5.8.23,25.56.17,26.42-.2,3-70.12-3.57-79.17-2.22-.41.06-.62-.3-.71-.7-.83-3.66,0-22.4-.05-26.35A.66.66,0,0,1,208.77,184.05Z"/><path class="cls-4" d="M226.77,594.05c7,.43,60.64,3.61,77.65,2.12.82-.08,1.34.6,1.41,1.41.51,5.8.23,25.56.17,26.42-.2,3-70.12-3.57-79.17-2.22-.41.06-.62-.3-.71-.7-.83-3.66,0-22.4-.05-26.35A.66.66,0,0,1,226.77,594.05Z"/><path class="cls-4" d="M340.77,594.05c7.05.43,60.64,3.61,77.65,2.12.82-.08,1.34.6,1.41,1.41.51,5.8.23,25.56.17,26.42-.2,3-70.12-3.57-79.17-2.22-.41.06-.62-.3-.71-.7-.83-3.66,0-22.4-.05-26.35A.66.66,0,0,1,340.77,594.05Z"/><path class="cls-4" d="M429.77,594.05c7.05.43,60.64,3.61,77.65,2.12.82-.08,1.34.6,1.41,1.41.51,5.8.23,25.56.17,26.42-.2,3-70.12-3.57-79.17-2.22-.41.06-.62-.3-.71-.7-.83-3.66,0-22.4-.05-26.35A.66.66,0,0,1,429.77,594.05Z"/><path class="cls-4" d="M515.77,594.05c7.05.43,60.64,3.61,77.65,2.12.82-.08,1.34.6,1.41,1.41.51,5.8.23,25.56.17,26.42-.2,3-70.12-3.57-79.17-2.22-.41.06-.62-.3-.71-.7-.83-3.66,0-22.4,0-26.35A.66.66,0,0,1,515.77,594.05Z"/><path class="cls-4" d="M599.77,594.05c7.05.43,60.64,3.61,77.65,2.12.82-.08,1.34.6,1.41,1.41.51,5.8.23,25.56.17,26.42-.2,3-70.12-3.57-79.17-2.22-.41.06-.62-.3-.71-.7-.83-3.66,0-22.4,0-26.35A.66.66,0,0,1,599.77,594.05Z"/><path class="cls-4" d="M695.77,597.05c7.05.43,60.64,3.61,77.65,2.12.82-.08,1.34.6,1.41,1.41.51,5.8.23,25.56.17,26.42-.2,3-70.12-3.57-79.17-2.22-.41.06-.62-.3-.71-.7-.83-3.66,0-22.4,0-26.35A.66.66,0,0,1,695.77,597.05Z"/><path class="cls-4" d="M783.77,597.05c7.05.43,60.64,3.61,77.65,2.12.82-.08,1.34.6,1.41,1.41.51,5.8.23,25.56.17,26.42-.2,3-70.12-3.57-79.17-2.22-.41.06-.62-.3-.71-.7-.83-3.66,0-22.4,0-26.35A.66.66,0,0,1,783.77,597.05Z"/><path class="cls-4" d="M866.77,599.05c7.05.43,60.64,3.61,77.65,2.12.82-.08,1.34.6,1.41,1.41.51,5.8.23,25.56.17,26.42-.2,3-70.12-3.57-79.17-2.22-.41.06-.62-.3-.71-.7-.83-3.66,0-22.4,0-26.35A.66.66,0,0,1,866.77,599.05Z"/><path class="cls-4" d="M954.77,597.05c7.05.43,60.64,3.61,77.65,2.12.82-.08,1.34.6,1.41,1.41.51,5.8.23,25.56.17,26.42-.2,3-70.12-3.57-79.17-2.22-.41.06-.62-.3-.71-.7-.83-3.66,0-22.4,0-26.35A.66.66,0,0,1,954.77,597.05Z"/><path class="cls-4" d="M1038.77,599.05c7,.43,60.64,3.61,77.65,2.12.82-.08,1.34.6,1.41,1.41.51,5.8.23,25.56.17,26.42-.2,3-70.12-3.57-79.17-2.22-.41.06-.62-.3-.71-.7-.83-3.66,0-22.4,0-26.35A.66.66,0,0,1,1038.77,599.05Z"/><path class="cls-3" d="M698.77,464.05c7.05.43,60.64,3.61,77.65,2.12.82-.08,1.34.6,1.41,1.41.51,5.8.23,25.56.17,26.42-.2,3-70.12-3.57-79.17-2.22-.41.06-.62-.3-.71-.7-.83-3.66,0-22.4,0-26.35A.66.66,0,0,1,698.77,464.05Z"/><path class="cls-3" d="M787.77,461.05c7.05.43,60.64,3.61,77.65,2.12.82-.08,1.34.6,1.41,1.41.51,5.8.23,25.56.17,26.42-.2,3-70.12-3.57-79.17-2.22-.41.06-.62-.3-.71-.7-.83-3.66,0-22.4,0-26.35A.66.66,0,0,1,787.77,461.05Z"/><path class="cls-5" d="M876.77,464.05c7.05.43,60.64,3.61,77.65,2.12.82-.08,1.34.6,1.41,1.41.51,5.8.23,25.56.17,26.42-.2,3-70.12-3.57-79.17-2.22-.41.06-.62-.3-.71-.7-.83-3.66,0-22.4,0-26.35A.66.66,0,0,1,876.77,464.05Z"/><path class="cls-5" d="M963.77,464.05c7.05.43,60.64,3.61,77.65,2.12.82-.08,1.34.6,1.41,1.41.51,5.8.23,25.56.17,26.42-.2,3-70.12-3.57-79.17-2.22-.41.06-.62-.3-.71-.7-.83-3.66,0-22.4,0-26.35A.66.66,0,0,1,963.77,464.05Z"/><path class="cls-3" d="M1056.77,466.05c7,.43,60.64,3.61,77.65,2.12.82-.08,1.34.6,1.41,1.41.51,5.8.23,25.56.17,26.42-.2,3-70.12-3.57-79.17-2.22-.41.06-.62-.3-.71-.7-.83-3.66,0-22.4,0-26.35A.66.66,0,0,1,1056.77,466.05Z"/><path class="cls-5" d="M561,734s-2,27,1,27,16.94,1.65,22,1,13-1.63,13-1c0,0,3-24,0-27Z"/><path class="cls-5" d="M434,681s-2,27,1,27,16.94,1.65,22,1,13-1.63,13-1c0,0,3-24,0-27Z"/><path class="cls-5" d="M953,632s-2,27,1,27,16.94,1.65,22,1,13-1.63,13-1c0,0,3-24,0-27Z"/><path class="cls-5" d="M995,670s-2,27,1,27,16.94,1.65,22,1,13-1.63,13-1c0,0,3-24,0-27Z"/><path class="cls-5" d="M953,691s-2,27,1,27,16.94,1.65,22,1,13-1.63,13-1c0,0,3-24,0-27Z"/><path class="cls-5" d="M1072,677s-2,27,1,27,16.94,1.65,22,1,13-1.63,13-1c0,0,3-24,0-27Z"/><path class="cls-5" d="M1072,639s-2,27,1,27,16.94,1.65,22,1,13-1.63,13-1c0,0,3-24,0-27Z"/><path class="cls-5" d="M-34,323s-2,27,1,27,16.94,1.65,22,1,13-1.63,13-1c0,0,3-24,0-27Z"/><path class="cls-5" d="M-36,355s-2,27,1,27,16.94,1.65,22,1,13-1.63,13-1c0,0,3-24,0-27Z"/><path class="cls-5" d="M-34,418s-2,27,1,27,16.94,1.65,22,1,13-1.63,13-1c0,0,3-24,0-27Z"/><path class="cls-5" d="M11,417s-2,27,1,27,16.94,1.65,22,1,13-1.63,13-1c0,0,3-24,0-27Z"/><path class="cls-5" d="M7,387s-2,27,1,27,16.94,1.65,22,1,13-1.63,13-1c0,0,3-24,0-27Z"/><path class="cls-5" d="M5,357s-2,27,1,27,16.94,1.65,22,1,13-1.63,13-1c0,0,3-24,0-27Z"/><path class="cls-5" d="M11,323s-2,27,1,27,16.94,1.65,22,1,13-1.63,13-1c0,0,3-24,0-27Z"/><path class="cls-5" d="M53,323s-2,27,1,27,16.94,1.65,22,1,13-1.63,13-1c0,0,3-24,0-27Z"/><path class="cls-5" d="M53,357s-2,27,1,27,16.94,1.65,22,1,13-1.63,13-1c0,0,3-24,0-27Z"/><path class="cls-5" d="M53,389s-2,27,1,27,16.94,1.65,22,1,13-1.63,13-1c0,0,3-24,0-27Z"/><path class="cls-5" d="M53,418s-2,27,1,27,16.94,1.65,22,1,13-1.63,13-1c0,0,3-24,0-27Z"/><path class="cls-5" d="M343,628s-2,27,1,27,16.94,1.65,22,1,13-1.63,13-1c0,0,3-24,0-27Z"/><path class="cls-5" d="M224,631s-2,27,1,27,16.94,1.65,22,1,13-1.63,13-1c0,0,3-24,0-27Z"/><path class="cls-5" d="M257,628s-2,27,1,27,16.94,1.65,22,1,13-1.63,13-1c0,0,3-24,0-27Z"/><path class="cls-5" d="M291,632s-2,27,1,27,16.94,1.65,22,1,13-1.63,13-1c0,0,3-24,0-27Z"/><path class="cls-4" d="M192,652s-2,27,1,27,16.94,1.65,22,1,13-1.63,13-1c0,0,3-24,0-27Z"/><path class="cls-5" d="M228,652s-2,27,1,27,16.94,1.65,22,1,13-1.63,13-1c0,0,3-24,0-27Z"/><path class="cls-5" d="M267,659s-2,27,1,27,16.94,1.65,22,1,13-1.63,13-1c0,0,3-24,0-27Z"/><path class="cls-5" d="M189,681s-2,27,1,27,16.94,1.65,22,1,13-1.63,13-1c0,0,3-24,0-27Z"/><path class="cls-4" d="M192,710s-2,27,1,27,16.94,1.65,22,1,13-1.63,13-1c0,0,3-24,0-27Z"/><path class="cls-5" d="M224,685s-2,27,1,27,16.94,1.65,22,1,13-1.63,13-1c0,0,3-24,0-27Z"/><path class="cls-5" d="M257,682s-2,27,1,27,16.94,1.65,22,1,13-1.63,13-1c0,0,3-24,0-27Z"/><path class="cls-5" d="M300,681s-2,27,1,27,16.94,1.65,22,1,13-1.63,13-1c0,0,3-24,0-27Z"/><path class="cls-5" d="M224,712s-2,27,1,27,16.94,1.65,22,1,13-1.63,13-1c0,0,3-24,0-27Z"/><path class="cls-4" d="M260,712s-2,27,1,27,16.94,1.65,22,1,13-1.63,13-1c0,0,3-24,0-27Z"/><path class="cls-4" d="M212,729s-2,27,1,27,16.94,1.65,22,1,13-1.63,13-1c0,0,3-24,0-27Z"/><path class="cls-5" d="M345,654s-2,27,1,27,16.94,1.65,22,1,13-1.63,13-1c0,0,3-24,0-27Z"/><path class="cls-5" d="M383,628s-2,27,1,27,16.94,1.65,22,1,13-1.63,13-1c0,0,3-24,0-27Z"/><path class="cls-5" d="M434,631s-2,27,1,27,16.94,1.65,22,1,13-1.63,13-1c0,0,3-24,0-27Z"/><path class="cls-5" d="M477,657s-2,27,1,27,16.94,1.65,22,1,13-1.63,13-1c0,0,3-24,0-27Z"/><path class="cls-5" d="M518,630s-2,27,1,27,16.94,1.65,22,1,13-1.63,13-1c0,0,3-24,0-27Z"/><path class="cls-4" d="M598,333s-2,27,1,27,16.94,1.65,22,1,13-1.63,13-1c0,0,3-24,0-27Z"/><path class="cls-4" d="M639,360s-2,27,1,27,16.94,1.65,22,1,13-1.63,13-1c0,0,3-24,0-27Z"/><path class="cls-4" d="M638,388s-2,27,1,27,16.94,1.65,22,1,13-1.63,13-1c0,0,3-24,0-27Z"/><path class="cls-4" d="M639,418s-2,27,1,27,16.94,1.65,22,1,13-1.63,13-1c0,0,3-24,0-27Z"/><path class="cls-4" d="M640,442s-2,27,1,27,16.94,1.65,22,1,13-1.63,13-1c0,0,3-24,0-27Z"/><path class="cls-4" d="M790,495s-2,27,1,27,16.94,1.65,22,1,13-1.63,13-1c0,0,3-24,0-27Z"/><path class="cls-4" d="M826,530s-2,27,1,27,16.94,1.65,22,1,13-1.63,13-1c0,0,3-24,0-27Z"/><path class="cls-4" d="M876,495s-2,27,1,27,16.94,1.65,22,1,13-1.63,13-1c0,0,3-24,0-27Z"/><path class="cls-4" d="M963,526s-2,27,1,27,16.94,1.65,22,1,13-1.63,13-1c0,0,3-24,0-27Z"/><path class="cls-4" d="M1065,531s-2,27,1,27,16.94,1.65,22,1,13-1.63,13-1c0,0,3-24,0-27Z"/><path class="cls-5" d="M434,711s-2,27,1,27,16.94,1.65,22,1,13-1.63,13-1c0,0,3-24,0-27Z"/><path class="cls-5" d="M569,760s-2,27,1,27,16.94,1.65,22,1,13-1.63,13-1c0,0,3-24,0-27Z"/><path class="cls-5" d="M740,660s-2,27,1,27,16.94,1.65,22,1,13-1.63,13-1c0,0,3-24,0-27Z"/><path class="cls-5" d="M870,659s-2,27,1,27,16.94,1.65,22,1,13-1.63,13-1c0,0,3-24,0-27Z"/><path class="cls-5" d="M872,694s-2,27,1,27,16.94,1.65,22,1,13-1.63,13-1c0,0,3-24,0-27Z"/><path class="cls-6" d="M1410.5,936.5s11-2,8,8c-1.35,4.5-13.62,28.62-26,53.89q-3.91-2.31-7.94-4.28c12.54-25.38,24.39-48.24,23.93-49.61-1-3-85-2-85-2-3.44,0-17.87,8.45-25.12,33.31-3.52-.09-6.47-.11-8.71-.14,3.21-15,9.51-27.4,21-32.17a5.54,5.54,0,0,0,3.22-3.88c.36-1.54,1.11-3.12,2.65-3.12C1348.45,936.35,1378.55,936.65,1410.5,936.5Z"/><path class="cls-7" d="M1409.5,1010.5l-.7,29.34,0,1.87-.1,3.92-.16,6.87s-1.88,2-8.12,4.23c-.91.32-1.91.66-3,1-6.4,2-16.18,3.92-30.85,4.89v-.12c-4.4-.55,10.88-33.19,26-64.11A113.49,113.49,0,0,1,1409.5,1010.5Z"/><path class="cls-6" d="M1301.39,1061.07a478.51,478.51,0,0,0,54.95,2c3.63-.1,7-.27,10.17-.47,14.67-1,24.45-2.94,30.85-4.89,1.11-.34,2.11-.68,3-1,6.24-2.26,8.12-4.23,8.12-4.23v27h-185a3.21,3.21,0,0,1,.15,1.1c-.21.07-.47-4-3.15-6.1-4.65-3.63-11.87-8.11-15-13-3.63-5.66-11.5-12.53-10.64-37.9a.28.28,0,0,1,.1-.21.26.26,0,0,1,.39,0c7,7.52,18.51,18.38,35.74,25.32a126.12,126.12,0,0,0,22.41,6.78c13.87,2,26.52,3.49,38.07,4.65C1294.94,1060.49,1298.21,1060.79,1301.39,1061.07Z"/><path class="cls-6" d="M1392.51,998.39c-15.13,30.92-30.41,63.56-26,64.11v.12c-3.16.2-6.54.37-10.17.47-1.84-6.55,13.66-39.47,28.23-69Q1388.59,996.09,1392.51,998.39Z"/><path class="cls-7" d="M1384.57,994.11c-14.57,29.51-30.07,62.43-28.23,69a478.51,478.51,0,0,1-54.95-2c-9.81-39.54-8.37-66.88-3-85.26C1317.36,976.25,1353,978.46,1384.57,994.11Z"/><path class="cls-7" d="M1303.5,872.5s11-2,8,8-34,94-26,95c.8.1,2.22.14,4.17.17-7.49,35.08,1.9,84.48,1.9,84.48-11.55-1.16-24.2-2.68-38.07-4.65a126.12,126.12,0,0,1-22.41-6.78c-17.23-6.94-28.76-17.8-35.74-25.32a.26.26,0,0,0-.39,0l-.24-.38c12.4-7.87,23.89-19.19,30.78-30.51a91.81,91.81,0,0,0,4.86-9.06l.14.06c16.74-9.84,46-3,41-13s28-86,27-89-85-1.64-85-1.64c-1.78-2.15-3.73-4.43-5.89-6.9Z"/><path class="cls-6" d="M1298.38,975.81c-5.36,18.38-6.8,45.72,3,85.26-3.18-.28-6.45-.58-9.82-.92,0,0-9.39-49.4-1.9-84.48C1291.91,975.7,1294.86,975.72,1298.38,975.81Z"/><path class="cls-6" d="M1225.5,897.5c4.68,9.3,18.42,38.54,9.6,72.74a76.65,76.65,0,0,1-4.74,13.2,91.81,91.81,0,0,1-4.86,9.06c-6.89,11.32-18.38,22.64-30.78,30.51-12.8,8.11-26.56,12.54-37.22,9.49-20.75-5.93,11-64.11,11.73-65.49-.21,1.19-.46,2.35-.73,3.49-17,71,17,42,17,42,98-62-35-175-44-186-7.26-8.88-37.32-18.41-54.43-23.33-4.1-1.18-7.45-2.09-9.57-2.67-11-3-11-13-13-17s2-5,5-7,8,3,8,3a187.39,187.39,0,0,1,48,18c27.67,15,44.23,33.37,71,63,4.25,4.71,7.94,8.8,11.16,12.46,2.16,2.47,4.11,4.75,5.89,6.9A93.32,93.32,0,0,1,1225.5,897.5Z"/><path class="cls-8" d="M1169.23,967c5.55-30.94-9.23-81.09-82.16-163.84,17.11,4.92,47.17,14.45,54.43,23.33,9,11,142,124,44,186,0,0-34,29-17-42C1168.77,969.36,1169,968.2,1169.23,967Z"/><path class="cls-6" d="M-9.52,939.5s-11-2-8,8c1.35,4.5,13.62,28.62,26,53.89q3.91-2.31,7.94-4.28C3.87,971.73-8,948.87-7.52,947.5c1-3,85-2,85-2,3.44,0,17.87,8.45,25.12,33.31,3.52-.09,6.47-.11,8.71-.14-3.21-15-9.51-27.4-21-32.17a5.54,5.54,0,0,1-3.22-3.88c-.36-1.54-1.11-3.12-2.65-3.12C52.53,939.35,22.43,939.65-9.52,939.5Z"/><path class="cls-7" d="M-8.52,1013.5l.7,29.34,0,1.87.1,3.92.16,6.87s1.88,2,8.12,4.23c.91.32,1.91.66,3,1,6.4,2,16.18,3.92,30.85,4.89v-.12c4.4-.55-10.88-33.19-26-64.11A113.49,113.49,0,0,0-8.52,1013.5Z"/><path class="cls-6" d="M99.59,1064.07a478.51,478.51,0,0,1-54.95,2c-3.63-.1-7-.27-10.17-.47-14.67-1-24.45-2.94-30.85-4.89-1.11-.34-2.11-.68-3-1-6.24-2.26-8.12-4.23-8.12-4.23v27h185a3.21,3.21,0,0,0-.15,1.1c.21.07.47-4,3.15-6.1,4.65-3.63,11.87-8.11,15-13,3.63-5.66,11.5-12.53,10.64-37.9a.28.28,0,0,0-.1-.21.26.26,0,0,0-.39,0c-7,7.52-18.51,18.38-35.74,25.32a126.12,126.12,0,0,1-22.41,6.78c-13.87,2-26.52,3.49-38.07,4.65C106,1063.49,102.77,1063.79,99.59,1064.07Z"/><path class="cls-6" d="M8.47,1001.39c15.13,30.92,30.41,63.56,26,64.11v.12c3.16.2,6.54.37,10.17.47,1.84-6.55-13.66-39.47-28.23-69Q12.39,999.09,8.47,1001.39Z"/><path class="cls-7" d="M16.41,997.11c14.57,29.51,30.07,62.43,28.23,69a478.51,478.51,0,0,0,55-2c9.81-39.54,8.37-66.88,3-85.26C83.62,979.25,48,981.46,16.41,997.11Z"/><path class="cls-7" d="M97.48,875.5s-11-2-8,8,34,94,26,95c-.8.1-2.22.14-4.17.17,7.49,35.08-1.9,84.48-1.9,84.48,11.55-1.16,24.2-2.68,38.07-4.65a126.12,126.12,0,0,0,22.41-6.78c17.23-6.94,28.76-17.8,35.74-25.32a.26.26,0,0,1,.39,0l.24-.38c-12.4-7.87-23.89-19.19-30.78-30.51a91.81,91.81,0,0,1-4.86-9.06l-.14.06c-16.74-9.84-46-3-41-13s-28-86-27-89,85-1.64,85-1.64c1.78-2.15,3.73-4.43,5.89-6.9Z"/><path class="cls-6" d="M102.6,978.81c5.36,18.38,6.8,45.72-3,85.26,3.18-.28,6.45-.58,9.82-.92,0,0,9.39-49.4,1.9-84.48C109.07,978.7,106.12,978.72,102.6,978.81Z"/><path class="cls-6" d="M175.48,900.5c-4.68,9.3-18.42,38.54-9.6,72.74a76.65,76.65,0,0,0,4.74,13.2,91.81,91.81,0,0,0,4.86,9.06c6.89,11.32,18.38,22.64,30.78,30.51,12.8,8.11,26.56,12.54,37.22,9.49,20.75-5.93-11-64.11-11.73-65.49.21,1.19.46,2.35.73,3.49,17,71-17,42-17,42-98-62,35-175,44-186,7.26-8.88,37.32-18.41,54.43-23.33,4.1-1.18,7.45-2.09,9.57-2.67,11-3,11-13,13-17s-2-5-5-7-8,3-8,3a187.39,187.39,0,0,0-48,18c-27.67,15-44.23,33.37-71,63-4.25,4.71-7.94,8.8-11.16,12.46-2.16,2.47-4.11,4.75-5.89,6.9A93.32,93.32,0,0,0,175.48,900.5Z"/><path class="cls-8" d="M231.75,970c-5.55-30.94,9.23-81.09,82.16-163.84-17.11,4.92-47.17,14.45-54.43,23.33-9,11-142,124-44,186,0,0,34,29,17-42C232.21,972.36,232,971.2,231.75,970Z"/><path class="cls-9" d="M199.22,809.5s15.54-.58,13,3.51V811.5L129.93,858l-.15.08c-55.4,30.93-122.46,69.2-132.1,74.71l-1.18.67-.28-124Z"/><path class="cls-6" d="M212.22,813v8.49L-3.5,942.5v-9l1.18-.67,132.1-74.71.15-.08c34.73-19.39,64.84-35.87,73.29-39.54C208.77,816.08,211.41,814.31,212.22,813Z"/><path class="cls-9" d="M212.22,811.5V813c-.81,1.3-3.45,3.07-9,5.49-8.45,3.67-38.56,20.15-73.29,39.54Z"/><polyline class="cls-10" points="-3.5 933.5 -3.5 942.5 212.22 821.5 212.22 813.01 212.22 811.5"/><path class="cls-11" d="M129.78,858.12c-55.4,30.93-122.46,69.2-132.1,74.71"/><path class="cls-11" d="M-3.5,933.5l-.28-124h203s15.54-.58,13,3.51c-.81,1.3-3.45,3.07-9,5.49-8.45,3.67-38.56,20.15-73.29,39.54"/><line class="cls-11" x1="129.93" y1="858.04" x2="129.78" y2="858.12"/><path class="cls-4" d="M388,520s-5,27-2,27,17,0,22,1,13-1,13-1,6-24,3-27Z"/><path class="cls-5" d="M452,519s-2,27,1,27,16.94,1.65,22,1,13-1.63,13-1c0,0,3-24,0-27Z"/><path class="cls-9" d="M1408.22,932.51l.28-123h-203s-9.29-.34-12.33,1.39Z"/><path class="cls-9" d="M1408.22,932.51l-215-121.62a2.33,2.33,0,0,0-.67.54V813c.81,1.3,3.45,3.07,9,5.49,23,10,206.72,115,206.72,115Z"/><path class="cls-6" d="M1192.5,811.43a2.33,2.33,0,0,1,.67-.54l-.67-.38Z"/><path class="cls-9" d="M1192.5,811.43a1.26,1.26,0,0,0,0,1.58v-1.58Z"/><path class="cls-6" d="M1192.5,820.51l215.72,121v-8s-183.72-105-206.72-115c-5.55-2.42-8.19-4.19-9-5.49Z"/><polyline class="cls-10" points="1192.5 811.5 1192.5 811.43 1192.5 810.51"/><line class="cls-10" x1="1408.22" y1="941.51" x2="1192.5" y2="820.51"/><polyline class="cls-10" points="1192.5 820.51 1192.5 813.01 1192.5 811.5"/><polyline class="cls-11" points="1408.22 941.51 1408.22 942.5 1192.5 821.5 1192.5 820.51"/><line class="cls-10" x1="1408.22" y1="933.5" x2="1408.22" y2="941.51"/><path class="cls-11" d="M1408.22,933.5v-1l.28-123h-203s-9.29-.34-12.33,1.39a2.33,2.33,0,0,0-.67.54,1.26,1.26,0,0,0,0,1.58c.81,1.3,3.45,3.07,9,5.49,23,10,206.72,115,206.72,115"/><line class="cls-11" x1="1193.17" y1="810.89" x2="1408.22" y2="932.51"/><path class="cls-12" d="M1289.61,803.06a30.52,30.52,0,0,1,8.9,1.76c2.75,1.09,4.44,2.85,4.78,5,.17,1,.16,25.44,0,26.46A4.93,4.93,0,0,1,1302,839c-1.88,2-5.42,3.27-10.85,3.87a56.42,56.42,0,0,1-8.42-.06c-7.17-.86-11.1-3.07-11.65-6.53-.16-1-.17-25.47,0-26.46.49-3,3.25-5,8.54-6.07A41.73,41.73,0,0,1,1289.61,803.06Zm-8.07,3.52c-2.84.43-4.75,1.08-5.13,1.77a.5.5,0,0,0,0,.65c.38.68,2.42,1.39,5.18,1.78a67.92,67.92,0,0,0,9.41.18c4.26-.38,7-1.28,7-2.28s-2.47-1.78-6.15-2.2A68.28,68.28,0,0,0,1281.54,806.58Z"/><path class="cls-12" d="M1272,813.2v2.61l-1.29.08c-2.72.13-4,.93-4.6,2.89a20.88,20.88,0,0,0,0,6.57c.62,2,1.88,2.76,4.6,2.89l1.29.07v5.23l-1-.08c-4.76-.31-7.54-1.85-9.11-5a17,17,0,0,1,0-12.79c1.57-3.15,4.32-4.67,9.11-5l1-.07Z"/><path class="cls-13" d="M45.43,788.06a30.59,30.59,0,0,0-8.9,1.76c-2.75,1.09-4.43,2.85-4.78,5-.17,1-.16,25.44,0,26.46A4.93,4.93,0,0,0,33.09,824c1.89,2,5.42,3.27,10.85,3.87a56.42,56.42,0,0,0,8.42-.06c7.17-.86,11.1-3.07,11.65-6.53.16-1,.17-25.47,0-26.46-.49-3-3.25-5-8.54-6.07A41.73,41.73,0,0,0,45.43,788.06Zm8.07,3.52c2.84.43,4.75,1.08,5.13,1.77a.5.5,0,0,1,0,.65c-.38.68-2.42,1.39-5.18,1.78A67.92,67.92,0,0,1,44,796c-4.26-.38-7-1.28-7-2.28s2.47-1.78,6.15-2.2A68.28,68.28,0,0,1,53.5,791.58Z"/><path class="cls-13" d="M63,798.2v2.61l1.29.08c2.72.13,4,.93,4.6,2.89a20.88,20.88,0,0,1,0,6.57c-.62,2-1.88,2.76-4.6,2.89l-1.29.07v5.23l1-.08c4.76-.31,7.54-1.85,9.11-5a17,17,0,0,0,0-12.79c-1.57-3.15-4.32-4.67-9.11-5l-1-.07Z"/></g></g></svg>