<svg xmlns="http://www.w3.org/2000/svg" viewBox="0 0 589 679.4"><defs><style>.cls-1{fill:#fedc50;}.cls-2{fill:#4a2d0e;}.cls-3{fill:#d89868;}.cls-4{fill:#f4a36c;}.cls-5{fill:#e09868;}</style></defs><title>portrait_yellow</title><g id="Capa_2" data-name="Capa 2"><g id="backup"><path class="cls-1" d="M366.44,371.91c-6,.7-9-7.58-10.35-18.51C359.16,353.18,364.75,361.48,366.44,371.91Z"/><path class="cls-1" d="M589,676.4l-589,3c17-77,25.33-147.74,32.86-223,6.07-60.62,145.14-85.76,148.57-90.34C179,383.36,198.07,419,236,429.4c40,11,112,14,138-7,16.89-13.64,30.36-41.79,20.73-63.21l.13-.06c28.74,13,146.7,36.53,150.14,91.27C549.64,524.23,579,599.4,589,676.4Z"/><path class="cls-1" d="M216.71,365.49c-24.63,7.3,17.49,47.75,98.29,46.91,46.55-.48,54.24-23.37,51.44-40.49-1.69-10.43-7.28-18.73-10.35-18.51a145.26,145.26,0,0,1-.79-19.69h.64c21.7,4.31,33.61,13.91,38.79,25.47,9.63,21.42-3.84,49.57-20.73,63.21-26,21-98,18-138,7-37.93-10.43-57-46-54.57-63.34a15.45,15.45,0,0,1,.57-2.66c5-16,35-19,35-19h.6c0,6.88-.14,14-.6,21Z"/><path class="cls-2" d="M395.07,194.37c-.05.65-.07,1.33-.07,2,0,17-6.42,17.48-6.42,17.48,1.64-11.67,2.5-21.24,1.42-24.48-3-9-2-27-12-47-8.33-16.67-8.33-29.86-8.1-33.8a2.36,2.36,0,0,0-.9-2c-4.59-3.64-23.28-19.07-18-25.22.34-.92,4.17-4.25,8.27-9.35l1.73.35s41,8,42,40-4,28,0,47C406.83,177.61,396,179.29,395.07,194.37Z"/><path class="cls-3" d="M402,198.4c1.05,1.74,1,3.44,1,6a26.38,26.38,0,0,1-2,9.39c-.91,2.4-1.21,2.43-2.8,6.19-.67,1.6-1.41,3.49-2.2,5.76-1.05,3-3.95,8.38-12,18.66l-.34-.09c1.74-10,3.59-20.92,4.92-30.43,0,0,6.42-.48,6.42-17.48,0-.7,0-1.38.07-2C396.08,194.51,400.06,195.17,402,198.4Z"/><path class="cls-4" d="M390,189.4c1.08,3.24.22,12.81-1.42,24.48-1.33,9.51-3.18,20.41-4.92,30.43-2.06,11.89-4,22.53-4.66,28.09-1.24,9.91-7.47,20.59-20.12,33a.68.68,0,0,0-.24.24c-7.73,7.55-17.84,15.73-30.64,24.77-34,24-65,7-65,7-22.82-11.6-37.8-24-47.56-35.37-16.34-19-18.07-34.87-17.44-38.63.3-1.81-.58-9.36-2-19-1.33-9.29-3.11-20.54-4.75-30.5-2.3-14-4.29-25.48-4.29-25.48s-5.17-65,18-66c24-1,28-4,34-8,.48-.32,6.67-6.53,7-7,4.61-6.48,9.39-9.41,29-10,26-.78,48.5-39.5,49.5-26.5S351,81.4,351,81.4c-5.28,6.15,13.41,21.58,18,25.22a2.36,2.36,0,0,1,.9,2c-.23,3.94-.23,17.13,8.1,33.8C388,162.4,387,180.4,390,189.4Z"/><path class="cls-2" d="M183.89,194.42c-2.89-10.12-7-23.08-8.89-28-3-8,3-19,2-23s-1-9,0-11c.84-1.64,1.23-8.75,0-8-5.47,3.33-30.05-1.22-28-8,2-6,5-9,7-12s-6,2-2-6,6-13,12-16-13,2-2-8-6-2,2-10c11.42-11.42-1-3,6-10s-5-4,8-10,25-24,46-26,0-9,27-8c14.59.54,9-4.47,11.41-9,3-5.78,25.34,15,40.09-.47,3.35-3.51,57,1.87,64.5,40.5,2.44,12.59-3.91,23.41-9.73,30.65-4.1,5.1-7.93,8.43-8.27,9.35,0,0-25.5,2.5-26.5-10.5S301,96.62,275,97.4c-19.61.59-24.39,3.52-29,10-.33.47-6.52,6.68-7,7-6,4-10,7-34,8-23.17,1-18,66-18,66s2,11.48,4.29,25.48c0,0-4.29-2.48-4.29-6.48C187,205.87,185.68,200.69,183.89,194.42Z"/><path class="cls-5" d="M216.71,365.49l.29-.09c.46-7,.63-14.12.6-21-.06-22.7-2.16-42.37-2.16-42.37,9.76,11.34,24.74,23.77,47.56,35.37,0,0,31,17,65-7,12.8-9,22.91-17.22,30.64-24.77-1.36,2-3.05,14.46-3.34,28.08a145.26,145.26,0,0,0,.79,19.69c1.33,10.93,4.39,19.21,10.35,18.51,2.8,17.12-4.89,40-51.44,40.49C234.2,413.24,192.08,372.79,216.71,365.49Z"/><path class="cls-3" d="M196,244.38l-.23,0c-8.05-10.28-10.95-15.63-12-18.66-.79-2.26-1.53-4.16-2.2-5.76-1.59-3.76-1.89-3.79-2.8-6.18a26.5,26.5,0,0,1-2-9.4c0-2.56-.05-4.26,1-6a8.55,8.55,0,0,1,6.08-4c1.79,6.27,3.11,11.45,3.11,13,0,4,4.29,6.48,4.29,6.48C192.93,223.84,194.71,235.09,196,244.38Z"/></g></g></svg>