<svg id="Capa_1" data-name="Capa 1" xmlns="http://www.w3.org/2000/svg" xmlns:xlink="http://www.w3.org/1999/xlink" viewBox="0 0 555 575"><defs><style>.cls-1,.cls-4{fill:none;}.cls-2{clip-path:url(#clip-path);}.cls-3{fill:#1b2e39;}.cls-4{stroke:#1b2e39;stroke-miterlimit:10;}.cls-5{fill:#ac7f4f;}.cls-6{fill:#d0ab79;}.cls-7{fill:#76201a;}.cls-8{fill:#4a2d0e;}.cls-9{fill:#d89868;}.cls-10{fill:#f4a36c;}.cls-11{fill:#e09868;}</style><clipPath id="clip-path"><rect class="cls-1" x="-54" y="-84" width="659" height="659"/></clipPath></defs><title>badge</title><g class="cls-2"><path class="cls-3" d="M298.5,414.5c67.87-.08,35-65,41-59h.09a145.11,145.11,0,0,1-.79-19.68h.64c21.7,4.31,33.61,13.91,38.79,25.47,9.63,21.42-3.84,49.57-20.73,63.21-26,21-98,18-138,7-37.93-10.43-57-46-54.57-63.34a15.45,15.45,0,0,1,.57-2.66c5-16,35-19,35-19h.6c0,6.88-.14,14-.6,21C175.25,374.57,217.39,414.59,298.5,414.5Z"/><path class="cls-3" d="M16.36,458.5c6.07-60.62,145.14-85.76,148.57-90.34-2.41,17.3,16.64,52.91,54.57,63.34,40,11,112,14,138-7,16.89-13.64,30.36-41.79,20.73-63.21l.13-.06c28.74,13,146.7,36.53,150.14,91.27C533,524.13,560.78,597,571.56,671.64a6,6,0,0,1-5.92,6.89l-574,2.93a6.54,6.54,0,0,1-6.43-7.91C1.07,599.61,9.09,531.17,16.36,458.5Z"/><path class="cls-4" d="M200.5,346.5s-30,3-35,19a15.45,15.45,0,0,0-.57,2.66c-2.41,17.3,16.64,52.91,54.57,63.34,40,11,112,14,138-7,16.89-13.64,30.36-41.79,20.73-63.21-5.18-11.56-17.09-21.16-38.79-25.47"/><path class="cls-5" d="M70.7,464.75c-.27,3.7.44,10.34,5.43,10.73a3.35,3.35,0,0,0,2.05-.49c1.33-.81,1.19-1.92,2.84-1.6,2.19.42,3,2.95,5.62,2.33a4.38,4.38,0,0,0,3.07-3.86c.26-1.75.26-5-.69-6.58-1.19-2-4.77-2-6.81-2.34a59.74,59.74,0,0,0-10.35-.66,1.5,1.5,0,0,0-1.5,1.5c.26,3.31,0,7.46,4,8.36a1.51,1.51,0,0,0,1.84-1.84,42.83,42.83,0,0,0-1-4.48L72.46,467a39.46,39.46,0,0,1,2.42,5,1.54,1.54,0,0,0,2.21.89c1.53-.69,3.59-2.87,3.4-4.73-.21-2.05-2.95-3.45-4.67-3.92A1.53,1.53,0,0,0,74,465.25c-.63,2.57,1.83,3.94,3.71,5.17a1.52,1.52,0,0,0,2.21-.89c.32-1.13-.86-2.46-.63-3.21l-1,1.05c1.61-.68,6.12,1.6,7.72,2.12S88.34,468,87.4,467c-2-2.29-9-1-10,1.78a1.48,1.48,0,0,0,1,1.84,14,14,0,0,1,6.54,2.61,1.5,1.5,0,0,0,1.82-.23c2.58-3.1-.78-5.36-3.78-5.57-1.67-.12-2.08,2.66-.4,2.95l2.3.39c1.89.32,2.7-2.57.8-2.9l-2.3-.39-.4,3,1.66.44,1.82-.23a15.65,15.65,0,0,0-7.26-2.91l1,1.85c.1-.27,4.73-.8,5-.46l1.46-2.5c-2.26-.74-7.22-3.55-9.5-2.05a2.07,2.07,0,0,0-1,1.66c-.07.73,1,2,.81,2.52l2.2-.9c-.24-.15-2.43-1.41-2.33-1.78l-1.85,1c2.34.64,3,2.08.55,3.17l2.21.9a46.55,46.55,0,0,0-2.73-5.7,1.51,1.51,0,0,0-2.74,1.16,42.83,42.83,0,0,1,1,4.48l1.84-1.85c-2.2-.49-1.72-3.95-1.84-5.47l-1.5,1.5c3.73-.08,8.45-.26,12,1,2.19.77,4.18,3.08,1.9,5-1.69,1.45-.72.6-1.92-.07-.47-.26-.82-.78-1.31-1.05a3.61,3.61,0,0,0-4.37.55c-.38.32-.85,1.39-1.33,1.53-.92.29-2.07-.89-2.45-1.58-1-1.79-.84-4-.69-5.93s-2.87-1.92-3,0Z"/><path class="cls-5" d="M104.7,467.75c-.27,3.7.44,10.34,5.43,10.73a3.35,3.35,0,0,0,2.05-.49c1.33-.81,1.19-1.92,2.84-1.6,2.19.42,3,2.95,5.62,2.33a4.38,4.38,0,0,0,3.07-3.86c.26-1.75.26-5-.69-6.58-1.19-2-4.77-2-6.81-2.34a59.74,59.74,0,0,0-10.35-.66,1.5,1.5,0,0,0-1.5,1.5c.26,3.31,0,7.46,4,8.36a1.51,1.51,0,0,0,1.84-1.84,42.83,42.83,0,0,0-1-4.48L106.46,470a39.46,39.46,0,0,1,2.42,5,1.54,1.54,0,0,0,2.21.89c1.53-.69,3.59-2.87,3.4-4.73-.21-2.05-2.95-3.45-4.67-3.92a1.53,1.53,0,0,0-1.85,1.05c-.63,2.57,1.83,3.94,3.71,5.17a1.52,1.52,0,0,0,2.21-.89c.32-1.13-.86-2.46-.63-3.21l-1,1.05c1.61-.68,6.12,1.6,7.72,2.12s2.4-1.46,1.46-2.51c-2-2.29-9-1-10,1.78a1.48,1.48,0,0,0,1,1.84,14,14,0,0,1,6.54,2.61,1.5,1.5,0,0,0,1.82-.23c2.58-3.1-.78-5.36-3.78-5.57-1.67-.12-2.08,2.66-.4,2.95l2.3.39c1.89.32,2.7-2.57.8-2.9l-2.3-.39-.4,3,1.66.44,1.82-.23a15.65,15.65,0,0,0-7.26-2.91l1,1.85c.1-.27,4.73-.8,5-.46l1.46-2.5c-2.26-.74-7.22-3.55-9.5-2.05a2.07,2.07,0,0,0-1,1.66c-.07.73,1,2,.81,2.52l2.2-.9c-.24-.15-2.43-1.41-2.33-1.78l-1.85,1c2.34.64,3,2.08.55,3.17l2.21.9a46.55,46.55,0,0,0-2.73-5.7,1.51,1.51,0,0,0-2.74,1.16,42.83,42.83,0,0,1,1,4.48l1.84-1.85c-2.2-.49-1.72-3.95-1.84-5.47l-1.5,1.5c3.73-.08,8.45-.26,12,1,2.19.77,4.18,3.08,1.9,5-1.69,1.45-.72.6-1.92-.07-.47-.26-.82-.78-1.31-1.05a3.61,3.61,0,0,0-4.37.55c-.38.32-.85,1.39-1.33,1.53-.92.29-2.07-.89-2.45-1.58-1-1.79-.84-4-.69-5.93s-2.87-1.92-3,0Z"/><path class="cls-5" d="M139.7,471.75c-.27,3.7.44,10.34,5.43,10.73a3.35,3.35,0,0,0,2.05-.49c1.33-.81,1.19-1.92,2.84-1.6,2.19.42,3,2.95,5.62,2.33a4.38,4.38,0,0,0,3.07-3.86c.26-1.75.26-5-.69-6.58-1.19-2-4.77-2-6.81-2.34a59.74,59.74,0,0,0-10.35-.66,1.5,1.5,0,0,0-1.5,1.5c.26,3.31-.05,7.46,4,8.36a1.51,1.51,0,0,0,1.84-1.84,42.83,42.83,0,0,0-1.05-4.48L141.46,474a39.46,39.46,0,0,1,2.42,5,1.54,1.54,0,0,0,2.21.89c1.53-.69,3.59-2.87,3.4-4.73-.21-2.05-3-3.45-4.67-3.92a1.53,1.53,0,0,0-1.85,1.05c-.63,2.57,1.83,3.94,3.71,5.17a1.52,1.52,0,0,0,2.21-.89c.32-1.13-.86-2.46-.63-3.21l-1,1.05c1.61-.68,6.12,1.6,7.72,2.12s2.4-1.46,1.46-2.51c-2-2.29-9-1-10,1.78a1.48,1.48,0,0,0,1,1.84,14,14,0,0,1,6.54,2.61,1.5,1.5,0,0,0,1.82-.23c2.58-3.1-.78-5.36-3.78-5.57-1.67-.12-2.08,2.66-.4,2.95l2.3.39c1.89.32,2.7-2.57.8-2.9l-2.3-.39-.4,3,1.66.44,1.82-.23a15.65,15.65,0,0,0-7.26-2.91l1.05,1.85c.1-.27,4.73-.8,5-.46l1.46-2.5c-2.26-.74-7.22-3.55-9.5-2.05a2.07,2.07,0,0,0-1.05,1.66c-.07.73.95,2,.81,2.52l2.2-.9c-.24-.15-2.43-1.41-2.33-1.78l-1.85,1c2.34.64,3,2.08.55,3.17l2.21.9a46.55,46.55,0,0,0-2.73-5.7,1.51,1.51,0,0,0-2.74,1.16,42.83,42.83,0,0,1,1.05,4.48l1.84-1.85c-2.2-.49-1.72-3.95-1.84-5.47l-1.5,1.5c3.73-.08,8.45-.26,12,1,2.19.77,4.18,3.08,1.9,5-1.69,1.45-.72.6-1.92-.07-.47-.26-.82-.78-1.31-1.05a3.61,3.61,0,0,0-4.37.55c-.38.32-.85,1.39-1.33,1.53-.92.29-2.07-.89-2.45-1.58-1-1.79-.84-4-.69-5.93s-2.87-1.92-3,0Z"/><path class="cls-5" d="M177.7,475.75c-.27,3.7.44,10.34,5.43,10.73a3.35,3.35,0,0,0,2.05-.49c1.33-.81,1.19-1.92,2.84-1.6,2.19.42,3,2.95,5.62,2.33a4.38,4.38,0,0,0,3.07-3.86c.26-1.75.26-5-.69-6.58-1.19-2-4.77-2-6.81-2.34a59.74,59.74,0,0,0-10.35-.66,1.5,1.5,0,0,0-1.5,1.5c.26,3.31-.05,7.46,4,8.36a1.51,1.51,0,0,0,1.84-1.84,42.83,42.83,0,0,0-1.05-4.48L179.46,478a39.46,39.46,0,0,1,2.42,5,1.54,1.54,0,0,0,2.21.89c1.53-.69,3.59-2.87,3.4-4.73-.21-2.05-3-3.45-4.67-3.92a1.53,1.53,0,0,0-1.85,1.05c-.63,2.57,1.83,3.94,3.71,5.17a1.52,1.52,0,0,0,2.21-.89c.32-1.13-.86-2.46-.63-3.21l-1,1.05c1.61-.68,6.12,1.6,7.72,2.12s2.4-1.46,1.46-2.51c-2-2.29-9-1-10,1.78a1.48,1.48,0,0,0,1,1.84,14,14,0,0,1,6.54,2.61,1.5,1.5,0,0,0,1.82-.23c2.58-3.1-.78-5.36-3.78-5.57-1.67-.12-2.08,2.66-.4,2.95l2.3.39c1.89.32,2.7-2.57.8-2.9l-2.3-.39-.4,3,1.66.44,1.82-.23a15.65,15.65,0,0,0-7.26-2.91l1.05,1.85c.1-.27,4.73-.8,5-.46l1.46-2.5c-2.26-.74-7.22-3.55-9.5-2.05a2.07,2.07,0,0,0-1.05,1.66c-.07.73.95,2,.81,2.52l2.2-.9c-.24-.15-2.43-1.41-2.33-1.78l-1.85,1c2.34.64,3,2.08.55,3.17l2.21.9a46.55,46.55,0,0,0-2.73-5.7,1.51,1.51,0,0,0-2.74,1.16,42.83,42.83,0,0,1,1.05,4.48l1.84-1.85c-2.2-.49-1.72-3.95-1.84-5.47l-1.5,1.5c3.73-.08,8.45-.26,12,1,2.19.77,4.18,3.08,1.9,5-1.69,1.45-.72.6-1.92-.07-.47-.26-.82-.78-1.31-1.05a3.61,3.61,0,0,0-4.37.55c-.38.32-.85,1.39-1.33,1.53-.92.29-2.07-.89-2.45-1.58-1-1.79-.84-4-.69-5.93s-2.87-1.92-3,0Z"/><path class="cls-5" d="M214.7,476.75c-.27,3.7.44,10.34,5.43,10.73a3.35,3.35,0,0,0,2.05-.49c1.33-.81,1.19-1.92,2.84-1.6,2.19.42,3,2.95,5.62,2.33a4.38,4.38,0,0,0,3.07-3.86c.26-1.75.26-5-.69-6.58-1.19-2-4.77-2-6.81-2.34a59.74,59.74,0,0,0-10.35-.66,1.5,1.5,0,0,0-1.5,1.5c.26,3.31-.05,7.46,4,8.36a1.51,1.51,0,0,0,1.84-1.84,42.83,42.83,0,0,0-1.05-4.48L216.46,479a39.46,39.46,0,0,1,2.42,5,1.54,1.54,0,0,0,2.21.89c1.53-.69,3.59-2.87,3.4-4.73-.21-2.05-3-3.45-4.67-3.92a1.53,1.53,0,0,0-1.85,1.05c-.63,2.57,1.83,3.94,3.71,5.17a1.52,1.52,0,0,0,2.21-.89c.32-1.13-.86-2.46-.63-3.21l-1,1.05c1.61-.68,6.12,1.6,7.72,2.12s2.4-1.46,1.46-2.51c-2-2.29-9-1-10,1.78a1.48,1.48,0,0,0,1,1.84,14,14,0,0,1,6.54,2.61,1.5,1.5,0,0,0,1.82-.23c2.58-3.1-.78-5.36-3.78-5.57-1.67-.12-2.08,2.66-.4,2.95l2.3.39c1.89.32,2.7-2.57.8-2.9l-2.3-.39-.4,3,1.66.44,1.82-.23a15.65,15.65,0,0,0-7.26-2.91l1.05,1.85c.1-.27,4.73-.8,5-.46l1.46-2.5c-2.26-.74-7.22-3.55-9.5-2.05a2.07,2.07,0,0,0-1.05,1.66c-.07.73.95,2,.81,2.52l2.2-.9c-.24-.15-2.43-1.41-2.33-1.78l-1.85,1c2.34.64,3,2.08.55,3.17l2.21.9a46.55,46.55,0,0,0-2.73-5.7,1.51,1.51,0,0,0-2.74,1.16,42.83,42.83,0,0,1,1.05,4.48l1.84-1.85c-2.2-.49-1.72-3.95-1.84-5.47l-1.5,1.5c3.73-.08,8.45-.26,12,1,2.19.77,4.18,3.08,1.9,5-1.69,1.45-.72.6-1.92-.07-.47-.26-.82-.78-1.31-1.05a3.61,3.61,0,0,0-4.37.55c-.38.32-.85,1.39-1.33,1.53-.92.29-2.07-.89-2.45-1.58-1-1.79-.84-4-.69-5.93s-2.87-1.92-3,0Z"/><path class="cls-5" d="M254.7,478.75c-.27,3.7.44,10.34,5.43,10.73a3.35,3.35,0,0,0,2.05-.49c1.33-.81,1.19-1.92,2.84-1.6,2.19.42,3,2.95,5.62,2.33a4.38,4.38,0,0,0,3.07-3.86c.26-1.75.26-5-.69-6.58-1.19-2-4.77-2-6.81-2.34a59.74,59.74,0,0,0-10.35-.66,1.5,1.5,0,0,0-1.5,1.5c.26,3.31-.05,7.46,4.05,8.36a1.51,1.51,0,0,0,1.84-1.84,42.83,42.83,0,0,0-1.05-4.48L256.46,481a39.46,39.46,0,0,1,2.42,5,1.54,1.54,0,0,0,2.21.89c1.53-.69,3.59-2.87,3.4-4.73-.21-2.05-2.95-3.45-4.67-3.92a1.53,1.53,0,0,0-1.85,1.05c-.63,2.57,1.83,3.94,3.71,5.17a1.52,1.52,0,0,0,2.21-.89c.32-1.13-.86-2.46-.63-3.21l-1,1.05c1.61-.68,6.12,1.6,7.72,2.12s2.4-1.46,1.46-2.51c-2-2.29-9-1-10,1.78a1.48,1.48,0,0,0,1,1.84,14,14,0,0,1,6.54,2.61,1.5,1.5,0,0,0,1.82-.23c2.58-3.1-.78-5.36-3.78-5.57-1.67-.12-2.08,2.66-.4,2.95l2.3.39c1.89.32,2.7-2.57.8-2.9l-2.3-.39-.4,3,1.66.44,1.82-.23a15.65,15.65,0,0,0-7.26-2.91l1.05,1.85c.1-.27,4.73-.8,5-.46l1.46-2.5c-2.26-.74-7.22-3.55-9.5-2.05a2.07,2.07,0,0,0-1.05,1.66c-.07.73.95,2,.81,2.52l2.2-.9c-.24-.15-2.43-1.41-2.33-1.78l-1.85,1c2.34.64,3,2.08.55,3.17l2.21.9a46.55,46.55,0,0,0-2.73-5.7,1.51,1.51,0,0,0-2.74,1.16,42.83,42.83,0,0,1,1.05,4.48l1.84-1.85c-2.2-.49-1.72-3.95-1.84-5.47l-1.5,1.5c3.73-.08,8.45-.26,12,1,2.19.77,4.18,3.08,1.9,5-1.69,1.45-.72.6-1.92-.07-.47-.26-.82-.78-1.31-1.05a3.61,3.61,0,0,0-4.37.55c-.38.32-.85,1.39-1.33,1.53-.92.29-2.07-.89-2.45-1.58-1-1.79-.84-4-.69-5.93s-2.87-1.92-3,0Z"/><path class="cls-5" d="M298.7,473.75c-.27,3.7.44,10.34,5.43,10.73a3.35,3.35,0,0,0,2.05-.49c1.33-.81,1.19-1.92,2.84-1.6,2.19.42,3,2.95,5.62,2.33a4.38,4.38,0,0,0,3.07-3.86c.26-1.75.26-5-.69-6.58-1.19-2-4.77-2-6.81-2.34a59.74,59.74,0,0,0-10.35-.66,1.5,1.5,0,0,0-1.5,1.5c.26,3.31-.05,7.46,4.05,8.36a1.51,1.51,0,0,0,1.84-1.84,42.83,42.83,0,0,0-1.05-4.48L300.46,476a39.46,39.46,0,0,1,2.42,5,1.54,1.54,0,0,0,2.21.89c1.53-.69,3.59-2.87,3.4-4.73-.21-2.05-2.95-3.45-4.67-3.92a1.53,1.53,0,0,0-1.85,1.05c-.63,2.57,1.83,3.94,3.71,5.17a1.52,1.52,0,0,0,2.21-.89c.32-1.13-.86-2.46-.63-3.21l-1,1.05c1.61-.68,6.12,1.6,7.72,2.12s2.4-1.46,1.46-2.51c-2-2.29-9-1-10,1.78a1.48,1.48,0,0,0,1,1.84,14,14,0,0,1,6.54,2.61,1.5,1.5,0,0,0,1.82-.23c2.58-3.1-.78-5.36-3.78-5.57-1.67-.12-2.08,2.66-.4,2.95l2.3.39c1.89.32,2.7-2.57.8-2.9l-2.3-.39-.4,3,1.66.44,1.82-.23a15.65,15.65,0,0,0-7.26-2.91l1.05,1.85c.1-.27,4.73-.8,5-.46l1.46-2.5c-2.26-.74-7.22-3.55-9.5-2.05a2.07,2.07,0,0,0-1.05,1.66c-.07.73.95,2,.81,2.52l2.2-.9c-.24-.15-2.43-1.41-2.33-1.78l-1.85,1c2.34.64,3,2.08.55,3.17l2.21.9a46.55,46.55,0,0,0-2.73-5.7,1.51,1.51,0,0,0-2.74,1.16,42.83,42.83,0,0,1,1.05,4.48l1.84-1.85c-2.2-.49-1.72-3.95-1.84-5.47l-1.5,1.5c3.73-.08,8.45-.26,12,1,2.19.77,4.18,3.08,1.9,5-1.69,1.45-.72.6-1.92-.07-.47-.26-.82-.78-1.31-1.05a3.61,3.61,0,0,0-4.37.55c-.38.32-.85,1.39-1.33,1.53-.92.29-2.07-.89-2.45-1.58-1-1.79-.84-4-.69-5.93s-2.87-1.92-3,0Z"/><path class="cls-5" d="M333.7,466.75c-.27,3.7.44,10.34,5.43,10.73a3.35,3.35,0,0,0,2.05-.49c1.33-.81,1.19-1.92,2.84-1.6,2.19.42,3,2.95,5.62,2.33a4.38,4.38,0,0,0,3.07-3.86c.26-1.75.26-5-.69-6.58-1.19-2-4.77-2-6.81-2.34a59.74,59.74,0,0,0-10.35-.66,1.5,1.5,0,0,0-1.5,1.5c.26,3.31-.05,7.46,4.05,8.36a1.51,1.51,0,0,0,1.84-1.84,42.83,42.83,0,0,0-1.05-4.48L335.46,469a39.46,39.46,0,0,1,2.42,5,1.54,1.54,0,0,0,2.21.89c1.53-.69,3.59-2.87,3.4-4.73-.21-2.05-2.95-3.45-4.67-3.92a1.53,1.53,0,0,0-1.85,1.05c-.63,2.57,1.83,3.94,3.71,5.17a1.52,1.52,0,0,0,2.21-.89c.32-1.13-.86-2.46-.63-3.21l-1,1.05c1.61-.68,6.12,1.6,7.72,2.12s2.4-1.46,1.46-2.51c-2-2.29-9-1-10,1.78a1.48,1.48,0,0,0,1,1.84,14,14,0,0,1,6.54,2.61,1.5,1.5,0,0,0,1.82-.23c2.58-3.1-.78-5.36-3.78-5.57-1.67-.12-2.08,2.66-.4,2.95l2.3.39c1.89.32,2.7-2.57.8-2.9l-2.3-.39-.4,3,1.66.44,1.82-.23a15.65,15.65,0,0,0-7.26-2.91l1.05,1.85c.1-.27,4.73-.8,5-.46l1.46-2.5c-2.26-.74-7.22-3.55-9.5-2.05a2.07,2.07,0,0,0-1.05,1.66c-.07.73.95,2,.81,2.52l2.2-.9c-.24-.15-2.43-1.41-2.33-1.78l-1.85,1c2.34.64,3,2.08.55,3.17l2.21.9a46.55,46.55,0,0,0-2.73-5.7,1.51,1.51,0,0,0-2.74,1.16,42.83,42.83,0,0,1,1.05,4.48l1.84-1.85c-2.2-.49-1.72-3.95-1.84-5.47l-1.5,1.5c3.73-.08,8.45-.26,12,1,2.19.77,4.18,3.08,1.9,5-1.69,1.45-.72.6-1.92-.07-.47-.26-.82-.78-1.31-1.05a3.61,3.61,0,0,0-4.37.55c-.38.32-.85,1.39-1.33,1.53-.92.29-2.07-.89-2.45-1.58-1-1.79-.84-4-.69-5.93s-2.87-1.92-3,0Z"/><path class="cls-5" d="M365.7,459.75c-.27,3.7.44,10.34,5.43,10.73a3.35,3.35,0,0,0,2.05-.49c1.33-.81,1.19-1.92,2.84-1.6,2.19.42,3,2.95,5.62,2.33a4.38,4.38,0,0,0,3.07-3.86c.26-1.75.26-5-.69-6.58-1.19-2-4.77-2-6.81-2.34a59.74,59.74,0,0,0-10.35-.66,1.5,1.5,0,0,0-1.5,1.5c.26,3.31-.05,7.46,4.05,8.36a1.51,1.51,0,0,0,1.84-1.84,42.83,42.83,0,0,0-1.05-4.48L367.46,462a39.46,39.46,0,0,1,2.42,5,1.54,1.54,0,0,0,2.21.89c1.53-.69,3.59-2.87,3.4-4.73-.21-2.05-2.95-3.45-4.67-3.92a1.53,1.53,0,0,0-1.85,1.05c-.63,2.57,1.83,3.94,3.71,5.17a1.52,1.52,0,0,0,2.21-.89c.32-1.13-.86-2.46-.63-3.21l-1,1.05c1.61-.68,6.12,1.6,7.72,2.12s2.4-1.46,1.46-2.51c-2-2.29-9-1-10,1.78a1.48,1.48,0,0,0,1,1.84,14,14,0,0,1,6.54,2.61,1.5,1.5,0,0,0,1.82-.23c2.58-3.1-.78-5.36-3.78-5.57-1.67-.12-2.08,2.66-.4,2.95l2.3.39c1.89.32,2.7-2.57.8-2.9l-2.3-.39-.4,3,1.66.44,1.82-.23a15.65,15.65,0,0,0-7.26-2.91l1.05,1.85c.1-.27,4.73-.8,5-.46l1.46-2.5c-2.26-.74-7.22-3.55-9.5-2.05a2.07,2.07,0,0,0-1.05,1.66c-.07.73.95,2,.81,2.52l2.2-.9c-.24-.15-2.43-1.41-2.33-1.78l-1.85,1c2.34.64,3,2.08.55,3.17l2.21.9a46.55,46.55,0,0,0-2.73-5.7,1.51,1.51,0,0,0-2.74,1.16,42.83,42.83,0,0,1,1.05,4.48l1.84-1.85c-2.2-.49-1.72-3.95-1.84-5.47l-1.5,1.5c3.73-.08,8.45-.26,12,1,2.19.77,4.18,3.08,1.9,5-1.69,1.45-.72.6-1.92-.07-.47-.26-.82-.78-1.31-1.05a3.61,3.61,0,0,0-4.37.55c-.38.32-.85,1.39-1.33,1.53-.92.29-2.07-.89-2.45-1.58-1-1.79-.84-4-.69-5.93s-2.87-1.92-3,0Z"/><path class="cls-5" d="M395.7,454.75c-.27,3.7.44,10.34,5.43,10.73a3.35,3.35,0,0,0,2.05-.49c1.33-.81,1.19-1.92,2.84-1.6,2.19.42,3,2.95,5.62,2.33a4.38,4.38,0,0,0,3.07-3.86c.26-1.75.26-5-.69-6.58-1.19-2-4.77-2-6.81-2.34a59.74,59.74,0,0,0-10.35-.66,1.5,1.5,0,0,0-1.5,1.5c.26,3.31-.05,7.46,4.05,8.36a1.51,1.51,0,0,0,1.84-1.84,42.83,42.83,0,0,0-1.05-4.48L397.46,457a39.46,39.46,0,0,1,2.42,5,1.54,1.54,0,0,0,2.21.89c1.53-.69,3.59-2.87,3.4-4.73-.21-2.05-2.95-3.45-4.67-3.92a1.53,1.53,0,0,0-1.85,1.05c-.63,2.57,1.83,3.94,3.71,5.17a1.52,1.52,0,0,0,2.21-.89c.32-1.13-.86-2.46-.63-3.21l-1,1.05c1.61-.68,6.12,1.6,7.72,2.12s2.4-1.46,1.46-2.51c-2-2.29-9-1-10,1.78a1.48,1.48,0,0,0,1,1.84,14,14,0,0,1,6.54,2.61,1.5,1.5,0,0,0,1.82-.23c2.58-3.1-.78-5.36-3.78-5.57-1.67-.12-2.08,2.66-.4,2.95l2.3.39c1.89.32,2.7-2.57.8-2.9l-2.3-.39-.4,3,1.66.44,1.82-.23a15.65,15.65,0,0,0-7.26-2.91l1.05,1.85c.1-.27,4.73-.8,5-.46l1.46-2.5c-2.26-.74-7.22-3.55-9.5-2.05a2.07,2.07,0,0,0-1.05,1.66c-.07.73.95,2,.81,2.52l2.2-.9c-.24-.15-2.43-1.41-2.33-1.78l-1.85,1c2.34.64,3,2.08.55,3.17l2.21.9a46.55,46.55,0,0,0-2.73-5.7,1.51,1.51,0,0,0-2.74,1.16,42.83,42.83,0,0,1,1.05,4.48l1.84-1.85c-2.2-.49-1.72-3.95-1.84-5.47l-1.5,1.5c3.73-.08,8.45-.26,12,1,2.19.77,4.18,3.08,1.9,5-1.69,1.45-.72.6-1.92-.07-.47-.26-.82-.78-1.31-1.05a3.61,3.61,0,0,0-4.37.55c-.38.32-.85,1.39-1.33,1.53-.92.29-2.07-.89-2.45-1.58-1-1.79-.84-4-.69-5.93s-2.87-1.92-3,0Z"/><path class="cls-5" d="M421.7,448.75c-.27,3.7.44,10.34,5.43,10.73a3.35,3.35,0,0,0,2.05-.49c1.33-.81,1.19-1.92,2.84-1.6,2.19.42,3,2.95,5.62,2.33a4.38,4.38,0,0,0,3.07-3.86c.26-1.75.26-5-.69-6.58-1.19-2-4.77-2-6.81-2.34a59.74,59.74,0,0,0-10.35-.66,1.5,1.5,0,0,0-1.5,1.5c.26,3.31-.05,7.46,4.05,8.36a1.51,1.51,0,0,0,1.84-1.84,42.83,42.83,0,0,0-1.05-4.48L423.46,451a39.46,39.46,0,0,1,2.42,5,1.54,1.54,0,0,0,2.21.89c1.53-.69,3.59-2.87,3.4-4.73-.21-2.05-2.95-3.45-4.67-3.92a1.53,1.53,0,0,0-1.85,1.05c-.63,2.57,1.83,3.94,3.71,5.17a1.52,1.52,0,0,0,2.21-.89c.32-1.13-.86-2.46-.63-3.21l-1,1.05c1.61-.68,6.12,1.6,7.72,2.12s2.4-1.46,1.46-2.51c-2-2.29-9-1-10,1.78a1.48,1.48,0,0,0,1,1.84,14,14,0,0,1,6.54,2.61,1.5,1.5,0,0,0,1.82-.23c2.58-3.1-.78-5.36-3.78-5.57-1.67-.12-2.08,2.66-.4,2.95l2.3.39c1.89.32,2.7-2.57.8-2.9l-2.3-.39-.4,3,1.66.44,1.82-.23a15.65,15.65,0,0,0-7.26-2.91l1.05,1.85c.1-.27,4.73-.8,5-.46l1.46-2.5c-2.26-.74-7.22-3.55-9.5-2.05a2.07,2.07,0,0,0-1.05,1.66c-.07.73.95,2,.81,2.52l2.2-.9c-.24-.15-2.43-1.41-2.33-1.78l-1.85,1c2.34.64,3,2.08.55,3.17l2.21.9a46.55,46.55,0,0,0-2.73-5.7,1.51,1.51,0,0,0-2.74,1.16,42.83,42.83,0,0,1,1.05,4.48l1.84-1.85c-2.2-.49-1.72-3.95-1.84-5.47l-1.5,1.5c3.73-.08,8.45-.26,12,1,2.19.77,4.18,3.08,1.9,5-1.69,1.45-.72.6-1.92-.07-.47-.26-.82-.78-1.31-1.05a3.61,3.61,0,0,0-4.37.55c-.38.32-.85,1.39-1.33,1.53-.92.29-2.07-.89-2.45-1.58-1-1.79-.84-4-.69-5.93s-2.87-1.92-3,0Z"/><path class="cls-5" d="M60.45,441.36c.27-3.7-.45-10.34-5.44-10.73a3.3,3.3,0,0,0-2,.49c-1.33.81-1.19,1.92-2.84,1.6-2.18-.42-3-3-5.61-2.33a4.36,4.36,0,0,0-3.08,3.85c-.25,1.76-.25,5,.7,6.59,1.19,2,4.77,2,6.81,2.34a59.74,59.74,0,0,0,10.35.66,1.51,1.51,0,0,0,1.5-1.5c-.26-3.32,0-7.46-4-8.37a1.53,1.53,0,0,0-1.85,1.85,45.51,45.51,0,0,0,1,4.48l2.74-1.16a41.59,41.59,0,0,1-2.42-5,1.53,1.53,0,0,0-2.2-.89c-1.54.69-3.59,2.87-3.4,4.73.21,2.05,2.94,3.44,4.67,3.92a1.52,1.52,0,0,0,1.84-1.05c.64-2.57-1.82-3.94-3.71-5.18a1.51,1.51,0,0,0-2.2.9c-.32,1.13.86,2.46.62,3.21l1-1.05c-1.62.68-6.12-1.6-7.73-2.12s-2.39,1.45-1.46,2.5c2,2.3,9,1.05,10-1.77a1.51,1.51,0,0,0-1-1.85,13.88,13.88,0,0,1-6.54-2.6,1.48,1.48,0,0,0-1.81.23c-2.58,3.1.77,5.35,3.78,5.57,1.66.12,2.07-2.66.4-2.95l-2.3-.39c-1.89-.32-2.7,2.57-.8,2.89l2.3.39.4-2.94-1.66-.45-1.82.24a15.57,15.57,0,0,0,7.25,2.91l-1-1.85c-.11.27-4.73.79-5,.45l-1.46,2.51c2.27.74,7.22,3.55,9.51,2.05A2.07,2.07,0,0,0,55,439.9c.06-.73-1-2-.81-2.52l-2.2.89c.24.16,2.42,1.42,2.33,1.79L56.12,439c-2.33-.64-3-2.07-.55-3.16l-2.2-.9a48,48,0,0,0,2.72,5.7,1.51,1.51,0,0,0,2.74-1.16,42.79,42.79,0,0,1-1-4.48l-1.85,1.85c2.21.48,1.73,3.95,1.85,5.47l1.5-1.5c-3.74.07-8.45.26-12-1-2.2-.77-4.18-3.07-1.9-5,1.68-1.45.71-.6,1.91.07.47.26.82.78,1.32,1.05a3.61,3.61,0,0,0,4.36-.55c.38-.33.86-1.39,1.34-1.54.92-.28,2.06.9,2.45,1.59,1,1.79.83,4,.69,5.93s2.86,1.92,3,0Z"/><path class="cls-5" d="M89.45,440.36c.27-3.7-.45-10.34-5.44-10.73a3.3,3.3,0,0,0-2.05.49c-1.33.81-1.19,1.92-2.84,1.6-2.18-.42-3-3-5.61-2.33a4.36,4.36,0,0,0-3.08,3.85c-.25,1.76-.25,5,.7,6.59,1.19,2,4.77,2,6.81,2.34a59.74,59.74,0,0,0,10.35.66,1.51,1.51,0,0,0,1.5-1.5c-.26-3.32,0-7.46-4.05-8.37a1.53,1.53,0,0,0-1.85,1.85,45.51,45.51,0,0,0,1,4.48l2.74-1.16a41.59,41.59,0,0,1-2.42-5,1.53,1.53,0,0,0-2.2-.89c-1.54.69-3.59,2.87-3.4,4.73.21,2.05,2.94,3.44,4.67,3.92a1.52,1.52,0,0,0,1.84-1.05c.64-2.57-1.82-3.94-3.71-5.18a1.51,1.51,0,0,0-2.2.9c-.32,1.13.86,2.46.62,3.21l1.05-1.05c-1.62.68-6.12-1.6-7.73-2.12s-2.39,1.45-1.46,2.5c2,2.3,9,1.05,10.05-1.77a1.51,1.51,0,0,0-1.05-1.85,13.88,13.88,0,0,1-6.54-2.6,1.48,1.48,0,0,0-1.81.23c-2.58,3.1.77,5.35,3.78,5.57,1.66.12,2.07-2.66.4-2.95l-2.3-.39c-1.89-.32-2.7,2.57-.8,2.89l2.3.39.4-2.94-1.66-.45-1.82.24a15.57,15.57,0,0,0,7.25,2.91l-1-1.85c-.11.27-4.73.79-5,.45l-1.46,2.51c2.27.74,7.22,3.55,9.51,2.05a2.07,2.07,0,0,0,1-1.66c.06-.73-.95-2-.81-2.52l-2.2.89c.24.16,2.42,1.42,2.33,1.79L85.12,438c-2.33-.64-3-2.07-.55-3.16l-2.2-.9a48,48,0,0,0,2.72,5.7,1.51,1.51,0,0,0,2.74-1.16,42.79,42.79,0,0,1-1-4.48l-1.85,1.85c2.21.48,1.73,3.95,1.85,5.47l1.5-1.5c-3.74.07-8.45.26-12-1-2.2-.77-4.18-3.07-1.9-5,1.68-1.45.71-.6,1.91.07.47.26.82.78,1.32,1.05a3.61,3.61,0,0,0,4.36-.55c.38-.33.86-1.39,1.34-1.54.92-.28,2.06.9,2.45,1.59,1,1.79.83,4,.69,5.93s2.86,1.92,3,0Z"/><path class="cls-5" d="M123.45,444.36c.27-3.7-.45-10.34-5.44-10.73a3.3,3.3,0,0,0-2.05.49c-1.33.81-1.19,1.92-2.84,1.6-2.18-.42-3-3-5.61-2.33a4.36,4.36,0,0,0-3.08,3.85c-.25,1.76-.25,5,.7,6.59,1.19,2,4.77,2,6.81,2.34a59.74,59.74,0,0,0,10.35.66,1.51,1.51,0,0,0,1.5-1.5c-.26-3.32,0-7.46-4.05-8.37a1.53,1.53,0,0,0-1.85,1.85,45.51,45.51,0,0,0,1,4.48l2.74-1.16a41.59,41.59,0,0,1-2.42-5,1.53,1.53,0,0,0-2.2-.89c-1.54.69-3.59,2.87-3.4,4.73.21,2.05,2.94,3.44,4.67,3.92a1.52,1.52,0,0,0,1.84-1.05c.64-2.57-1.82-3.94-3.71-5.18a1.51,1.51,0,0,0-2.2.9c-.32,1.13.86,2.46.62,3.21l1.05-1.05c-1.62.68-6.12-1.6-7.73-2.12s-2.39,1.45-1.46,2.5c2,2.3,9,1.05,10.05-1.77a1.51,1.51,0,0,0-1.05-1.85,13.88,13.88,0,0,1-6.54-2.6,1.48,1.48,0,0,0-1.81.23c-2.58,3.1.77,5.35,3.78,5.57,1.66.12,2.07-2.66.4-2.95l-2.3-.39c-1.89-.32-2.7,2.57-.8,2.89l2.3.39.4-2.94-1.66-.45-1.82.24a15.57,15.57,0,0,0,7.25,2.91l-1-1.85c-.11.27-4.73.79-5,.45l-1.46,2.51c2.27.74,7.22,3.55,9.51,2.05a2.07,2.07,0,0,0,1-1.66c.06-.73-.95-2-.81-2.52l-2.2.89c.24.16,2.42,1.42,2.33,1.79l1.84-1.05c-2.33-.64-3-2.07-.55-3.16l-2.2-.9a48,48,0,0,0,2.72,5.7,1.51,1.51,0,0,0,2.74-1.16,42.79,42.79,0,0,1-1-4.48l-1.85,1.85c2.21.48,1.73,3.95,1.85,5.47l1.5-1.5c-3.74.07-8.45.26-12-1-2.2-.77-4.18-3.07-1.9-5,1.68-1.45.71-.6,1.91.07.47.26.82.78,1.32,1.05a3.61,3.61,0,0,0,4.36-.55c.38-.33.86-1.39,1.34-1.54.92-.28,2.06.9,2.45,1.59,1,1.79.83,4,.69,5.93s2.86,1.92,3,0Z"/><path class="cls-5" d="M158.45,448.36c.27-3.7-.45-10.34-5.44-10.73a3.3,3.3,0,0,0-2,.49c-1.33.81-1.19,1.92-2.84,1.6-2.18-.42-3-3-5.61-2.33a4.36,4.36,0,0,0-3.08,3.85c-.25,1.76-.25,5,.7,6.59,1.19,2,4.77,2,6.81,2.34a59.74,59.74,0,0,0,10.35.66,1.51,1.51,0,0,0,1.5-1.5c-.26-3.32,0-7.46-4-8.37a1.53,1.53,0,0,0-1.85,1.85,45.51,45.51,0,0,0,1.05,4.48l2.74-1.16a41.59,41.59,0,0,1-2.42-5,1.53,1.53,0,0,0-2.2-.89c-1.54.69-3.59,2.87-3.4,4.73.21,2.05,2.94,3.44,4.67,3.92a1.52,1.52,0,0,0,1.84-1.05c.64-2.57-1.82-3.94-3.71-5.18a1.51,1.51,0,0,0-2.2.9c-.32,1.13.86,2.46.62,3.21l1.05-1.05c-1.62.68-6.12-1.6-7.73-2.12s-2.39,1.45-1.46,2.5c2,2.3,9,1.05,10-1.77a1.51,1.51,0,0,0-1-1.85,13.88,13.88,0,0,1-6.54-2.6,1.48,1.48,0,0,0-1.81.23c-2.58,3.1.77,5.35,3.78,5.57,1.66.12,2.07-2.66.4-2.95l-2.3-.39c-1.89-.32-2.7,2.57-.8,2.89l2.3.39.4-2.94-1.66-.45-1.82.24a15.57,15.57,0,0,0,7.25,2.91l-1-1.85c-.11.27-4.73.79-5,.45l-1.46,2.51c2.27.74,7.22,3.55,9.51,2.05A2.07,2.07,0,0,0,153,446.9c.06-.73-1-2-.81-2.52l-2.2.89c.24.16,2.42,1.42,2.33,1.79l1.84-1.05c-2.33-.64-3-2.07-.55-3.16l-2.2-.9a48,48,0,0,0,2.72,5.7,1.51,1.51,0,0,0,2.74-1.16,42.79,42.79,0,0,1-1-4.48l-1.85,1.85c2.21.48,1.73,3.95,1.85,5.47l1.5-1.5c-3.74.07-8.45.26-12-1-2.2-.77-4.18-3.07-1.9-5,1.68-1.45.71-.6,1.91.07.47.26.82.78,1.32,1.05a3.61,3.61,0,0,0,4.36-.55c.38-.33.86-1.39,1.34-1.54.92-.28,2.06.9,2.45,1.59,1,1.79.83,4,.69,5.93s2.86,1.92,3,0Z"/><path class="cls-5" d="M196.45,451.36c.27-3.7-.45-10.34-5.44-10.73a3.3,3.3,0,0,0-2,.49c-1.33.81-1.19,1.92-2.84,1.6-2.18-.42-3-3-5.61-2.33a4.36,4.36,0,0,0-3.08,3.85c-.25,1.76-.25,5,.7,6.59,1.19,2,4.77,2,6.81,2.34a59.74,59.74,0,0,0,10.35.66,1.51,1.51,0,0,0,1.5-1.5c-.26-3.32,0-7.46-4-8.37a1.53,1.53,0,0,0-1.85,1.85,45.51,45.51,0,0,0,1.05,4.48l2.74-1.16a41.59,41.59,0,0,1-2.42-5,1.53,1.53,0,0,0-2.2-.89c-1.54.69-3.59,2.87-3.4,4.73.21,2.05,2.94,3.44,4.67,3.92a1.52,1.52,0,0,0,1.84-1.05c.64-2.57-1.82-3.94-3.71-5.18a1.51,1.51,0,0,0-2.2.9c-.32,1.13.86,2.46.62,3.21l1.05-1.05c-1.62.68-6.12-1.6-7.73-2.12s-2.39,1.45-1.46,2.5c2,2.3,9,1.05,10-1.77a1.51,1.51,0,0,0-1-1.85,13.88,13.88,0,0,1-6.54-2.6,1.48,1.48,0,0,0-1.81.23c-2.58,3.1.77,5.35,3.78,5.57,1.66.12,2.07-2.66.4-2.95l-2.3-.39c-1.89-.32-2.7,2.57-.8,2.89l2.3.39.4-2.94-1.66-.45-1.82.24a15.57,15.57,0,0,0,7.25,2.91l-1-1.85c-.11.27-4.73.79-5,.45l-1.46,2.51c2.27.74,7.22,3.55,9.51,2.05A2.07,2.07,0,0,0,191,449.9c.06-.73-1-2-.81-2.52l-2.2.89c.24.16,2.42,1.42,2.33,1.79l1.84-1.05c-2.33-.64-3-2.07-.55-3.16l-2.2-.9a48,48,0,0,0,2.72,5.7,1.51,1.51,0,0,0,2.74-1.16,42.79,42.79,0,0,1-1-4.48l-1.85,1.85c2.21.48,1.73,3.95,1.85,5.47l1.5-1.5c-3.74.07-8.45.26-12-1-2.2-.77-4.18-3.07-1.9-5,1.68-1.45.71-.6,1.91.07.47.26.82.78,1.32,1.05a3.61,3.61,0,0,0,4.36-.55c.38-.33.86-1.39,1.34-1.54.92-.28,2.06.9,2.45,1.59,1,1.79.83,4,.69,5.93s2.86,1.92,3,0Z"/><path class="cls-5" d="M233.45,453.36c.27-3.7-.45-10.34-5.44-10.73a3.3,3.3,0,0,0-2,.49c-1.33.81-1.19,1.92-2.84,1.6-2.18-.42-3-3-5.61-2.33a4.36,4.36,0,0,0-3.08,3.85c-.25,1.76-.25,5,.7,6.59,1.19,2,4.77,2,6.81,2.34a59.74,59.74,0,0,0,10.35.66,1.51,1.51,0,0,0,1.5-1.5c-.26-3.32,0-7.46-4-8.37a1.53,1.53,0,0,0-1.85,1.85,45.51,45.51,0,0,0,1.05,4.48l2.74-1.16a41.59,41.59,0,0,1-2.42-5,1.53,1.53,0,0,0-2.2-.89c-1.54.69-3.59,2.87-3.4,4.73.21,2.05,2.94,3.44,4.67,3.92a1.52,1.52,0,0,0,1.84-1.05c.64-2.57-1.82-3.94-3.71-5.18a1.51,1.51,0,0,0-2.2.9c-.32,1.13.86,2.46.62,3.21l1.05-1.05c-1.62.68-6.12-1.6-7.73-2.12s-2.39,1.45-1.46,2.5c2,2.3,9,1.05,10-1.77a1.51,1.51,0,0,0-1-1.85,13.88,13.88,0,0,1-6.54-2.6,1.48,1.48,0,0,0-1.81.23c-2.58,3.1.77,5.35,3.78,5.57,1.66.12,2.07-2.66.4-2.95l-2.3-.39c-1.89-.32-2.7,2.57-.8,2.89l2.3.39.4-2.94-1.66-.45-1.82.24a15.57,15.57,0,0,0,7.25,2.91l-1-1.85c-.11.27-4.73.79-5,.45l-1.46,2.51c2.27.74,7.22,3.55,9.51,2.05A2.07,2.07,0,0,0,228,451.9c.06-.73-1-2-.81-2.52l-2.2.89c.24.16,2.42,1.42,2.33,1.79l1.84-1.05c-2.33-.64-3-2.07-.55-3.16l-2.2-.9a48,48,0,0,0,2.72,5.7,1.51,1.51,0,0,0,2.74-1.16,42.79,42.79,0,0,1-1-4.48l-1.85,1.85c2.21.48,1.73,3.95,1.85,5.47l1.5-1.5c-3.74.07-8.45.26-12-1-2.2-.77-4.18-3.07-1.9-5,1.68-1.45.71-.6,1.91.07.47.26.82.78,1.32,1.05a3.61,3.61,0,0,0,4.36-.55c.38-.33.86-1.39,1.34-1.54.92-.28,2.06.9,2.45,1.59,1,1.79.83,4,.69,5.93s2.86,1.92,3,0Z"/><path class="cls-5" d="M271.45,452.36c.27-3.7-.45-10.34-5.44-10.73a3.3,3.3,0,0,0-2.05.49c-1.33.81-1.19,1.92-2.84,1.6-2.18-.42-3-3-5.61-2.33a4.36,4.36,0,0,0-3.08,3.85c-.25,1.76-.25,5,.7,6.59,1.19,2,4.77,2,6.81,2.34a59.74,59.74,0,0,0,10.35.66,1.51,1.51,0,0,0,1.5-1.5c-.26-3.32,0-7.46-4.05-8.37a1.53,1.53,0,0,0-1.85,1.85,45.51,45.51,0,0,0,1.05,4.48l2.74-1.16a41.59,41.59,0,0,1-2.42-5,1.53,1.53,0,0,0-2.2-.89c-1.54.69-3.59,2.87-3.4,4.73.21,2.05,2.94,3.44,4.67,3.92a1.52,1.52,0,0,0,1.84-1.05c.64-2.57-1.82-3.94-3.71-5.18a1.51,1.51,0,0,0-2.2.9c-.32,1.13.86,2.46.62,3.21l1.05-1.05c-1.62.68-6.12-1.6-7.73-2.12s-2.39,1.45-1.46,2.5c2,2.3,9,1.05,10.05-1.77a1.51,1.51,0,0,0-1.05-1.85,13.88,13.88,0,0,1-6.54-2.6,1.48,1.48,0,0,0-1.81.23c-2.58,3.1.77,5.35,3.78,5.57,1.66.12,2.07-2.66.4-2.95l-2.3-.39c-1.89-.32-2.7,2.57-.8,2.89l2.3.39.4-2.94-1.66-.45-1.82.24a15.57,15.57,0,0,0,7.25,2.91l-1-1.85c-.11.27-4.73.79-5,.45l-1.46,2.51c2.27.74,7.22,3.55,9.51,2.05a2.07,2.07,0,0,0,1-1.66c.06-.73-.95-2-.81-2.52l-2.2.89c.24.16,2.42,1.42,2.33,1.79l1.84-1.05c-2.33-.64-3-2.07-.55-3.16l-2.2-.9a48,48,0,0,0,2.72,5.7,1.51,1.51,0,0,0,2.74-1.16,42.79,42.79,0,0,1-1-4.48l-1.85,1.85c2.21.48,1.73,3.95,1.85,5.47l1.5-1.5c-3.74.07-8.45.26-12-1-2.2-.77-4.18-3.07-1.9-5,1.68-1.45.71-.6,1.91.07.47.26.82.78,1.32,1.05a3.61,3.61,0,0,0,4.36-.55c.38-.33.86-1.39,1.34-1.54.92-.28,2.06.9,2.45,1.59,1,1.79.83,4,.69,5.93s2.86,1.92,3,0Z"/><path class="cls-5" d="M383.45,435.36c.27-3.7-.45-10.34-5.44-10.73a3.3,3.3,0,0,0-2.05.49c-1.33.81-1.19,1.92-2.84,1.6-2.18-.42-3-3-5.61-2.33a4.36,4.36,0,0,0-3.08,3.85c-.25,1.76-.25,5,.7,6.59,1.19,2,4.77,2,6.81,2.34a59.74,59.74,0,0,0,10.35.66,1.51,1.51,0,0,0,1.5-1.5c-.26-3.32,0-7.46-4.05-8.37a1.53,1.53,0,0,0-1.85,1.85,45.51,45.51,0,0,0,1.05,4.48l2.74-1.16a41.59,41.59,0,0,1-2.42-5,1.53,1.53,0,0,0-2.2-.89c-1.54.69-3.59,2.87-3.4,4.73.21,2.05,2.94,3.44,4.67,3.92a1.52,1.52,0,0,0,1.84-1.05c.64-2.57-1.82-3.94-3.71-5.18a1.51,1.51,0,0,0-2.2.9c-.32,1.13.86,2.46.62,3.21l1.05-1.05c-1.62.68-6.12-1.6-7.73-2.12s-2.39,1.45-1.46,2.5c2,2.3,9,1.05,10.05-1.77a1.51,1.51,0,0,0-1.05-1.85,13.88,13.88,0,0,1-6.54-2.6,1.48,1.48,0,0,0-1.81.23c-2.58,3.1.77,5.35,3.78,5.57,1.66.12,2.07-2.66.4-2.95l-2.3-.39c-1.89-.32-2.7,2.57-.8,2.89l2.3.39.4-2.94-1.66-.45-1.82.24a15.57,15.57,0,0,0,7.25,2.91l-1-1.85c-.11.27-4.73.79-5,.45l-1.46,2.51c2.27.74,7.22,3.55,9.51,2.05a2.07,2.07,0,0,0,1-1.66c.06-.73-.95-2-.81-2.52l-2.2.89c.24.16,2.42,1.42,2.33,1.79l1.84-1.05c-2.33-.64-3-2.07-.55-3.16l-2.2-.9a48,48,0,0,0,2.72,5.7,1.51,1.51,0,0,0,2.74-1.16,42.79,42.79,0,0,1-1-4.48l-1.85,1.85c2.21.48,1.73,3.95,1.85,5.47l1.5-1.5c-3.74.07-8.45.26-12-1-2.2-.77-4.18-3.07-1.9-5,1.68-1.45.71-.6,1.91.07.47.26.82.78,1.32,1.05a3.61,3.61,0,0,0,4.36-.55c.38-.33.86-1.39,1.34-1.54.92-.28,2.06.9,2.45,1.59,1,1.79.83,4,.69,5.93s2.86,1.92,3,0Z"/><path class="cls-5" d="M415.45,427.36c.27-3.7-.45-10.34-5.44-10.73a3.3,3.3,0,0,0-2.05.49c-1.33.81-1.19,1.92-2.84,1.6-2.18-.42-3-3-5.61-2.33a4.36,4.36,0,0,0-3.08,3.85c-.25,1.76-.25,5,.7,6.59,1.19,2,4.77,2,6.81,2.34a59.74,59.74,0,0,0,10.35.66,1.51,1.51,0,0,0,1.5-1.5c-.26-3.32,0-7.46-4.05-8.37a1.53,1.53,0,0,0-1.85,1.85,45.51,45.51,0,0,0,1.05,4.48l2.74-1.16a41.59,41.59,0,0,1-2.42-5,1.53,1.53,0,0,0-2.2-.89c-1.54.69-3.59,2.87-3.4,4.73.21,2.05,2.94,3.44,4.67,3.92a1.52,1.52,0,0,0,1.84-1.05c.64-2.57-1.82-3.94-3.71-5.18a1.51,1.51,0,0,0-2.2.9c-.32,1.13.86,2.46.62,3.21l1.05-1.05c-1.62.68-6.12-1.6-7.73-2.12s-2.39,1.45-1.46,2.5c2,2.3,9,1.05,10.05-1.77a1.51,1.51,0,0,0-1.05-1.85,13.88,13.88,0,0,1-6.54-2.6,1.48,1.48,0,0,0-1.81.23c-2.58,3.1.77,5.35,3.78,5.57,1.66.12,2.07-2.66.4-2.95l-2.3-.39c-1.89-.32-2.7,2.57-.8,2.89l2.3.39.4-2.94-1.66-.45-1.82.24a15.57,15.57,0,0,0,7.25,2.91l-1-1.85c-.11.27-4.73.79-5,.45l-1.46,2.51c2.27.74,7.22,3.55,9.51,2.05a2.07,2.07,0,0,0,1-1.66c.06-.73-.95-2-.81-2.52l-2.2.89c.24.16,2.42,1.42,2.33,1.79l1.84-1.05c-2.33-.64-3-2.07-.55-3.16l-2.2-.9a48,48,0,0,0,2.72,5.7,1.51,1.51,0,0,0,2.74-1.16,42.79,42.79,0,0,1-1-4.48l-1.85,1.85c2.21.48,1.73,3.95,1.85,5.47l1.5-1.5c-3.74.07-8.45.26-12-1-2.2-.77-4.18-3.07-1.9-5,1.68-1.45.71-.6,1.91.07.47.26.82.78,1.32,1.05a3.61,3.61,0,0,0,4.36-.55c.38-.33.86-1.39,1.34-1.54.92-.28,2.06.9,2.45,1.59,1,1.79.83,4,.69,5.93s2.86,1.92,3,0Z"/><path class="cls-5" d="M440.45,422.36c.27-3.7-.45-10.34-5.44-10.73a3.3,3.3,0,0,0-2.05.49c-1.33.81-1.19,1.92-2.84,1.6-2.18-.42-3-3-5.61-2.33a4.36,4.36,0,0,0-3.08,3.85c-.25,1.76-.25,5,.7,6.59,1.19,2,4.77,2,6.81,2.34a59.74,59.74,0,0,0,10.35.66,1.51,1.51,0,0,0,1.5-1.5c-.26-3.32,0-7.46-4.05-8.37a1.53,1.53,0,0,0-1.85,1.85,45.51,45.51,0,0,0,1.05,4.48l2.74-1.16a41.59,41.59,0,0,1-2.42-5,1.53,1.53,0,0,0-2.2-.89c-1.54.69-3.59,2.87-3.4,4.73.21,2.05,2.94,3.44,4.67,3.92a1.52,1.52,0,0,0,1.84-1.05c.64-2.57-1.82-3.94-3.71-5.18a1.51,1.51,0,0,0-2.2.9c-.32,1.13.86,2.46.62,3.21l1.05-1.05c-1.62.68-6.12-1.6-7.73-2.12s-2.39,1.45-1.46,2.5c2,2.3,9,1.05,10.05-1.77a1.51,1.51,0,0,0-1.05-1.85,13.88,13.88,0,0,1-6.54-2.6,1.48,1.48,0,0,0-1.81.23c-2.58,3.1.77,5.35,3.78,5.57,1.66.12,2.07-2.66.4-2.95l-2.3-.39c-1.89-.32-2.7,2.57-.8,2.89l2.3.39.4-2.94-1.66-.45-1.82.24a15.57,15.57,0,0,0,7.25,2.91l-1-1.85c-.11.27-4.73.79-5,.45l-1.46,2.51c2.27.74,7.22,3.55,9.51,2.05a2.07,2.07,0,0,0,1-1.66c.06-.73-.95-2-.81-2.52l-2.2.89c.24.16,2.42,1.42,2.33,1.79l1.84-1.05c-2.33-.64-3-2.07-.55-3.16l-2.2-.9a48,48,0,0,0,2.72,5.7,1.51,1.51,0,0,0,2.74-1.16,42.79,42.79,0,0,1-1-4.48l-1.85,1.85c2.21.48,1.73,3.95,1.85,5.47l1.5-1.5c-3.74.07-8.45.26-12-1-2.2-.77-4.18-3.07-1.9-5,1.68-1.45.71-.6,1.91.07.47.26.82.78,1.32,1.05a3.61,3.61,0,0,0,4.36-.55c.38-.33.86-1.39,1.34-1.54.92-.28,2.06.9,2.45,1.59,1,1.79.83,4,.69,5.93s2.86,1.92,3,0Z"/><path class="cls-5" d="M469.45,417.36c.27-3.7-.45-10.34-5.44-10.73a3.3,3.3,0,0,0-2.05.49c-1.33.81-1.19,1.92-2.84,1.6-2.18-.42-3-3-5.61-2.33a4.36,4.36,0,0,0-3.08,3.85c-.25,1.76-.25,5,.7,6.59,1.19,2,4.77,2,6.81,2.34a59.74,59.74,0,0,0,10.35.66,1.51,1.51,0,0,0,1.5-1.5c-.26-3.32,0-7.46-4.05-8.37a1.53,1.53,0,0,0-1.85,1.85,45.51,45.51,0,0,0,1.05,4.48l2.74-1.16a41.59,41.59,0,0,1-2.42-5,1.53,1.53,0,0,0-2.2-.89c-1.54.69-3.59,2.87-3.4,4.73.21,2.05,2.94,3.44,4.67,3.92a1.52,1.52,0,0,0,1.84-1.05c.64-2.57-1.82-3.94-3.71-5.18a1.51,1.51,0,0,0-2.2.9c-.32,1.13.86,2.46.62,3.21l1.05-1.05c-1.62.68-6.12-1.6-7.73-2.12s-2.39,1.45-1.46,2.5c2,2.3,9,1.05,10.05-1.77a1.51,1.51,0,0,0-1.05-1.85,13.88,13.88,0,0,1-6.54-2.6,1.48,1.48,0,0,0-1.81.23c-2.58,3.1.77,5.35,3.78,5.57,1.66.12,2.07-2.66.4-2.95l-2.3-.39c-1.89-.32-2.7,2.57-.8,2.89l2.3.39.4-2.94-1.66-.45-1.82.24a15.57,15.57,0,0,0,7.25,2.91l-1-1.85c-.11.27-4.73.79-5,.45l-1.46,2.51c2.27.74,7.22,3.55,9.51,2.05a2.07,2.07,0,0,0,1-1.66c.06-.73-.95-2-.81-2.52l-2.2.89c.24.16,2.42,1.42,2.33,1.79l1.84-1.05c-2.33-.64-3-2.07-.55-3.16l-2.2-.9a48,48,0,0,0,2.72,5.7,1.51,1.51,0,0,0,2.74-1.16,42.79,42.79,0,0,1-1-4.48l-1.85,1.85c2.21.48,1.73,3.95,1.85,5.47l1.5-1.5c-3.74.07-8.45.26-12-1-2.2-.77-4.18-3.07-1.9-5,1.68-1.45.71-.6,1.91.07.47.26.82.78,1.32,1.05a3.61,3.61,0,0,0,4.36-.55c.38-.33.86-1.39,1.34-1.54.92-.28,2.06.9,2.45,1.59,1,1.79.83,4,.69,5.93s2.86,1.92,3,0Z"/><path class="cls-5" d="M495.45,417.36c.27-3.7-.45-10.34-5.44-10.73a3.3,3.3,0,0,0-2.05.49c-1.33.81-1.19,1.92-2.84,1.6-2.18-.42-3-3-5.61-2.33a4.36,4.36,0,0,0-3.08,3.85c-.25,1.76-.25,5,.7,6.59,1.19,2,4.77,2,6.81,2.34a59.74,59.74,0,0,0,10.35.66,1.51,1.51,0,0,0,1.5-1.5c-.26-3.32,0-7.46-4.05-8.37a1.53,1.53,0,0,0-1.85,1.85,45.51,45.51,0,0,0,1.05,4.48l2.74-1.16a41.59,41.59,0,0,1-2.42-5,1.53,1.53,0,0,0-2.2-.89c-1.54.69-3.59,2.87-3.4,4.73.21,2.05,2.94,3.44,4.67,3.92a1.52,1.52,0,0,0,1.84-1.05c.64-2.57-1.82-3.94-3.71-5.18a1.51,1.51,0,0,0-2.2.9c-.32,1.13.86,2.46.62,3.21l1.05-1.05c-1.62.68-6.12-1.6-7.73-2.12s-2.39,1.45-1.46,2.5c2,2.3,9,1.05,10.05-1.77a1.51,1.51,0,0,0-1.05-1.85,13.88,13.88,0,0,1-6.54-2.6,1.48,1.48,0,0,0-1.81.23c-2.58,3.1.77,5.35,3.78,5.57,1.66.12,2.07-2.66.4-2.95l-2.3-.39c-1.89-.32-2.7,2.57-.8,2.89l2.3.39.4-2.94-1.66-.45-1.82.24a15.57,15.57,0,0,0,7.25,2.91l-1-1.85c-.11.27-4.73.79-5,.45l-1.46,2.51c2.27.74,7.22,3.55,9.51,2.05a2.07,2.07,0,0,0,1-1.66c.06-.73-.95-2-.81-2.52l-2.2.89c.24.16,2.42,1.42,2.33,1.79l1.84-1.05c-2.33-.64-3-2.07-.55-3.16l-2.2-.9a48,48,0,0,0,2.72,5.7,1.51,1.51,0,0,0,2.74-1.16,42.79,42.79,0,0,1-1-4.48l-1.85,1.85c2.21.48,1.73,3.95,1.85,5.47l1.5-1.5c-3.74.07-8.45.26-12-1-2.2-.77-4.18-3.07-1.9-5,1.68-1.45.71-.6,1.91.07.47.26.82.78,1.32,1.05a3.61,3.61,0,0,0,4.36-.55c.38-.33.86-1.39,1.34-1.54.92-.28,2.06.9,2.45,1.59,1,1.79.83,4,.69,5.93s2.86,1.92,3,0Z"/><path class="cls-5" d="M450.7,445.75c-.27,3.7.44,10.34,5.43,10.73a3.35,3.35,0,0,0,2.05-.49c1.33-.81,1.19-1.92,2.84-1.6,2.19.42,3,2.95,5.62,2.33a4.38,4.38,0,0,0,3.07-3.86c.26-1.75.26-5-.69-6.58-1.19-2-4.77-2-6.81-2.34a59.74,59.74,0,0,0-10.35-.66,1.5,1.5,0,0,0-1.5,1.5c.26,3.31-.05,7.46,4.05,8.36a1.51,1.51,0,0,0,1.84-1.84,42.83,42.83,0,0,0-1.05-4.48L452.46,448a39.46,39.46,0,0,1,2.42,5,1.54,1.54,0,0,0,2.21.89c1.53-.69,3.59-2.87,3.4-4.73-.21-2.05-2.95-3.45-4.67-3.92a1.53,1.53,0,0,0-1.85,1.05c-.63,2.57,1.83,3.94,3.71,5.17a1.52,1.52,0,0,0,2.21-.89c.32-1.13-.86-2.46-.63-3.21l-1,1.05c1.61-.68,6.12,1.6,7.72,2.12s2.4-1.46,1.46-2.51c-2-2.29-9-1-10,1.78a1.48,1.48,0,0,0,1,1.84,14,14,0,0,1,6.54,2.61,1.5,1.5,0,0,0,1.82-.23c2.58-3.1-.78-5.36-3.78-5.57-1.67-.12-2.08,2.66-.4,2.95l2.3.39c1.89.32,2.7-2.57.8-2.9l-2.3-.39-.4,3,1.66.44,1.82-.23a15.65,15.65,0,0,0-7.26-2.91l1.05,1.85c.1-.27,4.73-.8,5-.46l1.46-2.5c-2.26-.74-7.22-3.55-9.5-2.05a2.07,2.07,0,0,0-1.05,1.66c-.07.73.95,2,.81,2.52l2.2-.9c-.24-.15-2.43-1.41-2.33-1.78l-1.85,1c2.34.64,3,2.08.55,3.17l2.21.9a46.55,46.55,0,0,0-2.73-5.7,1.51,1.51,0,0,0-2.74,1.16,42.83,42.83,0,0,1,1.05,4.48l1.84-1.85c-2.2-.49-1.72-3.95-1.84-5.47l-1.5,1.5c3.73-.08,8.45-.26,12,1,2.19.77,4.18,3.08,1.9,5-1.69,1.45-.72.6-1.92-.07-.47-.26-.82-.78-1.31-1.05a3.61,3.61,0,0,0-4.37.55c-.38.32-.85,1.39-1.33,1.53-.92.29-2.07-.89-2.45-1.58-1-1.79-.84-4-.69-5.93s-2.87-1.92-3,0Z"/><path class="cls-5" d="M476.7,446.75c-.27,3.7.44,10.34,5.43,10.73a3.35,3.35,0,0,0,2.05-.49c1.33-.81,1.19-1.92,2.84-1.6,2.19.42,3,2.95,5.62,2.33a4.38,4.38,0,0,0,3.07-3.86c.26-1.75.26-5-.69-6.58-1.19-2-4.77-2-6.81-2.34a59.74,59.74,0,0,0-10.35-.66,1.5,1.5,0,0,0-1.5,1.5c.26,3.31-.05,7.46,4.05,8.36a1.51,1.51,0,0,0,1.84-1.84,42.83,42.83,0,0,0-1.05-4.48L478.46,449a39.46,39.46,0,0,1,2.42,5,1.54,1.54,0,0,0,2.21.89c1.53-.69,3.59-2.87,3.4-4.73-.21-2.05-2.95-3.45-4.67-3.92a1.53,1.53,0,0,0-1.85,1.05c-.63,2.57,1.83,3.94,3.71,5.17a1.52,1.52,0,0,0,2.21-.89c.32-1.13-.86-2.46-.63-3.21l-1,1.05c1.61-.68,6.12,1.6,7.72,2.12s2.4-1.46,1.46-2.51c-2-2.29-9-1-10,1.78a1.48,1.48,0,0,0,1,1.84,14,14,0,0,1,6.54,2.61,1.5,1.5,0,0,0,1.82-.23c2.58-3.1-.78-5.36-3.78-5.57-1.67-.12-2.08,2.66-.4,2.95l2.3.39c1.89.32,2.7-2.57.8-2.9l-2.3-.39-.4,3,1.66.44,1.82-.23a15.65,15.65,0,0,0-7.26-2.91l1.05,1.85c.1-.27,4.73-.8,5-.46l1.46-2.5c-2.26-.74-7.22-3.55-9.5-2.05a2.07,2.07,0,0,0-1.05,1.66c-.07.73.95,2,.81,2.52l2.2-.9c-.24-.15-2.43-1.41-2.33-1.78l-1.85,1c2.34.64,3,2.08.55,3.17l2.21.9a46.55,46.55,0,0,0-2.73-5.7,1.51,1.51,0,0,0-2.74,1.16,42.83,42.83,0,0,1,1.05,4.48l1.84-1.85c-2.2-.49-1.72-3.95-1.84-5.47l-1.5,1.5c3.73-.08,8.45-.26,12,1,2.19.77,4.18,3.08,1.9,5-1.69,1.45-.72.6-1.92-.07-.47-.26-.82-.78-1.31-1.05a3.61,3.61,0,0,0-4.37.55c-.38.32-.85,1.39-1.33,1.53-.92.29-2.07-.89-2.45-1.58-1-1.79-.84-4-.69-5.93s-2.87-1.92-3,0Z"/><path class="cls-5" d="M509.7,450.75c-.27,3.7.44,10.34,5.43,10.73a3.35,3.35,0,0,0,2-.49c1.33-.81,1.19-1.92,2.84-1.6,2.19.42,3,2.95,5.62,2.33a4.38,4.38,0,0,0,3.07-3.86c.26-1.75.26-5-.69-6.58-1.19-2-4.77-2-6.81-2.34a59.74,59.74,0,0,0-10.35-.66,1.5,1.5,0,0,0-1.5,1.5c.26,3.31-.05,7.46,4,8.36a1.51,1.51,0,0,0,1.84-1.84,42.83,42.83,0,0,0-1-4.48L511.46,453a39.46,39.46,0,0,1,2.42,5,1.54,1.54,0,0,0,2.21.89c1.53-.69,3.59-2.87,3.4-4.73-.21-2.05-3-3.45-4.67-3.92a1.53,1.53,0,0,0-1.85,1.05c-.63,2.57,1.83,3.94,3.71,5.17a1.52,1.52,0,0,0,2.21-.89c.32-1.13-.86-2.46-.63-3.21l-1,1.05c1.61-.68,6.12,1.6,7.72,2.12s2.4-1.46,1.46-2.51c-2-2.29-9-1-10,1.78a1.48,1.48,0,0,0,1,1.84,14,14,0,0,1,6.54,2.61,1.5,1.5,0,0,0,1.82-.23c2.58-3.1-.78-5.36-3.78-5.57-1.67-.12-2.08,2.66-.4,2.95l2.3.39c1.89.32,2.7-2.57.8-2.9l-2.3-.39-.4,3,1.66.44,1.82-.23a15.65,15.65,0,0,0-7.26-2.91l1,1.85c.1-.27,4.73-.8,5-.46l1.46-2.5c-2.26-.74-7.22-3.55-9.5-2.05a2.07,2.07,0,0,0-1,1.66c-.07.73.95,2,.81,2.52l2.2-.9c-.24-.15-2.43-1.41-2.33-1.78l-1.85,1c2.34.64,3,2.08.55,3.17l2.21.9a46.55,46.55,0,0,0-2.73-5.7,1.51,1.51,0,0,0-2.74,1.16,42.83,42.83,0,0,1,1.05,4.48l1.84-1.85c-2.2-.49-1.72-3.95-1.84-5.47l-1.5,1.5c3.73-.08,8.45-.26,12,1,2.19.77,4.18,3.08,1.9,5-1.69,1.45-.72.6-1.92-.07-.47-.26-.82-.78-1.31-1.05a3.61,3.61,0,0,0-4.37.55c-.38.32-.85,1.39-1.33,1.53-.92.29-2.07-.89-2.45-1.58-1-1.79-.84-4-.69-5.93s-2.87-1.92-3,0Z"/><path class="cls-5" d="M41.7,460.75c-.27,3.7.44,10.34,5.43,10.73a3.35,3.35,0,0,0,2-.49c1.33-.81,1.19-1.92,2.84-1.6,2.19.42,3,2.95,5.62,2.33a4.38,4.38,0,0,0,3.07-3.86c.26-1.75.26-5-.69-6.58-1.19-2-4.77-2-6.81-2.34a59.74,59.74,0,0,0-10.35-.66,1.5,1.5,0,0,0-1.5,1.5c.26,3.31,0,7.46,4,8.36a1.51,1.51,0,0,0,1.84-1.84,42.83,42.83,0,0,0-1-4.48L43.46,463a39.46,39.46,0,0,1,2.42,5,1.54,1.54,0,0,0,2.21.89c1.53-.69,3.59-2.87,3.4-4.73-.21-2.05-3-3.45-4.67-3.92A1.53,1.53,0,0,0,45,461.25c-.63,2.57,1.83,3.94,3.71,5.17a1.52,1.52,0,0,0,2.21-.89c.32-1.13-.86-2.46-.63-3.21l-1,1.05c1.61-.68,6.12,1.6,7.72,2.12S59.34,464,58.4,463c-2-2.29-9-1-10,1.78a1.48,1.48,0,0,0,1,1.84,14,14,0,0,1,6.54,2.61,1.5,1.5,0,0,0,1.82-.23c2.58-3.1-.78-5.36-3.78-5.57-1.67-.12-2.08,2.66-.4,2.95l2.3.39c1.89.32,2.7-2.57.8-2.9l-2.3-.39-.4,3,1.66.44,1.82-.23a15.65,15.65,0,0,0-7.26-2.91l1,1.85c.1-.27,4.73-.8,5-.46l1.46-2.5c-2.26-.74-7.22-3.55-9.5-2.05a2.07,2.07,0,0,0-1.05,1.66c-.07.73,1,2,.81,2.52l2.2-.9c-.24-.15-2.43-1.41-2.33-1.78l-1.85,1c2.34.64,3,2.08.55,3.17l2.21.9a46.55,46.55,0,0,0-2.73-5.7,1.51,1.51,0,0,0-2.74,1.16,42.83,42.83,0,0,1,1,4.48l1.84-1.85c-2.2-.49-1.72-3.95-1.84-5.47l-1.5,1.5c3.73-.08,8.45-.26,12,1,2.19.77,4.18,3.08,1.9,5-1.69,1.45-.72.6-1.92-.07-.47-.26-.82-.78-1.31-1.05a3.61,3.61,0,0,0-4.37.55c-.38.32-.85,1.39-1.33,1.53-.92.29-2.07-.89-2.45-1.58-1-1.79-.84-4-.69-5.93s-2.87-1.92-3,0Z"/><path class="cls-5" d="M348.45,444.36c.27-3.7-.45-10.34-5.44-10.73a3.3,3.3,0,0,0-2.05.49c-1.33.81-1.19,1.92-2.84,1.6-2.18-.42-3-3-5.61-2.33a4.36,4.36,0,0,0-3.08,3.85c-.25,1.76-.25,5,.7,6.59,1.19,2,4.77,2,6.81,2.34a59.74,59.74,0,0,0,10.35.66,1.51,1.51,0,0,0,1.5-1.5c-.26-3.32,0-7.46-4.05-8.37a1.53,1.53,0,0,0-1.85,1.85,45.51,45.51,0,0,0,1.05,4.48l2.74-1.16a41.59,41.59,0,0,1-2.42-5,1.53,1.53,0,0,0-2.2-.89c-1.54.69-3.59,2.87-3.4,4.73.21,2.05,2.94,3.44,4.67,3.92a1.52,1.52,0,0,0,1.84-1.05c.64-2.57-1.82-3.94-3.71-5.18a1.51,1.51,0,0,0-2.2.9c-.32,1.13.86,2.46.62,3.21l1.05-1.05c-1.62.68-6.12-1.6-7.73-2.12s-2.39,1.45-1.46,2.5c2,2.3,9,1.05,10.05-1.77a1.51,1.51,0,0,0-1.05-1.85,13.88,13.88,0,0,1-6.54-2.6,1.48,1.48,0,0,0-1.81.23c-2.58,3.1.77,5.35,3.78,5.57,1.66.12,2.07-2.66.4-2.95l-2.3-.39c-1.89-.32-2.7,2.57-.8,2.89l2.3.39.4-2.94-1.66-.45-1.82.24a15.57,15.57,0,0,0,7.25,2.91l-1-1.85c-.11.27-4.73.79-5,.45l-1.46,2.51c2.27.74,7.22,3.55,9.51,2.05a2.07,2.07,0,0,0,1-1.66c.06-.73-.95-2-.81-2.52l-2.2.89c.24.16,2.42,1.42,2.33,1.79l1.84-1.05c-2.33-.64-3-2.07-.55-3.16l-2.2-.9a48,48,0,0,0,2.72,5.7,1.51,1.51,0,0,0,2.74-1.16,42.79,42.79,0,0,1-1-4.48l-1.85,1.85c2.21.48,1.73,3.95,1.85,5.47l1.5-1.5c-3.74.07-8.45.26-12-1-2.2-.77-4.18-3.07-1.9-5,1.68-1.45.71-.6,1.91.07.47.26.82.78,1.32,1.05a3.61,3.61,0,0,0,4.36-.55c.38-.33.86-1.39,1.34-1.54.92-.28,2.06.9,2.45,1.59,1,1.79.83,4,.69,5.93s2.86,1.92,3,0Z"/><path class="cls-5" d="M311.45,450.36c.27-3.7-.45-10.34-5.44-10.73a3.3,3.3,0,0,0-2.05.49c-1.33.81-1.19,1.92-2.84,1.6-2.18-.42-3-3-5.61-2.33a4.36,4.36,0,0,0-3.08,3.85c-.25,1.76-.25,5,.7,6.59,1.19,2,4.77,2,6.81,2.34a59.74,59.74,0,0,0,10.35.66,1.51,1.51,0,0,0,1.5-1.5c-.26-3.32,0-7.46-4.05-8.37a1.53,1.53,0,0,0-1.85,1.85,45.51,45.51,0,0,0,1.05,4.48l2.74-1.16a41.59,41.59,0,0,1-2.42-5,1.53,1.53,0,0,0-2.2-.89c-1.54.69-3.59,2.87-3.4,4.73.21,2.05,2.94,3.44,4.67,3.92a1.52,1.52,0,0,0,1.84-1.05c.64-2.57-1.82-3.94-3.71-5.18a1.51,1.51,0,0,0-2.2.9c-.32,1.13.86,2.46.62,3.21l1.05-1.05c-1.62.68-6.12-1.6-7.73-2.12s-2.39,1.45-1.46,2.5c2,2.3,9,1.05,10.05-1.77a1.51,1.51,0,0,0-1.05-1.85,13.88,13.88,0,0,1-6.54-2.6,1.48,1.48,0,0,0-1.81.23c-2.58,3.1.77,5.35,3.78,5.57,1.66.12,2.07-2.66.4-2.95l-2.3-.39c-1.89-.32-2.7,2.57-.8,2.89l2.3.39.4-2.94-1.66-.45-1.82.24a15.57,15.57,0,0,0,7.25,2.91l-1-1.85c-.11.27-4.73.79-5,.45l-1.46,2.51c2.27.74,7.22,3.55,9.51,2.05a2.07,2.07,0,0,0,1-1.66c.06-.73-.95-2-.81-2.52l-2.2.89c.24.16,2.42,1.42,2.33,1.79l1.84-1.05c-2.33-.64-3-2.07-.55-3.16l-2.2-.9a48,48,0,0,0,2.72,5.7,1.51,1.51,0,0,0,2.74-1.16,42.79,42.79,0,0,1-1-4.48l-1.85,1.85c2.21.48,1.73,3.95,1.85,5.47l1.5-1.5c-3.74.07-8.45.26-12-1-2.2-.77-4.18-3.07-1.9-5,1.68-1.45.71-.6,1.91.07.47.26.82.78,1.32,1.05a3.61,3.61,0,0,0,4.36-.55c.38-.33.86-1.39,1.34-1.54.92-.28,2.06.9,2.45,1.59,1,1.79.83,4,.69,5.93s2.86,1.92,3,0Z"/><path class="cls-5" d="M26,462.44S31,463,31,467s-1,8-4,8-3-3-5-3-2,3-5,3c0,0-2.29-.28-2.15-1.64S16,462,16,462Z"/><path class="cls-5" d="M32,442s-.94-7.33-5-8.16c0,0-5.85,7-6.44,10.08S32,442,32,442Z"/><path class="cls-6" d="M15.24,470.75S26.5,463.5,48.5,462.5s106,11,119,13,84,6,126,1,95-17,102-19,57-12,80-12,53,7,53,7,0-7-2-7-19-9-51-7a419.62,419.62,0,0,0-56,7c-6,1-101,21-111,22s-26,3.57-56,4c-30.35.44-96.17-3.29-110-6S34.5,444.5,16,462Z"/><path class="cls-6" d="M335,450c-39.86,7.18-72.32,10.74-92,11-47.84.64-64.33,0-119-8-41-6-85.35-10.29-106.68-.15,0,0,1.86-7,3.27-8.93S44,433,125,445s163,7,191,0,36.71-3.5,87.35-19.25,98.8-11,115.72,2.61c0,0,6.72,10.14,6.82,12.39C515,428,491.57,422.42,465,423,419,424,399.52,438.38,335,450Z"/><path class="cls-7" d="M166.06,571.37c2.7,0,2.71-4.2,0-4.2s-2.71,4.2,0,4.2Z"/><path class="cls-7" d="M165.64,576.85c2.7,0,2.71-4.2,0-4.2s-2.71,4.2,0,4.2Z"/><path class="cls-7" d="M175.38,576.58c2.7,0,2.7-4.2,0-4.2s-2.71,4.2,0,4.2Z"/><path class="cls-7" d="M175.55,571.94c2.71,0,2.71-4.2,0-4.2s-2.7,4.2,0,4.2Z"/><path class="cls-7" d="M180.64,577.21c2.7,0,2.71-4.2,0-4.2s-2.71,4.2,0,4.2Z"/><path class="cls-7" d="M189.47,578.6c2.7,0,2.71-4.2,0-4.2s-2.71,4.2,0,4.2Z"/><path class="cls-7" d="M195,571.2c2.7,0,2.7-4.2,0-4.2s-2.71,4.2,0,4.2Z"/><path class="cls-7" d="M194.39,577.1c2.7,0,2.71-4.2,0-4.2s-2.71,4.2,0,4.2Z"/><path class="cls-7" d="M203.92,576.61c2.71,0,2.71-4.2,0-4.2s-2.7,4.2,0,4.2Z"/><path class="cls-7" d="M204.09,572.18c2.71,0,2.71-4.2,0-4.2s-2.7,4.2,0,4.2Z"/><path class="cls-7" d="M208.54,577.63c2.7,0,2.7-4.2,0-4.2s-2.71,4.2,0,4.2Z"/><path class="cls-7" d="M216.73,579c2.71,0,2.71-4.2,0-4.2s-2.7,4.2,0,4.2Z"/><path class="cls-7" d="M222.49,572.24c2.7,0,2.7-4.2,0-4.2s-2.71,4.2,0,4.2Z"/><path class="cls-7" d="M222.28,577.73c2.7,0,2.71-4.2,0-4.2s-2.71,4.2,0,4.2Z"/><path class="cls-7" d="M232,577.89c2.7,0,2.71-4.2,0-4.2s-2.71,4.2,0,4.2Z"/><path class="cls-7" d="M232,572.6c2.7,0,2.71-4.2,0-4.2s-2.71,4.2,0,4.2Z"/><path class="cls-7" d="M240.38,546.7c2.7,0,2.7-4.2,0-4.2s-2.71,4.2,0,4.2Z"/><path class="cls-7" d="M239.73,552.6c2.7,0,2.71-4.2,0-4.2s-2.71,4.2,0,4.2Z"/><path class="cls-7" d="M244.43,556.79c2.71,0,2.71-4.2,0-4.2s-2.7,4.2,0,4.2Z"/><path class="cls-7" d="M249.47,552.33c2.7,0,2.7-4.2,0-4.2s-2.71,4.2,0,4.2Z"/><path class="cls-7" d="M249.87,547.27c2.7,0,2.71-4.2,0-4.2s-2.71,4.2,0,4.2Z"/><path class="cls-7" d="M255.4,540.71c2.71,0,2.71-4.2,0-4.2s-2.7,4.2,0,4.2Z"/><path class="cls-7" d="M255,546.83c2.7,0,2.71-4.2,0-4.2s-2.71,4.2,0,4.2Z"/><path class="cls-7" d="M258.67,549.3c2.71,0,2.71-4.2,0-4.2s-2.7,4.2,0,4.2Z"/><path class="cls-7" d="M263.46,545.67c2.71,0,2.71-4.2,0-4.2s-2.7,4.2,0,4.2Z"/><path class="cls-7" d="M263.88,540.4c2.7,0,2.7-4.2,0-4.2s-2.71,4.2,0,4.2Z"/><path class="cls-7" d="M268.69,547.35c2.7,0,2.7-4.2,0-4.2s-2.71,4.2,0,4.2Z"/><path class="cls-7" d="M268.49,552.63c2.7,0,2.7-4.2,0-4.2s-2.71,4.2,0,4.2Z"/><path class="cls-7" d="M271.73,556.35c2.7,0,2.71-4.2,0-4.2s-2.71,4.2,0,4.2Z"/><path class="cls-7" d="M275.88,552.7c2.71,0,2.71-4.2,0-4.2s-2.7,4.2,0,4.2Z"/><path class="cls-7" d="M276.08,547.63c2.7,0,2.7-4.2,0-4.2s-2.71,4.2,0,4.2Z"/><path class="cls-7" d="M281.94,538.13c2.7,0,2.7-4.2,0-4.2s-2.71,4.2,0,4.2Z"/><path class="cls-7" d="M282,542.57c2.7,0,2.71-4.2,0-4.2s-2.71,4.2,0,4.2Z"/><path class="cls-7" d="M285.44,546.08c2.7,0,2.71-4.2,0-4.2s-2.71,4.2,0,4.2Z"/><path class="cls-7" d="M289.79,542.87c2.7,0,2.71-4.2,0-4.2s-2.7,4.2,0,4.2Z"/><path class="cls-7" d="M289.77,537.79c2.71,0,2.71-4.2,0-4.2s-2.7,4.2,0,4.2Z"/><path class="cls-7" d="M295.35,546.88c2.7,0,2.71-4.2,0-4.2s-2.71,4.2,0,4.2Z"/><path class="cls-7" d="M295.12,552.8c2.71,0,2.71-4.2,0-4.2s-2.7,4.2,0,4.2Z"/><path class="cls-7" d="M299.64,556.35c2.7,0,2.71-4.2,0-4.2s-2.71,4.2,0,4.2Z"/><path class="cls-7" d="M304.47,551.67c2.7,0,2.71-4.2,0-4.2s-2.71,4.2,0,4.2Z"/><path class="cls-7" d="M304.25,546.38c2.7,0,2.71-4.2,0-4.2s-2.71,4.2,0,4.2Z"/><path class="cls-5" d="M165.69,555.56c2.7,0,2.71-4.2,0-4.2s-2.71,4.2,0,4.2Z"/><path class="cls-5" d="M165.37,560.46c2.71,0,2.71-4.2,0-4.2s-2.7,4.2,0,4.2Z"/><path class="cls-5" d="M170.37,565.18c2.71,0,2.71-4.2,0-4.2s-2.7,4.2,0,4.2Z"/><path class="cls-5" d="M175.58,561c2.7,0,2.71-4.2,0-4.2s-2.71,4.2,0,4.2Z"/><path class="cls-5" d="M175.64,556.06c2.7,0,2.71-4.2,0-4.2s-2.71,4.2,0,4.2Z"/><path class="cls-5" d="M180.68,563c2.71,0,2.71-4.2,0-4.2s-2.7,4.2,0,4.2Z"/><path class="cls-5" d="M180.23,568c2.71,0,2.71-4.2,0-4.2s-2.7,4.2,0,4.2Z"/><path class="cls-5" d="M184.38,571.28c2.71,0,2.71-4.2,0-4.2s-2.7,4.2,0,4.2Z"/><path class="cls-5" d="M189.71,567.47c2.7,0,2.7-4.2,0-4.2s-2.71,4.2,0,4.2Z"/><path class="cls-5" d="M190.29,562.45c2.7,0,2.7-4.2,0-4.2s-2.71,4.2,0,4.2Z"/><path class="cls-5" d="M196.12,555.29c2.71,0,2.71-4.2,0-4.2s-2.7,4.2,0,4.2Z"/><path class="cls-5" d="M195.68,560.19c2.7,0,2.71-4.2,0-4.2s-2.71,4.2,0,4.2Z"/><path class="cls-5" d="M199.27,564.47c2.7,0,2.71-4.2,0-4.2s-2.71,4.2,0,4.2Z"/><path class="cls-5" d="M204.22,560.38c2.7,0,2.7-4.2,0-4.2s-2.71,4.2,0,4.2Z"/><path class="cls-5" d="M204.65,555.74c2.7,0,2.71-4.2,0-4.2s-2.71,4.2,0,4.2Z"/><path class="cls-5" d="M208.37,563.52c2.7,0,2.71-4.2,0-4.2s-2.71,4.2,0,4.2Z"/><path class="cls-5" d="M208.17,568.69c2.71,0,2.71-4.2,0-4.2s-2.7,4.2,0,4.2Z"/><path class="cls-5" d="M212.85,571.59c2.71,0,2.71-4.2,0-4.2s-2.7,4.2,0,4.2Z"/><path class="cls-5" d="M218.19,567.52c2.7,0,2.7-4.2,0-4.2s-2.71,4.2,0,4.2Z"/><path class="cls-5" d="M218.34,563.38c2.71,0,2.71-4.2,0-4.2s-2.7,4.2,0,4.2Z"/><path class="cls-5" d="M224.71,555.86c2.71,0,2.71-4.2,0-4.2s-2.7,4.2,0,4.2Z"/><path class="cls-5" d="M224.41,560.38c2.71,0,2.71-4.2,0-4.2s-2.7,4.2,0,4.2Z"/><path class="cls-5" d="M229.07,563.79c2.71,0,2.71-4.2,0-4.2s-2.7,4.2,0,4.2Z"/><path class="cls-5" d="M233.73,560.6c2.7,0,2.7-4.2,0-4.2s-2.71,4.2,0,4.2Z"/><path class="cls-5" d="M233.52,555.8c2.7,0,2.71-4.2,0-4.2s-2.71,4.2,0,4.2Z"/><path class="cls-5" d="M240,563c2.7,0,2.7-4.2,0-4.2s-2.71,4.2,0,4.2Z"/><path class="cls-5" d="M239.41,567.68c2.7,0,2.71-4.2,0-4.2s-2.7,4.2,0,4.2Z"/><path class="cls-5" d="M242.89,571.43c2.71,0,2.71-4.2,0-4.2s-2.7,4.2,0,4.2Z"/><path class="cls-5" d="M247.82,567.74c2.71,0,2.71-4.2,0-4.2s-2.7,4.2,0,4.2Z"/><path class="cls-5" d="M248.8,562.6c2.7,0,2.7-4.2,0-4.2s-2.71,4.2,0,4.2Z"/><path class="cls-5" d="M254.5,555.69c2.7,0,2.7-4.2,0-4.2s-2.71,4.2,0,4.2Z"/><path class="cls-5" d="M254.3,560.86c2.7,0,2.71-4.2,0-4.2s-2.71,4.2,0,4.2Z"/><path class="cls-5" d="M257.65,564.74c2.7,0,2.71-4.2,0-4.2s-2.71,4.2,0,4.2Z"/><path class="cls-5" d="M262.33,560.91c2.7,0,2.7-4.2,0-4.2s-2.71,4.2,0,4.2Z"/><path class="cls-5" d="M262.9,555.88c2.71,0,2.71-4.2,0-4.2s-2.7,4.2,0,4.2Z"/><path class="cls-5" d="M281.2,554.76c2.7,0,2.71-4.2,0-4.2s-2.71,4.2,0,4.2Z"/><path class="cls-5" d="M281.14,559.81c2.7,0,2.71-4.2,0-4.2s-2.71,4.2,0,4.2Z"/><path class="cls-5" d="M285.28,563.2c2.71,0,2.71-4.2,0-4.2s-2.7,4.2,0,4.2Z"/><path class="cls-5" d="M289.45,559.09c2.7,0,2.71-4.2,0-4.2s-2.7,4.2,0,4.2Z"/><path class="cls-5" d="M289.49,554.56c2.71,0,2.71-4.2,0-4.2s-2.7,4.2,0,4.2Z"/><path class="cls-5" d="M294.75,562.79c2.7,0,2.71-4.2,0-4.2s-2.71,4.2,0,4.2Z"/><path class="cls-5" d="M294.14,568.59c2.7,0,2.71-4.2,0-4.2s-2.71,4.2,0,4.2Z"/><path class="cls-5" d="M298.77,572.78c2.7,0,2.71-4.2,0-4.2s-2.71,4.2,0,4.2Z"/><path class="cls-5" d="M303.87,568.18c2.7,0,2.7-4.2,0-4.2s-2.71,4.2,0,4.2Z"/><path class="cls-5" d="M304.59,562.77c2.7,0,2.71-4.2,0-4.2s-2.71,4.2,0,4.2Z"/><path class="cls-7" d="M340.92,578c2.71,0,2.71-4.2,0-4.2s-2.7,4.2,0,4.2Z"/><path class="cls-7" d="M350,578.13c2.7,0,2.71-4.2,0-4.2s-2.7,4.2,0,4.2Z"/><path class="cls-7" d="M368.35,576.46c2.7,0,2.71-4.2,0-4.2s-2.71,4.2,0,4.2Z"/><path class="cls-7" d="M377.85,575.92c2.7,0,2.7-4.2,0-4.2s-2.71,4.2,0,4.2Z"/><path class="cls-7" d="M383.75,549.34c2.7,0,2.71-4.2,0-4.2s-2.71,4.2,0,4.2Z"/><path class="cls-7" d="M383.66,555.27c2.7,0,2.71-4.2,0-4.2s-2.71,4.2,0,4.2Z"/><path class="cls-7" d="M388.74,559c2.7,0,2.71-4.2,0-4.2s-2.71,4.2,0,4.2Z"/><path class="cls-7" d="M393.33,554.09c2.7,0,2.71-4.2,0-4.2s-2.71,4.2,0,4.2Z"/><path class="cls-7" d="M393.26,549c2.7,0,2.7-4.2,0-4.2s-2.71,4.2,0,4.2Z"/><path class="cls-7" d="M398.15,542c2.7,0,2.7-4.2,0-4.2s-2.71,4.2,0,4.2Z"/><path class="cls-7" d="M398.28,548.1c2.71,0,2.71-4.2,0-4.2s-2.7,4.2,0,4.2Z"/><path class="cls-7" d="M402.21,550.2c2.7,0,2.71-4.2,0-4.2s-2.71,4.2,0,4.2Z"/><path class="cls-7" d="M406.64,546.14c2.7,0,2.71-4.2,0-4.2s-2.71,4.2,0,4.2Z"/><path class="cls-7" d="M406.55,540.85c2.7,0,2.71-4.2,0-4.2s-2.71,4.2,0,4.2Z"/><path class="cls-7" d="M412,547.32c2.7,0,2.7-4.2,0-4.2s-2.71,4.2,0,4.2Z"/><path class="cls-7" d="M412.29,552.59c2.71,0,2.71-4.2,0-4.2s-2.7,4.2,0,4.2Z"/><path class="cls-7" d="M415.87,556c2.71,0,2.71-4.2,0-4.2s-2.7,4.2,0,4.2Z"/><path class="cls-7" d="M419.67,552c2.7,0,2.7-4.2,0-4.2s-2.71,4.2,0,4.2Z"/><path class="cls-7" d="M419.38,546.9c2.7,0,2.71-4.2,0-4.2s-2.71,4.2,0,4.2Z"/><path class="cls-7" d="M424.32,536.89c2.7,0,2.7-4.2,0-4.2s-2.71,4.2,0,4.2Z"/><path class="cls-7" d="M424.78,541.31c2.7,0,2.71-4.2,0-4.2s-2.71,4.2,0,4.2Z"/><path class="cls-7" d="M428.56,544.48c2.7,0,2.7-4.2,0-4.2s-2.71,4.2,0,4.2Z"/><path class="cls-7" d="M432.58,540.86c2.71,0,2.71-4.2,0-4.2s-2.7,4.2,0,4.2Z"/><path class="cls-7" d="M432.09,535.81c2.7,0,2.7-4.2,0-4.2s-2.71,4.2,0,4.2Z"/><path class="cls-7" d="M438.5,544.34c2.7,0,2.7-4.2,0-4.2s-2.71,4.2,0,4.2Z"/><path class="cls-7" d="M438.83,550.25c2.7,0,2.71-4.2,0-4.2s-2.71,4.2,0,4.2Z"/><path class="cls-7" d="M443.66,553.36c2.7,0,2.71-4.2,0-4.2s-2.7,4.2,0,4.2Z"/><path class="cls-7" d="M448,548.24c2.7,0,2.71-4.2,0-4.2s-2.71,4.2,0,4.2Z"/><path class="cls-7" d="M447.31,543c2.7,0,2.71-4.2,0-4.2s-2.71,4.2,0,4.2Z"/><path class="cls-5" d="M310.23,565.2c2.71,0,2.71-4.2,0-4.2s-2.7,4.2,0,4.2Z"/><path class="cls-5" d="M310.38,570.12c2.7,0,2.71-4.2,0-4.2s-2.71,4.2,0,4.2Z"/><path class="cls-5" d="M315.8,574.35c2.71,0,2.71-4.2,0-4.2s-2.7,4.2,0,4.2Z"/><path class="cls-5" d="M320.59,569.67c2.7,0,2.71-4.2,0-4.2s-2.7,4.2,0,4.2Z"/><path class="cls-5" d="M320.19,564.77c2.7,0,2.7-4.2,0-4.2s-2.71,4.2,0,4.2Z"/><path class="cls-5" d="M325.86,571.19c2.7,0,2.71-4.2,0-4.2s-2.71,4.2,0,4.2Z"/><path class="cls-5" d="M325.89,576.24c2.7,0,2.7-4.2,0-4.2s-2.71,4.2,0,4.2Z"/><path class="cls-5" d="M330.33,579.1c2.7,0,2.7-4.2,0-4.2s-2.71,4.2,0,4.2Z"/><path class="cls-5" d="M335.27,574.8c2.7,0,2.7-4.2,0-4.2s-2.71,4.2,0,4.2Z"/><path class="cls-5" d="M335.37,569.74c2.7,0,2.71-4.2,0-4.2s-2.71,4.2,0,4.2Z"/><path class="cls-5" d="M340.51,562.07c2.7,0,2.7-4.2,0-4.2s-2.71,4.2,0,4.2Z"/><path class="cls-5" d="M340.53,567c2.7,0,2.7-4.2,0-4.2s-2.71,4.2,0,4.2Z"/><path class="cls-5" d="M344.5,570.91c2.71,0,2.71-4.2,0-4.2s-2.7,4.2,0,4.2Z"/><path class="cls-5" d="M349,566.38c2.71,0,2.71-4.2,0-4.2s-2.7,4.2,0,4.2Z"/><path class="cls-5" d="M349,561.71c2.7,0,2.7-4.2,0-4.2s-2.71,4.2,0,4.2Z"/><path class="cls-5" d="M353.47,569.11c2.71,0,2.71-4.2,0-4.2s-2.7,4.2,0,4.2Z"/><path class="cls-5" d="M353.77,574.27c2.7,0,2.7-4.2,0-4.2s-2.71,4.2,0,4.2Z"/><path class="cls-5" d="M358.7,576.72c2.7,0,2.7-4.2,0-4.2s-2.71,4.2,0,4.2Z"/><path class="cls-5" d="M363.62,572.16c2.71,0,2.71-4.2,0-4.2s-2.7,4.2,0,4.2Z"/><path class="cls-5" d="M363.39,568c2.7,0,2.71-4.2,0-4.2s-2.71,4.2,0,4.2Z"/><path class="cls-5" d="M369,559.93c2.7,0,2.71-4.2,0-4.2s-2.71,4.2,0,4.2Z"/><path class="cls-5" d="M369.15,564.46c2.7,0,2.71-4.2,0-4.2s-2.71,4.2,0,4.2Z"/><path class="cls-5" d="M374.11,567.42c2.7,0,2.71-4.2,0-4.2s-2.71,4.2,0,4.2Z"/><path class="cls-5" d="M378.44,563.81c2.7,0,2.71-4.2,0-4.2s-2.71,4.2,0,4.2Z"/><path class="cls-5" d="M377.78,559.05c2.71,0,2.71-4.2,0-4.2s-2.7,4.2,0,4.2Z"/><path class="cls-5" d="M384.89,565.64c2.71,0,2.71-4.2,0-4.2s-2.7,4.2,0,4.2Z"/><path class="cls-5" d="M384.77,570.32c2.7,0,2.71-4.2,0-4.2s-2.71,4.2,0,4.2Z"/><path class="cls-5" d="M388.59,573.73c2.7,0,2.71-4.2,0-4.2s-2.71,4.2,0,4.2Z"/><path class="cls-5" d="M393.15,569.58c2.7,0,2.71-4.2,0-4.2s-2.71,4.2,0,4.2Z"/><path class="cls-5" d="M393.63,564.37c2.71,0,2.71-4.2,0-4.2s-2.7,4.2,0,4.2Z"/><path class="cls-5" d="M398.66,557c2.7,0,2.7-4.2,0-4.2s-2.71,4.2,0,4.2Z"/><path class="cls-5" d="M399,562.13c2.7,0,2.71-4.2,0-4.2s-2.71,4.2,0,4.2Z"/><path class="cls-5" d="M402.65,565.68c2.7,0,2.7-4.2,0-4.2s-2.71,4.2,0,4.2Z"/><path class="cls-5" d="M406.94,561.42c2.7,0,2.71-4.2,0-4.2s-2.7,4.2,0,4.2Z"/><path class="cls-5" d="M407,556.36c2.71,0,2.71-4.2,0-4.2s-2.7,4.2,0,4.2Z"/><path class="cls-5" d="M425.15,553.52c2.71,0,2.71-4.2,0-4.2s-2.7,4.2,0,4.2Z"/><path class="cls-5" d="M425.57,558.55c2.7,0,2.71-4.2,0-4.2s-2.71,4.2,0,4.2Z"/><path class="cls-5" d="M430,561.54c2.71,0,2.71-4.2,0-4.2s-2.7,4.2,0,4.2Z"/><path class="cls-5" d="M433.78,557.05c2.7,0,2.7-4.2,0-4.2s-2.71,4.2,0,4.2Z"/><path class="cls-5" d="M433.39,552.53c2.7,0,2.71-4.2,0-4.2s-2.71,4.2,0,4.2Z"/><path class="cls-5" d="M439.4,560.23c2.7,0,2.71-4.2,0-4.2s-2.71,4.2,0,4.2Z"/><path class="cls-5" d="M439.34,566.06c2.7,0,2.71-4.2,0-4.2s-2.71,4.2,0,4.2Z"/><path class="cls-5" d="M444.35,569.8c2.7,0,2.7-4.2,0-4.2s-2.71,4.2,0,4.2Z"/><path class="cls-5" d="M449,564.74c2.71,0,2.71-4.2,0-4.2s-2.7,4.2,0,4.2Z"/><path class="cls-5" d="M449.19,559.29c2.71,0,2.71-4.2,0-4.2s-2.7,4.2,0,4.2Z"/><path class="cls-7" d="M461.55,563.52c2.7,0,2.71-4.2,0-4.2s-2.71,4.2,0,4.2Z"/><path class="cls-7" d="M461.61,569c2.71,0,2.71-4.2,0-4.2s-2.7,4.2,0,4.2Z"/><path class="cls-7" d="M466.42,572c2.7,0,2.7-4.2,0-4.2s-2.71,4.2,0,4.2Z"/><path class="cls-7" d="M471.29,567.9c2.7,0,2.71-4.2,0-4.2s-2.71,4.2,0,4.2Z"/><path class="cls-7" d="M471.06,563.25c2.7,0,2.7-4.2,0-4.2s-2.71,4.2,0,4.2Z"/><path class="cls-7" d="M476.59,568.05c2.7,0,2.7-4.2,0-4.2s-2.71,4.2,0,4.2Z"/><path class="cls-7" d="M476.89,574.17c2.71,0,2.71-4.2,0-4.2s-2.7,4.2,0,4.2Z"/><path class="cls-7" d="M481.14,578.61c2.7,0,2.7-4.2,0-4.2s-2.71,4.2,0,4.2Z"/><path class="cls-7" d="M485.74,573.31c2.7,0,2.7-4.2,0-4.2s-2.71,4.2,0,4.2Z"/><path class="cls-7" d="M485.5,568.66c2.71,0,2.71-4.2,0-4.2s-2.7,4.2,0,4.2Z"/><path class="cls-7" d="M490.4,560.8c2.7,0,2.71-4.2,0-4.2s-2.71,4.2,0,4.2Z"/><path class="cls-7" d="M490.27,566.73c2.71,0,2.71-4.2,0-4.2s-2.7,4.2,0,4.2Z"/><path class="cls-7" d="M494.43,569.48c2.7,0,2.71-4.2,0-4.2s-2.71,4.2,0,4.2Z"/><path class="cls-7" d="M499.73,565.41c2.7,0,2.71-4.2,0-4.2s-2.71,4.2,0,4.2Z"/><path class="cls-7" d="M499.51,561c2.7,0,2.7-4.2,0-4.2s-2.71,4.2,0,4.2Z"/><path class="cls-7" d="M504.41,566c2.71,0,2.71-4.2,0-4.2s-2.7,4.2,0,4.2Z"/><path class="cls-7" d="M504.07,571.75c2.7,0,2.7-4.2,0-4.2s-2.71,4.2,0,4.2Z"/><path class="cls-7" d="M508.31,576.19c2.7,0,2.71-4.2,0-4.2s-2.71,4.2,0,4.2Z"/><path class="cls-7" d="M513.15,571.51c2.7,0,2.71-4.2,0-4.2s-2.71,4.2,0,4.2Z"/><path class="cls-7" d="M512.7,566.66c2.7,0,2.7-4.2,0-4.2s-2.71,4.2,0,4.2Z"/><path class="cls-7" d="M517.84,559.42c2.7,0,2.7-4.2,0-4.2s-2.71,4.2,0,4.2Z"/><path class="cls-7" d="M518.11,564.91c2.7,0,2.71-4.2,0-4.2s-2.71,4.2,0,4.2Z"/><path class="cls-7" d="M522.5,568.08c2.7,0,2.71-4.2,0-4.2s-2.71,4.2,0,4.2Z"/><path class="cls-7" d="M527.81,564.21c2.7,0,2.7-4.2,0-4.2s-2.71,4.2,0,4.2Z"/><path class="cls-7" d="M527.33,559c2.7,0,2.71-4.2,0-4.2s-2.7,4.2,0,4.2Z"/><path class="cls-7" d="M533.41,532.41c2.7,0,2.7-4.2,0-4.2s-2.71,4.2,0,4.2Z"/><path class="cls-7" d="M533.28,538.34c2.7,0,2.71-4.2,0-4.2s-2.71,4.2,0,4.2Z"/><path class="cls-7" d="M538.34,542.1c2.7,0,2.7-4.2,0-4.2s-2.71,4.2,0,4.2Z"/><path class="cls-5" d="M459.79,547.8c2.7,0,2.71-4.2,0-4.2s-2.71,4.2,0,4.2Z"/><path class="cls-5" d="M459.91,552.72c2.7,0,2.7-4.2,0-4.2s-2.71,4.2,0,4.2Z"/><path class="cls-5" d="M465.3,557c2.7,0,2.71-4.2,0-4.2s-2.71,4.2,0,4.2Z"/><path class="cls-5" d="M470.12,552.33c2.7,0,2.71-4.2,0-4.2s-2.71,4.2,0,4.2Z"/><path class="cls-5" d="M469.74,547.43c2.71,0,2.71-4.2,0-4.2s-2.7,4.2,0,4.2Z"/><path class="cls-5" d="M475.38,553.88c2.7,0,2.71-4.2,0-4.2s-2.71,4.2,0,4.2Z"/><path class="cls-5" d="M475.37,558.94c2.71,0,2.71-4.2,0-4.2s-2.7,4.2,0,4.2Z"/><path class="cls-5" d="M479.79,561.82c2.71,0,2.71-4.2,0-4.2s-2.7,4.2,0,4.2Z"/><path class="cls-5" d="M484.76,557.56c2.7,0,2.71-4.2,0-4.2s-2.71,4.2,0,4.2Z"/><path class="cls-5" d="M484.9,552.5c2.7,0,2.7-4.2,0-4.2s-2.71,4.2,0,4.2Z"/><path class="cls-5" d="M490.08,544.86c2.7,0,2.71-4.2,0-4.2s-2.71,4.2,0,4.2Z"/><path class="cls-5" d="M490.07,549.78c2.7,0,2.71-4.2,0-4.2s-2.71,4.2,0,4.2Z"/><path class="cls-5" d="M494,553.73c2.71,0,2.71-4.2,0-4.2s-2.7,4.2,0,4.2Z"/><path class="cls-5" d="M498.59,549.22c2.7,0,2.71-4.2,0-4.2s-2.71,4.2,0,4.2Z"/><path class="cls-5" d="M498.62,544.56c2.7,0,2.7-4.2,0-4.2s-2.71,4.2,0,4.2Z"/><path class="cls-5" d="M503,552c2.71,0,2.71-4.2,0-4.2s-2.7,4.2,0,4.2Z"/><path class="cls-5" d="M503.26,557.15c2.71,0,2.71-4.2,0-4.2s-2.7,4.2,0,4.2Z"/><path class="cls-5" d="M508.18,559.62c2.7,0,2.71-4.2,0-4.2s-2.71,4.2,0,4.2Z"/><path class="cls-5" d="M513.13,555.1c2.71,0,2.71-4.2,0-4.2s-2.7,4.2,0,4.2Z"/><path class="cls-5" d="M512.93,551c2.7,0,2.7-4.2,0-4.2s-2.71,4.2,0,4.2Z"/><path class="cls-5" d="M518.61,542.91c2.7,0,2.71-4.2,0-4.2s-2.71,4.2,0,4.2Z"/><path class="cls-5" d="M518.71,547.43c2.7,0,2.71-4.2,0-4.2s-2.71,4.2,0,4.2Z"/><path class="cls-5" d="M523.65,550.42c2.7,0,2.71-4.2,0-4.2s-2.71,4.2,0,4.2Z"/><path class="cls-5" d="M528,546.84c2.71,0,2.71-4.2,0-4.2s-2.7,4.2,0,4.2Z"/><path class="cls-5" d="M527.38,542.08c2.7,0,2.7-4.2,0-4.2s-2.71,4.2,0,4.2Z"/><path class="cls-5" d="M534.45,548.72c2.7,0,2.7-4.2,0-4.2s-2.71,4.2,0,4.2Z"/><path class="cls-5" d="M534.29,553.39c2.7,0,2.71-4.2,0-4.2s-2.7,4.2,0,4.2Z"/><path class="cls-5" d="M538.09,556.82c2.7,0,2.71-4.2,0-4.2s-2.71,4.2,0,4.2Z"/><path class="cls-7" d="M11.64,550.54c2.71,0,2.71-4.2,0-4.2s-2.7,4.2,0,4.2Z"/><path class="cls-7" d="M17,546.49c2.7,0,2.7-4.2,0-4.2s-2.71,4.2,0,4.2Z"/><path class="cls-7" d="M17.45,541.21c2.7,0,2.71-4.2,0-4.2s-2.71,4.2,0,4.2Z"/><path class="cls-5" d="M8.75,566.73c2.7,0,2.7-4.2,0-4.2s-2.71,4.2,0,4.2Z"/><path class="cls-5" d="M14.37,562.8c2.7,0,2.71-4.2,0-4.2s-2.71,4.2,0,4.2Z"/><path class="cls-5" d="M15.76,557.52c2.7,0,2.71-4.2,0-4.2s-2.71,4.2,0,4.2Z"/><path class="cls-7" d="M21.51,572.43c2.7,0,2.7-4.2,0-4.2s-2.71,4.2,0,4.2Z"/><path class="cls-7" d="M21.3,577.93c2.7,0,2.7-4.2,0-4.2s-2.71,4.2,0,4.2Z"/><path class="cls-7" d="M31,577.29c2.7,0,2.7-4.2,0-4.2s-2.71,4.2,0,4.2Z"/><path class="cls-7" d="M31,572.64c2.7,0,2.7-4.2,0-4.2s-2.71,4.2,0,4.2Z"/><path class="cls-7" d="M36.3,577.72c2.7,0,2.71-4.2,0-4.2s-2.71,4.2,0,4.2Z"/><path class="cls-7" d="M45.17,578.77c2.71,0,2.71-4.2,0-4.2s-2.7,4.2,0,4.2Z"/><path class="cls-7" d="M50.46,571.16c2.7,0,2.7-4.2,0-4.2s-2.71,4.2,0,4.2Z"/><path class="cls-7" d="M50,577.08c2.71,0,2.71-4.2,0-4.2s-2.7,4.2,0,4.2Z"/><path class="cls-7" d="M59.54,576.24c2.71,0,2.71-4.2,0-4.2s-2.7,4.2,0,4.2Z"/><path class="cls-7" d="M59.54,571.8c2.71,0,2.71-4.2,0-4.2s-2.7,4.2,0,4.2Z"/><path class="cls-7" d="M64.19,577.08c2.7,0,2.71-4.2,0-4.2s-2.71,4.2,0,4.2Z"/><path class="cls-7" d="M72.43,578.14c2.71,0,2.71-4.2,0-4.2s-2.7,4.2,0,4.2Z"/><path class="cls-7" d="M77.93,571.16c2.7,0,2.7-4.2,0-4.2s-2.71,4.2,0,4.2Z"/><path class="cls-7" d="M77.93,576.66c2.7,0,2.7-4.2,0-4.2s-2.71,4.2,0,4.2Z"/><path class="cls-7" d="M87.65,576.45c2.7,0,2.7-4.2,0-4.2s-2.71,4.2,0,4.2Z"/><path class="cls-7" d="M87.44,571.16c2.7,0,2.7-4.2,0-4.2s-2.71,4.2,0,4.2Z"/><path class="cls-7" d="M94.83,545c2.7,0,2.71-4.2,0-4.2s-2.7,4.2,0,4.2Z"/><path class="cls-7" d="M94.41,550.88c2.7,0,2.71-4.2,0-4.2s-2.71,4.2,0,4.2Z"/><path class="cls-7" d="M99.27,554.89c2.7,0,2.71-4.2,0-4.2s-2.71,4.2,0,4.2Z"/><path class="cls-7" d="M104.13,550.24c2.7,0,2.71-4.2,0-4.2s-2.71,4.2,0,4.2Z"/><path class="cls-7" d="M104.34,545.17c2.7,0,2.71-4.2,0-4.2s-2.71,4.2,0,4.2Z"/><path class="cls-7" d="M109.62,538.41c2.71,0,2.71-4.2,0-4.2s-2.7,4.2,0,4.2Z"/><path class="cls-7" d="M109.41,544.54c2.71,0,2.71-4.2,0-4.2s-2.7,4.2,0,4.2Z"/><path class="cls-7" d="M113.22,546.86c2.7,0,2.7-4.2,0-4.2s-2.71,4.2,0,4.2Z"/><path class="cls-7" d="M117.87,543.06c2.7,0,2.7-4.2,0-4.2s-2.71,4.2,0,4.2Z"/><path class="cls-7" d="M118.08,537.78c2.7,0,2.7-4.2,0-4.2s-2.71,4.2,0,4.2Z"/><path class="cls-7" d="M123.15,544.54c2.7,0,2.7-4.2,0-4.2s-2.71,4.2,0,4.2Z"/><path class="cls-7" d="M123.15,549.82c2.7,0,2.7-4.2,0-4.2s-2.71,4.2,0,4.2Z"/><path class="cls-7" d="M126.53,553.41c2.7,0,2.71-4.2,0-4.2s-2.71,4.2,0,4.2Z"/><path class="cls-7" d="M130.54,549.61c2.71,0,2.71-4.2,0-4.2s-2.7,4.2,0,4.2Z"/><path class="cls-7" d="M130.54,544.54c2.71,0,2.71-4.2,0-4.2s-2.7,4.2,0,4.2Z"/><path class="cls-7" d="M136,534.82c2.7,0,2.71-4.2,0-4.2s-2.71,4.2,0,4.2Z"/><path class="cls-7" d="M136.25,539.26c2.7,0,2.71-4.2,0-4.2s-2.71,4.2,0,4.2Z"/><path class="cls-7" d="M139.84,542.64c2.7,0,2.71-4.2,0-4.2s-2.71,4.2,0,4.2Z"/><path class="cls-7" d="M144.07,539.26c2.7,0,2.7-4.2,0-4.2s-2.71,4.2,0,4.2Z"/><path class="cls-7" d="M143.86,534.19c2.7,0,2.7-4.2,0-4.2s-2.71,4.2,0,4.2Z"/><path class="cls-7" d="M149.77,543.06c2.71,0,2.71-4.2,0-4.2s-2.7,4.2,0,4.2Z"/><path class="cls-7" d="M149.77,549c2.71,0,2.71-4.2,0-4.2s-2.7,4.2,0,4.2Z"/><path class="cls-7" d="M154.42,552.36c2.7,0,2.71-4.2,0-4.2s-2.7,4.2,0,4.2Z"/><path class="cls-7" d="M159.07,547.5c2.7,0,2.71-4.2,0-4.2s-2.71,4.2,0,4.2Z"/><path class="cls-7" d="M158.65,542.22c2.7,0,2.71-4.2,0-4.2s-2.71,4.2,0,4.2Z"/><path class="cls-5" d="M20.54,556.65c2.7,0,2.7-4.2,0-4.2s-2.71,4.2,0,4.2Z"/><path class="cls-5" d="M20.41,561.56c2.7,0,2.7-4.2,0-4.2s-2.71,4.2,0,4.2Z"/><path class="cls-5" d="M25.58,566.09c2.7,0,2.71-4.2,0-4.2s-2.7,4.2,0,4.2Z"/><path class="cls-5" d="M30.63,561.69c2.7,0,2.7-4.2,0-4.2s-2.71,4.2,0,4.2Z"/><path class="cls-5" d="M30.5,556.78c2.7,0,2.71-4.2,0-4.2s-2.71,4.2,0,4.2Z"/><path class="cls-5" d="M35.8,563.5c2.7,0,2.71-4.2,0-4.2s-2.7,4.2,0,4.2Z"/><path class="cls-5" d="M35.54,568.55c2.71,0,2.71-4.2,0-4.2s-2.7,4.2,0,4.2Z"/><path class="cls-5" d="M39.81,571.65c2.71,0,2.71-4.2,0-4.2s-2.7,4.2,0,4.2Z"/><path class="cls-5" d="M45,567.64c2.7,0,2.7-4.2,0-4.2s-2.71,4.2,0,4.2Z"/><path class="cls-5" d="M45.38,562.6c2.7,0,2.7-4.2,0-4.2s-2.71,4.2,0,4.2Z"/><path class="cls-5" d="M50.94,555.22c2.7,0,2.71-4.2,0-4.2s-2.71,4.2,0,4.2Z"/><path class="cls-5" d="M50.68,560.14c2.7,0,2.71-4.2,0-4.2s-2.71,4.2,0,4.2Z"/><path class="cls-5" d="M54.43,564.28c2.7,0,2.71-4.2,0-4.2s-2.71,4.2,0,4.2Z"/><path class="cls-5" d="M59.22,560c2.7,0,2.71-4.2,0-4.2s-2.71,4.2,0,4.2Z"/><path class="cls-5" d="M59.48,555.35c2.7,0,2.7-4.2,0-4.2s-2.71,4.2,0,4.2Z"/><path class="cls-5" d="M63.49,563c2.7,0,2.7-4.2,0-4.2s-2.71,4.2,0,4.2Z"/><path class="cls-5" d="M63.49,568.16c2.7,0,2.7-4.2,0-4.2s-2.71,4.2,0,4.2Z"/><path class="cls-5" d="M68.27,570.88c2.71,0,2.71-4.2,0-4.2s-2.7,4.2,0,4.2Z"/><path class="cls-5" d="M73.45,566.61c2.7,0,2.71-4.2,0-4.2s-2.71,4.2,0,4.2Z"/><path class="cls-5" d="M73.45,562.47c2.7,0,2.71-4.2,0-4.2s-2.71,4.2,0,4.2Z"/><path class="cls-5" d="M79.53,554.71c2.7,0,2.71-4.2,0-4.2s-2.71,4.2,0,4.2Z"/><path class="cls-5" d="M79.4,559.23c2.7,0,2.71-4.2,0-4.2s-2.71,4.2,0,4.2Z"/><path class="cls-5" d="M84.19,562.47c2.7,0,2.7-4.2,0-4.2s-2.71,4.2,0,4.2Z"/><path class="cls-5" d="M88.71,559.11c2.71,0,2.71-4.2,0-4.2s-2.7,4.2,0,4.2Z"/><path class="cls-5" d="M88.33,554.32c2.7,0,2.7-4.2,0-4.2s-2.71,4.2,0,4.2Z"/><path class="cls-5" d="M95.05,561.3c2.71,0,2.71-4.2,0-4.2s-2.7,4.2,0,4.2Z"/><path class="cls-5" d="M94.67,566c2.7,0,2.7-4.2,0-4.2s-2.71,4.2,0,4.2Z"/><path class="cls-5" d="M98.29,569.58c2.7,0,2.71-4.2,0-4.2s-2.71,4.2,0,4.2Z"/><path class="cls-5" d="M103.07,565.7c2.71,0,2.71-4.2,0-4.2s-2.7,4.2,0,4.2Z"/><path class="cls-5" d="M103.85,560.53c2.7,0,2.71-4.2,0-4.2s-2.71,4.2,0,4.2Z"/><path class="cls-5" d="M109.28,553.41c2.71,0,2.71-4.2,0-4.2s-2.7,4.2,0,4.2Z"/><path class="cls-5" d="M109.28,558.59c2.71,0,2.71-4.2,0-4.2s-2.7,4.2,0,4.2Z"/><path class="cls-5" d="M112.78,562.34c2.7,0,2.7-4.2,0-4.2s-2.71,4.2,0,4.2Z"/><path class="cls-5" d="M117.31,558.33c2.7,0,2.7-4.2,0-4.2s-2.71,4.2,0,4.2Z"/><path class="cls-5" d="M117.69,553.28c2.71,0,2.71-4.2,0-4.2s-2.7,4.2,0,4.2Z"/><path class="cls-5" d="M135.93,551.47c2.71,0,2.71-4.2,0-4.2s-2.7,4.2,0,4.2Z"/><path class="cls-5" d="M136.06,556.52c2.71,0,2.71-4.2,0-4.2s-2.7,4.2,0,4.2Z"/><path class="cls-5" d="M140.33,559.75c2.71,0,2.71-4.2,0-4.2s-2.7,4.2,0,4.2Z"/><path class="cls-5" d="M144.34,555.48c2.71,0,2.71-4.2,0-4.2s-2.7,4.2,0,4.2Z"/><path class="cls-5" d="M144.21,551c2.71,0,2.71-4.2,0-4.2s-2.7,4.2,0,4.2Z"/><path class="cls-5" d="M149.78,559c2.7,0,2.7-4.2,0-4.2s-2.71,4.2,0,4.2Z"/><path class="cls-5" d="M149.39,564.8c2.7,0,2.71-4.2,0-4.2s-2.71,4.2,0,4.2Z"/><path class="cls-5" d="M154.18,568.81c2.7,0,2.7-4.2,0-4.2s-2.71,4.2,0,4.2Z"/><path class="cls-5" d="M159.09,564c2.7,0,2.71-4.2,0-4.2s-2.7,4.2,0,4.2Z"/><path class="cls-5" d="M159.61,558.59c2.7,0,2.71-4.2,0-4.2s-2.71,4.2,0,4.2Z"/><path class="cls-5" d="M165,368c-8.52,1.74-18.11,4.88-28,8a176.66,176.66,0,0,0-19.61,7.06,70,70,0,0,0,14.8,5.6C142.35,391,153,394.5,175,391,175,391,164.72,381.83,165,368Z"/><path class="cls-5" d="M416,374a65.39,65.39,0,0,1-36.21,7s1.76-12.3-2-20.15C377.77,360.85,406.88,369.05,416,374Z"/><path class="cls-8" d="M378.57,196.47c-.05.65-.07,1.33-.07,2,0,17-6.42,17.48-6.42,17.48,1.64-11.67,2.5-21.24,1.42-24.48-3-9-2-27-12-47-8.33-16.67-8.33-29.86-8.1-33.8a2.36,2.36,0,0,0-.9-2c-4.59-3.64-23.28-19.07-18-25.22.34-.92,4.17-4.25,8.27-9.35l1.73.35s41,8,42,40-4,28,0,47C390.33,179.71,379.47,181.39,378.57,196.47Z"/><path class="cls-9" d="M385.5,200.5c1.05,1.74,1,3.44,1,6a26.38,26.38,0,0,1-2,9.39c-.91,2.4-1.21,2.43-2.8,6.19-.67,1.6-1.41,3.49-2.2,5.76-1.05,3-3.95,8.38-12,18.66l-.34-.09c1.74-10,3.59-20.92,4.92-30.43,0,0,6.42-.48,6.42-17.48,0-.7,0-1.38.07-2C379.58,196.61,383.56,197.27,385.5,200.5Z"/><path class="cls-10" d="M373.5,191.5c1.08,3.24.22,12.81-1.42,24.48-1.33,9.51-3.18,20.41-4.92,30.43-2.06,11.89-4,22.53-4.66,28.09-1.24,9.91-7.47,20.59-20.12,33a.68.68,0,0,0-.24.24c-7.73,7.55-17.84,15.73-30.64,24.77-34,24-65,7-65,7-22.82-11.6-37.8-24-47.56-35.37-16.34-19-18.07-34.87-17.44-38.63.3-1.81-.58-9.36-2-19-1.33-9.29-3.11-20.54-4.75-30.5-2.3-14-4.29-25.48-4.29-25.48s-5.17-65,18-66c24-1,28-4,34-8,.48-.32,6.67-6.53,7-7,4.61-6.48,9.39-9.41,29-10C284.49,98.72,307,60,308,73s26.5,10.5,26.5,10.5c-5.28,6.15,13.41,21.58,18,25.22a2.36,2.36,0,0,1,.9,2c-.23,3.94-.23,17.13,8.1,33.8C371.5,164.5,370.5,182.5,373.5,191.5Z"/><path class="cls-8" d="M167.39,196.52c-2.89-10.12-7-23.08-8.89-28-3-8,3-19,2-23s-1-9,0-11c.84-1.64,1.23-8.75,0-8-5.47,3.33-30.05-1.22-28-8,2-6,5-9,7-12s-6,2-2-6,6-13,12-16-13,2-2-8-6-2,2-10c11.42-11.42-1-3,6-10s-5-4,8-10,25-24,46-26,0-9,27-8c14.59.54,9-4.47,11.41-9,3-5.78,25.34,15,40.09-.47,3.35-3.51,57,1.87,64.5,40.5,2.44,12.59-3.91,23.41-9.73,30.65-4.1,5.1-7.93,8.43-8.27,9.35,0,0-25.5,2.5-26.5-10.5s-23.51,25.72-49.5,26.5c-19.61.59-24.39,3.52-29,10-.33.47-6.52,6.68-7,7-6,4-10,7-34,8-23.17,1-18,66-18,66s2,11.48,4.29,25.48c0,0-4.29-2.48-4.29-6.48C170.5,208,169.18,202.79,167.39,196.52Z"/><path class="cls-11" d="M339.59,355.5c1.33,10.93,4.39,19.21,10.35,18.51,2.8,17.12-4.89,40-51.44,40.49-80.8.84-122.92-39.61-98.29-46.91l.29-.09c.46-7,.63-14.12.6-21-.06-22.7-2.16-42.37-2.16-42.37,9.76,11.34,24.74,23.77,47.56,35.37,0,0,31,17,65-7,12.8-9,22.91-17.22,30.64-24.77-1.36,2-3.05,14.46-3.34,28.08A145.26,145.26,0,0,0,339.59,355.5Z"/><path class="cls-9" d="M179.54,246.48l-.23,0c-8.05-10.28-10.95-15.63-12-18.66-.79-2.26-1.53-4.16-2.2-5.76-1.59-3.76-1.89-3.79-2.8-6.18a26.5,26.5,0,0,1-2-9.4c0-2.56-.05-4.26,1-6a8.55,8.55,0,0,1,6.08-4c1.79,6.27,3.11,11.45,3.11,13,0,4,4.29,6.48,4.29,6.48C176.43,225.94,178.21,237.19,179.54,246.48Z"/></g></svg>