<svg xmlns="http://www.w3.org/2000/svg" viewBox="0 0 293.2 344.29"><defs><style>.cls-1,.cls-2,.cls-3{fill:#333;}.cls-1,.cls-2,.cls-4{stroke:#fff;}.cls-1{stroke-width:14.4px;}.cls-2,.cls-4{stroke-width:7.2px;}.cls-4{fill:#fff;}</style></defs><title>Recurso 1</title><g id="Capa_2" data-name="Capa 2"><g id="Capa_1-2" data-name="Capa 1"><g id="b"><ellipse class="cls-1" cx="146.6" cy="110.69" rx="91" ry="84"/><rect class="cls-1" x="55.6" y="89.69" width="182" height="182" rx="22"/></g><g id="a"><path class="cls-2" d="M87,4.42h0a6.49,6.49,0,0,0-2.54,8.83L119.83,77.1a6.5,6.5,0,0,0,8.84,2.53h0a6.49,6.49,0,0,0,2.53-8.83L95.81,7A6.49,6.49,0,0,0,87,4.42Z"/><path id="c" class="cls-2" d="M265.6,110.69h0a24,24,0,0,0-24,24v85a24,24,0,0,0,24,24h0a24,24,0,0,0,24-24v-85A24,24,0,0,0,265.6,110.69Z"/><path class="cls-2" d="M180.6,207.69h0a24,24,0,0,0-24,24v85a24,24,0,0,0,24,24h0a24,24,0,0,0,24-24v-85A24,24,0,0,0,180.6,207.69Z"/></g><path class="cls-2" d="M206.22,4.42h0a6.49,6.49,0,0,1,2.54,8.83L173.37,77.1a6.5,6.5,0,0,1-8.84,2.53h0A6.49,6.49,0,0,1,162,70.8L197.39,7A6.49,6.49,0,0,1,206.22,4.42Z"/><path class="cls-2" d="M27.6,110.69h0a24,24,0,0,1,24,24v85a24,24,0,0,1-24,24h0a24,24,0,0,1-24-24v-85A24,24,0,0,1,27.6,110.69Z"/><path class="cls-2" d="M112.6,207.69h0a24,24,0,0,1,24,24v85a24,24,0,0,1-24,24h0a24,24,0,0,1-24-24v-85A24,24,0,0,1,112.6,207.69Z"/><ellipse class="cls-3" cx="146.6" cy="110.69" rx="91" ry="84"/><rect class="cls-3" x="55.6" y="89.69" width="182" height="182" rx="22"/><path class="cls-4" d="M51.6,114.19h190"/><circle class="cls-4" cx="104.6" cy="69.69" r="4"/><circle class="cls-4" cx="188.6" cy="69.69" r="4"/></g></g></svg>