<?xml version="1.0" encoding="utf-8"?>
<!-- Generator: Adobe Illustrator 22.1.0, SVG Export Plug-In . SVG Version: 6.00 Build 0)  -->
<svg version="1.1" id="Capa_1" xmlns="http://www.w3.org/2000/svg" xmlns:xlink="http://www.w3.org/1999/xlink" x="0px" y="0px"
	 viewBox="0 0 312.6 312.6" style="enable-background:new 0 0 312.6 312.6;" xml:space="preserve">
<style type="text/css">
	.st0{enable-background:new    ;}
	.st1{fill:#333333;}
</style>
<g class="st0">
	<path class="st1" d="M1.8,153c0-46.4,35.3-77.9,76.8-77.9c44.7,0,64.4,28.8,69.3,50.2l-31.3,9.9c-2.3-10.3-11.8-27.7-38-27.7
		c-19.9,0-42.4,14.3-42.4,45.5c0,27.9,20.6,44.1,42.8,44.1c25.8,0,36.1-17.2,39-27.9l31.7,9c-4.8,20.6-24.6,52.1-70.7,52.1
		C36.2,230.3,1.8,199.4,1.8,153z"/>
</g>
<g class="st0">
	<path class="st1" d="M169.6,124.3h29.8l6.8-31.4h23.6l-6.8,31.4h26l6.8-31.4h23.8l-6.8,31.4h25.4V146h-30l-5.8,26.9h25.2v21.9h-30
		l-6.8,32.3H227l6.8-32.3h-26.1l-6.8,32.3h-23.6l6.8-32.3h-24.8v-21.9H189l5.8-26.9h-25.2V124.3z M212.6,172.9h26.1l5.8-26.9h-26.1
		L212.6,172.9z"/>
</g>
</svg>
