<?xml version="1.0" encoding="utf-8"?>
<!-- Generator: Adobe Illustrator 22.1.0, SVG Export Plug-In . SVG Version: 6.00 Build 0)  -->
<svg version="1.1" id="Capa_1" xmlns="http://www.w3.org/2000/svg" xmlns:xlink="http://www.w3.org/1999/xlink" x="0px" y="0px"
	 viewBox="0 0 30 30" style="enable-background:new 0 0 30 30;" xml:space="preserve">
<style type="text/css">
	.st0{fill:#1C2E38;}
</style>
<path class="st0" d="M25.4,3.3C25.2,3.1,25,3,24.7,3H5.3C5,3,4.8,3.1,4.6,3.3S4.3,3.8,4.3,4.1l2.2,19.8c0,0.4,0.3,0.7,0.7,0.9
	l7.5,2.1c0.1,0,0.2,0,0.3,0s0.2,0,0.3,0l7.5-2.1c0.4-0.1,0.7-0.4,0.7-0.9l2.2-19.8C25.7,3.8,25.6,3.5,25.4,3.3z M20.5,13.1l-0.4,7.3
	L15,22l-5-1.6l-0.2-3.5h2.6l0.1,1.6l2.6,0.9l2.6-0.9l0.2-2.9h-5.6l-0.1-2.5H18l0.2-2.5H9.4L9.2,8h11.7L20.5,13.1z"/>
</svg>
