<?xml version="1.0" encoding="utf-8"?>
<!-- Generator: Adobe Illustrator 22.1.0, SVG Export Plug-In . SVG Version: 6.00 Build 0)  -->
<svg version="1.1" id="Capa_1" xmlns="http://www.w3.org/2000/svg" xmlns:xlink="http://www.w3.org/1999/xlink" x="0px" y="0px"
	 viewBox="0 0 30 30" style="enable-background:new 0 0 30 30;" xml:space="preserve">
<style type="text/css">
	.st0{fill:#333333;}
</style>
<g id="XMLID_1_">
	<g>
		<path class="st0" d="M25.7,4.1l-2.2,19.8c0,0.5-0.3,0.8-0.7,0.9l-7.5,2.1c-0.1,0-0.2,0-0.3,0s-0.2,0-0.3,0l-7.5-2.1
			c-0.4-0.2-0.7-0.5-0.7-0.9L4.3,4.1c0-0.3,0.1-0.6,0.3-0.8C4.8,3.1,5,3,5.3,3h19.4c0.3,0,0.5,0.1,0.7,0.3
			C25.6,3.5,25.7,3.8,25.7,4.1z M20.6,10.4L20.9,8H9.2l0.6,7.4h8.1l-0.3,3.2L15,19.2l-2.6-0.6l-0.1-1.2H10l0.3,3.1L15,22l4.8-1.6
			l0.6-7.5h-8.5l-0.2-2.5H20.6z"/>
	</g>
</g>
</svg>
