<?xml version="1.0" encoding="utf-8"?>
<!-- Generator: Adobe Illustrator 22.1.0, SVG Export Plug-In . SVG Version: 6.00 Build 0)  -->
<svg version="1.1" id="Capa_1" xmlns="http://www.w3.org/2000/svg" xmlns:xlink="http://www.w3.org/1999/xlink" x="0px" y="0px"
	 viewBox="0 0 512 512" style="enable-background:new 0 0 512 512;" xml:space="preserve">
<style type="text/css">
	.st0{display:none;fill:#9b4d48;}
	.st1{fill:#9b4d48;}
	.st2{display:none;fill:#9b4d48;}
</style>
<path class="st0" d="M512,256c0,33.4-6.4,65.2-18,94.4c-6.2,15.6-13.9,30.5-22.9,44.5c-11.2,17.4-24.5,33.3-39.5,47.4
	c-8.8,8.3-18.1,15.9-28,22.9C361.8,494.7,310.9,512,256,512s-105.8-17.3-147.5-46.7C96.1,456.5,84.6,446.7,74,436
	C28.2,389.8,0,326.2,0,256S28.2,122.2,74,76c11.2-11.4,23.5-21.7,36.7-30.8C152,16.7,202,0,256,0s104,16.7,145.3,45.2
	c10.1,6.9,19.6,14.6,28.6,22.9c15.7,14.5,29.5,31,41.2,49c9,13.9,16.7,28.8,22.9,44.4C505.6,190.8,512,222.6,512,256z"/>
<g>
	<path class="st1" d="M363,233c-7.1-20.7-36.3-20.7-42-3.6s13.5,27.1,43.5,37.1c29.9,10,48.5,36.3,44.9,59.9s-13.5,54.2-72.7,54.2
		c-37,0-57.5-23.1-67.7-40.4l33.5-20.1c0,0,11.4,24.2,32.8,24.2s29.9-7.1,29.9-23.5c0-20-69.1-27.1-79.8-61.3s3.6-82.7,53.4-79.1
		c31.2,2.2,48.7,17.5,57.5,28.7L363,233z"/>
	<path class="st1" d="M207.7,183.8c0,0,0,120.4,0,136.8s-14.3,24.9-28.5,22.1c-14.3-2.9-20.7-20-20.7-20l-32.8,22.1
		c0,0,7.1,32.8,52,35.6c44.9,2.9,70.5-24.2,70.5-47s0-149.6,0-149.6L207.7,183.8L207.7,183.8z"/>
	<path class="st1" d="M46,45.2v420c18.9,0,18.9,0,34.5,0l385.5-0.5c-14,0-22.9-36.5-22.9-22.4H68.9V68.1h374.2v374.2
		c0,10,4.3,22.4,22.9,22.4V45.2H46z"/>
</g>
<ellipse class="st2" cx="87.9" cy="339.1" rx="40.6" ry="40.6"/>
</svg>
