<?xml version="1.0" encoding="utf-8"?>
<!-- Generator: Adobe Illustrator 22.1.0, SVG Export Plug-In . SVG Version: 6.00 Build 0)  -->
<svg version="1.1" id="Capa_1" xmlns="http://www.w3.org/2000/svg" xmlns:xlink="http://www.w3.org/1999/xlink" x="0px" y="0px"
	 viewBox="0 0 480 480" style="enable-background:new 0 0 480 480;" xml:space="preserve">
<style type="text/css">
	.st0{fill:#7e423f;}
	.st1{fill:#9b4d48;}
	.st2{fill:#CCCCCC;}
	.st3{fill:#702925;}
</style>
<g id="surface1">
	<path class="st0" d="M172,191.2l-49,27.2c-1.8,1-3,2.9-3,4.9v54.3c0,2,1.1,3.9,3,4.9l49.1,27.2c1.8,1,4.1,1,5.9,0l49.1-27.2
		c1.8-1,3-2.9,3-4.9v-54.3c0-2-1.1-3.9-3-4.9L178,191.2c-0.9-0.5-2-0.7-3-0.7S173,190.7,172,191.2"/>
	<path class="st1" d="M424.5,240.1l-8.2,4.5c-0.3,0.2-0.5,0.5-0.5,0.8v9.1c0,0.4,0.2,0.7,0.5,0.8l8.2,4.5c0.3,0.2,0.7,0.2,1,0
		l8.2-4.5c0.3-0.2,0.5-0.5,0.5-0.8v-9.1c0-0.4-0.2-0.7-0.5-0.8l-8.2-4.5c-0.2-0.1-0.4-0.1-0.5-0.1S424.6,240,424.5,240.1"/>
	<path class="st2" d="M357.5,133.6l-23.9-13.3c-0.8-0.4-1.7-0.4-2.4,0c-0.7,0.4-1.2,1.2-1.2,2.1V203l-22-12.2c-0.9-0.5-2-0.7-3-0.7
		s-2,0.2-3,0.7l-49,27.1c-1.8,1-3,2.9-3,4.9v54.3c0,2,1.1,3.9,3,4.9l49.1,27.2c1.8,1,4.1,1,5.9,0l49.1-27.2c1.8-1,3-2.9,3-4.9V137.9
		C360,136.1,359,134.5,357.5,133.6z M328.7,264.6l-22.3,12.3c-0.8,0.5-1.9,0.5-2.7,0l-22.3-12.3c-0.9-0.5-1.4-1.3-1.4-2.2v-24.7
		c0-0.9,0.5-1.8,1.4-2.3l22.3-12.3l0,0c0.4-0.2,0.9-0.3,1.4-0.3s0.9,0.1,1.4,0.3l22.3,12.3c0.9,0.5,1.4,1.3,1.4,2.3v24.7
		C330,263.2,329.5,264.1,328.7,264.6z"/>
	<path class="st3" d="M172,191.2l-52,86.4c0,2,1.1,3.9,3,4.9l49.1,27.2c1.8,1,4.1,1,5.9,0l52-86.4c0-2-1.1-3.9-3-4.9l-49-27.2
		c-0.9-0.5-2-0.7-3-0.7S173,190.7,172,191.2"/>
	<path class="st1" d="M172,191.2l-49,27.2c-1.8,1-3,2.9-3,4.9l52,86.4c1.8,1,4.1,1,5.9,0l49.1-27.2c1.8-1,3-2.9,3-4.9l-52-86.4
		c-0.9-0.5-2-0.7-3-0.7S173,190.7,172,191.2"/>
	<path class="st2" d="M477,217.9l-49-27.2c-0.9-0.5-2-0.7-3-0.7s-2,0.2-3,0.7l-49,27.2c-1.8,1-3,3-3,5V277c0,2.1,1.1,4,3,5
		l49.1,27.2c1.9,1,4.1,1,5.9,0l22.7-12.5c2.1-1.1,2-4.1,0-5.3l-49.2-26.8c-0.9-0.5-1.4-1.4-1.4-2.3v-24.6c0-0.9,0.5-1.8,1.3-2.2
		l22.3-12.3c0.4-0.2,0.9-0.4,1.4-0.4s0.9,0.1,1.3,0.4l22.3,12.4c0.8,0.4,1.3,1.3,1.3,2.2v20.1c0,0.9,0.5,1.7,1.2,2.1s1.6,0.4,2.4,0
		l24-13.9c1.4-0.9,2.4-2.5,2.4-4.2V223C480,220.9,478.9,218.9,477,217.9z"/>
	<path class="st2" d="M107,217.9l-49-27.2c-0.9-0.5-2-0.7-3-0.7s-2,0.2-3,0.7L3,217.9c-1.8,1-3,3-3,5v74.6c0,0.9,0.5,1.7,1.2,2.1
		s1.7,0.4,2.4,0l24-13.9c1.5-0.9,2.4-2.5,2.4-4.2v-43.9c0-0.9,0.5-1.8,1.3-2.2l22.3-12.3c0.4-0.2,0.9-0.4,1.4-0.4s0.9,0.1,1.4,0.4
		l22.3,12.3c0.8,0.5,1.3,1.3,1.3,2.2v43.9c0,1.7,0.9,3.3,2.4,4.2l24,13.9c0.8,0.4,1.7,0.4,2.4,0c0.7-0.4,1.2-1.2,1.2-2.1V223
		C110,220.9,108.9,218.9,107,217.9z"/>
</g>
</svg>
