<?xml version="1.0" encoding="utf-8"?>
<!-- Generator: Adobe Illustrator 22.1.0, SVG Export Plug-In . SVG Version: 6.00 Build 0)  -->
<svg version="1.1" id="Capa_1" xmlns="http://www.w3.org/2000/svg" xmlns:xlink="http://www.w3.org/1999/xlink" x="0px" y="0px"
	 viewBox="0 0 48 48" style="enable-background:new 0 0 48 48;" xml:space="preserve">
<style type="text/css">
	.st0{fill:#CCCCCC;}
	.st1{fill:#9b4d48;}
</style>
<g id="surface1">
	<path class="st0" d="M24,5c-1.6,0-2.6,0.1-3.9,0.4c-3.8,0.6-4.5,2-4.5,4.6v4h9v2H10.9c-2.6,0-4.9,1.2-5.7,4.2
		c-0.8,3.4-0.9,5.6,0,9.1C5.9,32,7.3,34,9.9,34h3.6v-5.1c0-3,2.7-5.9,5.8-5.9h7.2c2.5,0,5-1.9,5-4.4V10c0-2.4-1.8-4.3-4.2-4.7
		C27.4,5.4,25.6,5,24,5z M19.1,9c0.8,0,1.5,0.7,1.5,1.5S19.9,12,19.1,12s-1.5-0.7-1.5-1.5S18.2,9,19.1,9z"/>
	<path class="st1" d="M23.1,43c1.6,0,2.6-0.1,3.9-0.4c3.8-0.7,4.5-2.1,4.5-4.7v-4h-9v-2h13.7c2.6,0,4.9-1.2,5.7-4.2
		c0.8-3.4,0.9-5.6,0-9.1C41.3,16,39.8,14,37.2,14h-3.6v5.1c0,3-2.7,5.9-5.8,5.9h-7.2c-2.5,0-5,1.9-5,4.4V38c0,2.4,1.8,4.3,4.2,4.7
		C19.7,42.6,21.5,43,23.1,43z M28.1,39c-0.8,0-1.5-0.7-1.5-1.5s0.7-1.5,1.5-1.5s1.5,0.7,1.5,1.5S28.9,39,28.1,39z"/>
</g>
</svg>
