<?xml version="1.0" encoding="utf-8"?>
<!-- Generator: Adobe Illustrator 24.0.3, SVG Export Plug-In . SVG Version: 6.00 Build 0)  -->
<svg version="1.1" id="Capa_1" xmlns="http://www.w3.org/2000/svg" xmlns:xlink="http://www.w3.org/1999/xlink" x="0px" y="0px"
	 viewBox="0 0 2960.5 1336.7" style="enable-background:new 0 0 2960.5 1336.7;" xml:space="preserve">
<style type="text/css">
	.st0{fill:#FFFFFF;}
</style>
<title>Recurso 19</title>
<g id="Capa_2_1_">
	<g id="Capa_1-2">
		<path class="st0" d="M811.7,679.4c0,50,33.5,77.8,73.4,77.8c33.2,0,53.4-18.5,62.3-39c1.8-4.3,6.6-6.6,11.1-5.3l67.8,20.7
			c4.9,1.5,7.6,6.7,6.1,11.6c0,0.1,0,0.1-0.1,0.2c-17,51.8-67.8,100.3-147.2,100.3c-93.6,0-168.9-69-168.9-166.4
			c0-98,73.4-167,165.7-167c82,0,131.8,47.6,148.7,100.5c1.5,4.9-1.2,10-6.1,11.5c0,0-0.1,0-0.1,0l-68.9,20.8
			c-4.6,1.3-9.4-1-11.2-5.4c-8.6-20.9-27.3-38.9-60.5-38.9C844,600.9,811.7,628.8,811.7,679.4z"/>
		<path class="st0" d="M1401.9,678.7c0,97.4-72.7,167-167,167c-93.6,0-167-69.6-167-167s73.4-166.4,167-166.4
			C1329.2,512.4,1401.9,581.3,1401.9,678.7z M1305.8,678.7c0-53.1-34.2-77.8-70.8-77.8c-36,0-70.8,24.7-70.8,77.8
			c0,52.5,34.8,78.4,70.8,78.4C1271.6,757.2,1305.8,731.9,1305.8,678.7z"/>
		<path class="st0" d="M1775.1,678.7c0,97.4-72.7,167-167,167c-93.6,0-167-69.6-167-167s73.4-166.4,167-166.4
			C1702.4,512.4,1775.1,581.3,1775.1,678.7z M1679,678.7c0-53.1-34.2-77.8-70.8-77.8c-36,0-70.8,24.7-70.8,77.8
			c0,52.5,34.8,78.4,70.8,78.4C1644.8,757.2,1679,731.9,1679,678.7z"/>
		<path class="st0" d="M1837.1,947.2V531.1c0-5.1,4.1-9.2,9.2-9.2h74.5c5.1,0,9.2,4.1,9.2,9.2l0,0c0,5.1,4.1,9.3,9.2,9.3
			c2.1,0,4.1-0.7,5.8-2c17.4-13.6,44.5-24.1,77.4-24.1c91.1,0,146.1,69.6,146.1,163.8c0,96.1-62,165.1-149.9,165.1
			c-30,0-54.5-7.6-71-18.8c-4.2-2.8-10-1.7-12.8,2.5c-1,1.5-1.6,3.3-1.6,5.1v115.1c0,5.1-4.1,9.2-9.2,9.2l0,0h-77.7
			C1841.3,956.5,1837.1,952.3,1837.1,947.2C1837.1,947.2,1837.1,947.2,1837.1,947.2z M2002.8,601c-37.3,0-70.8,25.3-70.8,77.8
			c0,51.9,33.5,78.4,70.8,78.4c38,0,71.5-25.9,71.5-78.4S2040.8,600.9,2002.8,601L2002.8,601z"/>
		<path class="st0" d="M2507.2,743.2c4.9,1.4,7.8,6.5,6.4,11.4c-0.1,0.2-0.1,0.4-0.2,0.6c-18.1,50.1-66.8,90.5-141.8,90.5
			c-86.7,0-163.8-62-163.8-167.6c0-101.2,75.3-165.7,156.9-165.7c97.4,0,157.5,60.1,157.5,161.3c0,7.5-0.4,15.4-0.9,21.2
			c-0.4,4.8-4.4,8.5-9.2,8.5h-199.9c-5.1,0-9.3,4.2-9.2,9.3c0,0.8,0.1,1.5,0.3,2.3c7.5,29.2,36.6,49.1,69.7,49.1
			c31.3,0,50.3-13.3,60.3-34c1.9-4.1,6.5-6.1,10.9-4.9L2507.2,743.2z M2418.4,641.4c5.1,0,9.3-4.2,9.2-9.3c0-0.8-0.1-1.6-0.3-2.3
			c-5.4-20.9-23.1-41.5-61.5-41.5c-33.7,0-53.4,20.6-60.1,41c-1.6,4.9,1.1,10.1,5.9,11.6c0.9,0.3,1.9,0.5,2.9,0.5H2418.4z"/>
		<path class="st0" d="M2784,605.6c0,5.1-4.1,9.2-9.2,9.2c-0.4,0-0.9,0-1.3-0.1c-6.6-0.9-13.2-1.3-19.8-1.2
			c-38.6,0-73.4,22.8-73.4,85.4v128c0,5.1-4.1,9.2-9.2,9.2h-77.7c-5.1,0-9.2-4.1-9.2-9.2V531.1c0-5.1,4.1-9.2,9.2-9.2h74.5
			c5.1,0,9.2,4.1,9.2,9.2v4.9c0,5.1,4.1,9.2,9.2,9.2c2.4,0,4.6-0.9,6.4-2.5c19.4-18.2,46.9-24,66-24c5.9,0,11.8,0.5,17.6,1.4
			c4.4,0.8,7.7,4.6,7.7,9.1L2784,605.6z"/>
		<path class="st0" d="M359.5,398.6L528.3,902c8.9,26.6-23.7,47.5-44.1,28.2C392,843.1,252.6,662.7,307.5,401.6
			C313.1,374.7,350.7,372.6,359.5,398.6z"/>
		<path class="st0" d="M475.3,635.6L475.3,635.6c14.1,41.9,70.2,49.4,94.7,12.5l0,0c16.3-24.5,9.6-57.5-14.8-73.7
			c-3.7-2.5-7.7-4.4-11.9-5.9l0,0C501.6,553.9,461.2,593.7,475.3,635.6z"/>
		<path class="st0" d="M201.9,576l10.6-3.6c19.4-6.5,40.5,4,47,23.4l69.2,206.4c6.5,19.4-4,40.5-23.4,47l-10.6,3.6
			c-19.4,6.5-40.5-4-47-23.4L178.5,623C172,603.5,182.4,582.5,201.9,576z"/>
	</g>
</g>
</svg>
