<?xml version="1.0" encoding="utf-8"?>
<!-- Generator: Adobe Illustrator 23.0.4, SVG Export Plug-In . SVG Version: 6.00 Build 0)  -->
<svg version="1.1" id="Capa_1" xmlns="http://www.w3.org/2000/svg" xmlns:xlink="http://www.w3.org/1999/xlink" x="0px" y="0px"
	 viewBox="0 0 1856 374" style="enable-background:new 0 0 1856 374;" xml:space="preserve">
<style type="text/css">
	.st0{fill:#333333;}
	.st1{fill:#FFFFFF;}
	.st2{fill:#D791A5;}
</style>
<g id="XMLID_1_">
	<g>
		<g>
			<g>
				<path class="st0" d="M297.5,11.4L367,80.8v88.5l-11.6,11.5c6.3,13.7,24.6,64.2-21.5,110.3c-13.6,13.5-35,20.7-57,20.7
					c-14.9,0-29.9-3.3-42.8-10.1l-62.8,62.6L14,206.7l37.6-37.5v-0.1L163.4,57.7c-76.1-2.2-136,39.6-136.9,40.2
					c-1.1,0.8-2.4,1.2-3.6,1.2c-2,0-3.9-0.9-5.1-2.6c-2-2.8-1.4-6.7,1.4-8.7c1-0.7,70.2-49,156.1-41.8l34.5-34.4h87.7V11.4z
					 M354.5,164.1V86l-62.2-62.1H215l-23.9,23.9c24.6,4,50.2,12.9,75.8,28.9c4.5-5.5,11.2-9,18.9-9c13.6,0,24.6,11,24.6,24.6
					S299.3,117,285.8,117s-24.6-11-24.6-24.6c0-1.4,0.2-2.9,0.4-4.2C234,70.7,206.2,62,180,59L69.3,169.2l139.6,139.9l14.4-14.3
					c-19.4-14.8-41.2-46.2-25-109.8c0.9-3.3,4.2-5.4,7.6-4.5c3.3,0.9,5.4,4.3,4.5,7.6c-11.5,45.1-3.7,79.5,21.9,97.8L354.5,164.1z
					 M325,282.3c37.2-37.2,27.2-76.6,20.9-92.1L243.5,292.5C272.7,305.8,308.9,298.4,325,282.3z M297.9,92.4
					c0-6.7-5.4-12.1-12.1-12.1c-3.3,0-6.2,1.3-8.4,3.4c1.9,1.4,3.9,2.6,5.8,4.1c2.8,2.1,3.3,6,1.2,8.8c-2.1,2.8-6,3.3-8.8,1.2
					c-0.4-0.3-0.7-0.5-1.1-0.7c1.8,4.4,6.1,7.5,11.2,7.5C292.4,104.5,297.9,99,297.9,92.4z M200.1,318.1l-139.7-140l-28.7,28.7
					l139.7,140L200.1,318.1z"/>
				<path class="st1" d="M354.5,86v78.1L232.2,285.9c-25.6-18.3-33.3-52.7-21.9-97.8c0.9-3.3-1.2-6.8-4.5-7.6
					c-3.4-0.9-6.8,1.2-7.6,4.5c-16.2,63.6,5.6,95,25,109.8l-14.4,14.3L69.3,169.2L179.9,58.9c26.3,3,54,11.7,81.6,29.2
					c-0.2,1.4-0.4,2.8-0.4,4.2c0,13.6,11,24.6,24.6,24.6s24.6-11,24.6-24.6s-11.1-24.6-24.6-24.6c-7.6,0-14.3,3.5-18.9,9
					c-25.6-16-51.2-24.9-75.8-28.9l24-23.9h77.3L354.5,86z"/>
				
					<rect x="95.6" y="163.5" transform="matrix(0.7079 -0.7063 0.7063 0.7079 -151.4361 158.4619)" class="st2" width="40.6" height="197.7"/>
			</g>
		</g>
	</g>
</g>
<g>
	<g>
		<g>
			<path class="st2" d="M408.5,273.8V152.2H444v14c6.1-10.8,21.8-17.6,35-17.6c17.4,0,29.9,7.1,36,19.1
				c9.5-13.7,21.3-19.1,37.7-19.1c23,0,45,13.5,45,46.5v78.8h-36v-70.5c0-11.5-6.1-20.6-19.3-20.6s-20.3,10-20.3,20.8v70.2h-36.7
				v-70.5c0-11.5-6.1-20.6-19.6-20.6c-13,0-20.1,10-20.1,21v70h-37.2V273.8z"/>
			<path class="st2" d="M634.2,320.6l27.7-63.2l-51.2-105.2h41.6l29.6,65.1l26.9-65.1h39.4l-74.9,168.4L634.2,320.6L634.2,320.6z"/>
			<path class="st0" d="M962.9,100.3h39.7l-47.2,173.5h-39.9l-37-115l-37.2,115h-40.6l-47.2-173.5h41.1l28.6,111.1l36-111.1h39.7
				l36,111.4L962.9,100.3z"/>
			<path class="st0" d="M1042.7,203.6l28.6-4.4c6.6-1,8.8-4.2,8.8-8.3c0-7.1-6.1-13.2-17.9-13.2c-13,0-20.1,8.8-20.8,17.9l-32.3-6.6
				c1.5-17.4,17.6-40.4,53.4-40.4c39.4,0,53.8,22,53.8,47V255c0,9.5,1.2,17.6,1.5,18.8h-33.5c-0.2-1-1.2-5.4-1.2-13.7
				c-6.4,10.3-18.1,17.1-34.3,17.1c-26.7,0-42.1-17.6-42.1-37C1006.7,218.8,1022.6,206.5,1042.7,203.6z M1080.1,226.1v-5.4l-23,3.7
				c-7.8,1.2-13.7,4.9-13.7,13.5c0,6.4,4.2,12.5,14.4,12.5C1068.9,250.3,1080.1,244.9,1080.1,226.1z"/>
			<path class="st0" d="M1147.7,273.8V96.6h37.2v177.2H1147.7z"/>
			<path class="st0" d="M1217.7,273.8V96.6h37.2v177.2H1217.7z"/>
			<path class="st0" d="M1315.1,203.6l28.6-4.4c6.6-1,8.8-4.2,8.8-8.3c0-7.1-6.1-13.2-17.9-13.2c-13,0-20.1,8.8-20.8,17.9l-32.3-6.6
				c1.5-17.4,17.6-40.4,53.4-40.4c39.4,0,53.8,22,53.8,47V255c0,9.5,1.2,17.6,1.5,18.8h-33.5c-0.2-1-1.2-5.4-1.2-13.7
				c-6.4,10.3-18.1,17.1-34.3,17.1c-26.7,0-42.1-17.6-42.1-37C1279.1,218.8,1295,206.5,1315.1,203.6z M1352.6,226.1v-5.4l-23,3.7
				c-7.8,1.2-13.7,4.9-13.7,13.5c0,6.4,4.2,12.5,14.4,12.5C1341.3,250.3,1352.6,244.9,1352.6,226.1z"/>
			<path class="st0" d="M1420.1,320.3V152.2h36v12.5c5.1-7.8,18.4-15.4,35.7-15.4c35.2,0,56.5,26.9,56.5,63.4
				c0,37.2-24,63.9-58,63.9c-15.7,0-27.4-5.4-33-12.2v56.1h-37.2V320.3z M1484.2,182.8c-14.4,0-27.4,9.8-27.4,30.1
				c0,20.1,13,30.4,27.4,30.4c14.7,0,27.7-10,27.7-30.4C1511.9,192.6,1498.9,182.8,1484.2,182.8z"/>
			<path class="st0" d="M1692.8,212.9c0,37.7-28.1,64.6-64.6,64.6c-36.2,0-64.6-26.9-64.6-64.6s28.4-64.4,64.6-64.4
				C1664.6,148.5,1692.8,175.2,1692.8,212.9z M1655.6,212.9c0-20.6-13.2-30.1-27.4-30.1c-14,0-27.4,9.5-27.4,30.1
				c0,20.3,13.5,30.4,27.4,30.4C1642.3,243.2,1655.6,233.4,1655.6,212.9z"/>
			<path class="st0" d="M1716.7,320.3V152.2h36v12.5c5.1-7.8,18.4-15.4,35.7-15.4c35.2,0,56.5,26.9,56.5,63.4
				c0,37.2-24,63.9-58,63.9c-15.7,0-27.4-5.4-33-12.2v56.1h-37.2V320.3z M1780.9,182.8c-14.4,0-27.4,9.8-27.4,30.1
				c0,20.1,13,30.4,27.4,30.4c14.7,0,27.7-10,27.7-30.4C1808.5,192.6,1795.6,182.8,1780.9,182.8z"/>
		</g>
	</g>
</g>
</svg>
