<?xml version="1.0" encoding="utf-8"?>
<!-- Generator: Adobe Illustrator 23.0.4, SVG Export Plug-In . SVG Version: 6.00 Build 0)  -->
<svg version="1.1" id="Capa_1" xmlns="http://www.w3.org/2000/svg" xmlns:xlink="http://www.w3.org/1999/xlink" x="0px" y="0px"
	 viewBox="0 0 630.4 529.8" style="enable-background:new 0 0 630.4 529.8;" xml:space="preserve">
<style type="text/css">
	.st0{fill:#D791A5;}
	.st1{fill:#EBD36D;}
	.st2{fill:#80B9BC;}
	.st3{fill:#E2CB6A;}
	.st4{fill:#BC8F6F;}
	.st5{fill:#CB9E78;}
	.st6{fill:#AAAAAA;}
</style>
<path class="st0" d="M52.8,353.6c-6.6,11.5-21.3,15.4-32.8,8.8s-15.4-21.3-8.8-32.8c6.6-11.5,21.3-15.4,32.8-8.8
	S59.4,342.2,52.8,353.6z"/>
<path class="st1" d="M141.3,312.4c-6.6,11.5-21.3,15.4-32.8,8.8s-15.4-21.3-8.8-32.8c6.6-11.5,21.3-15.4,32.8-8.8
	C144,286.2,147.9,300.9,141.3,312.4z"/>
<path class="st2" d="M132.8,215.1c-6.6,11.5-21.3,15.4-32.8,8.8s-15.4-21.3-8.8-32.8c6.6-11.5,21.3-15.4,32.8-8.8
	S139.4,203.6,132.8,215.1z"/>
<path class="st2" d="M621,201.4c-6.6,11.5-21.3,15.4-32.8,8.8s-15.4-21.3-8.8-32.8s21.3-15.4,32.8-8.8S627.7,189.9,621,201.4z"/>
<path class="st1" d="M541,339.9c-6.6,11.5-21.3,15.4-32.8,8.8c-11.5-6.6-15.4-21.3-8.8-32.8c6.6-11.5,21.3-15.4,32.8-8.8
	S547.7,328.5,541,339.9z"/>
<path class="st0" d="M532.5,242.7c-6.6,11.5-21.3,15.4-32.8,8.8c-11.5-6.6-15.4-21.3-8.8-32.8c6.6-11.5,21.3-15.4,32.8-8.8
	S539.2,231.2,532.5,242.7z"/>
<path class="st3" d="M132.9,359.7c0.7-1.6,1.3-3.2,2.2-4.7c6.8-11.9,17.7-19.5,28.5-21.6c0.1-7.5,2.1-15.5,6.4-22.9
	c7.8-13.5,20.7-21.4,33-22c-1.5-9.2,0.4-19.8,6-29.5c10-17.3,28.3-25.6,43-20.6c0.9-5.3,2.8-10.7,5.7-15.9
	c11-19.1,32.4-27.5,47.7-18.6c2.8,1.6,5,3.8,7,6.1c1-3.1,2.3-6.1,4-9.1c11-19.1,32.4-27.5,47.7-18.6c2.8,1.6,5,3.8,7,6.1
	c1-3.1,2.3-6.1,4-9.1c11-19.1,32.4-27.5,47.7-18.6c8.4-14.5,22.7-22.8,35.8-22.1c0.7-6.1,2.6-12.4,6-18.4
	c11-19.1,32.4-27.5,47.7-18.6c15.3,8.8,18.8,31.5,7.7,50.6c-8.4,14.5-22.7,22.8-35.8,22.1c-0.7,6.1-2.6,12.4-6,18.4
	c-11,19.1-32.4,27.5-47.7,18.6c-11,19.1-32.4,27.5-47.7,18.6c-2.8-1.6-5-3.8-7-6.1c-1,3.1-2.3,6.1-4,9.1
	c-11,19.1-32.4,27.5-47.7,18.6c-2.8-1.6-5-3.8-7-6.1c-1,3.1-2.3,6.1-4,9.1c-10,17.3-28.3,25.6-43,20.6c-0.9,5.3-2.8,10.7-5.7,15.9
	c-7.8,13.5-20.7,21.4-33,22c1.5,9.2-0.4,19.8-6,29.5c-6.8,11.9-17.7,19.5-28.5,21.6c-0.1,7.5-2.1,15.5-6.4,22.9
	c-5.2,9-12.7,15.5-20.7,19c-0.7,1.6-1.3,3.2-2.2,4.7c-11,19.1-32.4,27.5-47.7,18.6s-18.8-31.5-7.7-50.6
	C117.4,369.7,124.9,363.2,132.9,359.7z"/>
<path class="st4" d="M252,238.5c0.9-5.3,2.8-10.7,5.7-15.9c11-19.1,32.4-27.5,47.7-18.6c2.8,1.6,5,3.8,7,6.1c1-3.1,2.3-6.1,4-9.1
	c11-19.1,32.4-27.5,47.7-18.6c2.8,1.6,5,3.8,7,6.1c1-3.1,2.3-6.1,4-9.1c4.7-8.1,11.3-14.2,18.4-17.9l0.5,1.1l36.5,48.8
	c-11,19.1-32.4,27.5-47.7,18.6c-2.8-1.6-5-3.8-7-6.1c-1,3.1-2.3,6.1-4,9.1c-11,19.1-32.4,27.5-47.7,18.6c-2.8-1.6-5-3.8-7-6.1
	c-1,3.1-2.3,6.1-4,9.1c-10,17.3-28.3,25.6-43,20.6c-0.9,5.3-2.8,10.7-5.7,15.9c-1.3,2.3-2.9,4.4-4.5,6.4l-46.4-44.9
	C223.9,239.8,239.3,234.1,252,238.5z"/>
<path class="st1" d="M326.2,471.3c1-1.4,2.1-2.7,2.9-4.3c6.8-11.9,8.1-25.1,4.4-35.5c6.5-3.8,12.3-9.5,16.6-17
	c7.8-13.5,8.2-28.6,2.5-39.5c8.7-3.3,16.9-10.2,22.5-19.9c10-17.3,8-37.3-3.7-47.6c4.2-3.5,7.9-7.8,10.9-12.9
	c11-19.1,7.6-41.8-7.7-50.6c-2.8-1.6-5.7-2.4-8.8-3c2.1-2.4,4.2-5,5.9-8c11-19.1,7.6-41.8-7.7-50.6c-2.8-1.6-5.7-2.4-8.8-3
	c2.1-2.4,4.2-5,5.9-8c11-19.1,7.6-41.8-7.7-50.6c8.4-14.5,8.4-31.1,1.2-42.1c5-3.7,9.5-8.5,12.9-14.4c11-19.1,7.6-41.8-7.7-50.6
	s-36.7-0.5-47.7,18.6c-8.4,14.5-8.4,31.1-1.2,42.1c-5,3.7-9.5,8.5-12.9,14.4c-11,19.1-7.6,41.8,7.7,50.6c-11,19.1-7.6,41.8,7.7,50.6
	c2.8,1.6,5.7,2.4,8.8,3c-2.1,2.4-4.2,5-5.9,8c-11,19.1-7.6,41.8,7.7,50.6c2.8,1.6,5.7,2.4,8.8,3c-2.1,2.4-4.2,5-5.9,8
	c-10,17.3-8,37.3,3.7,47.6c-4.2,3.5-7.9,7.8-10.9,12.9c-7.8,13.5-8.2,28.6-2.5,39.5c-8.7,3.3-16.9,10.2-22.5,19.9
	c-6.8,11.9-8.1,25.1-4.4,35.5c-6.5,3.8-12.3,9.5-16.6,17c-5.2,9-7.1,18.7-6.1,27.4c-1,1.4-2.1,2.7-2.9,4.3
	c-11,19.1-7.6,41.8,7.7,50.6s36.7,0.5,47.7-18.6C325.2,489.7,327.1,480,326.2,471.3z"/>
<path class="st5" d="M371.6,307.5c4.2-3.5,7.9-7.8,10.9-12.9c11-19.1,7.6-41.8-7.7-50.6c-2.8-1.6-5.7-2.4-8.8-3c2.1-2.4,4.2-5,5.9-8
	c11-19.1,7.6-41.8-7.7-50.6c-2.8-1.6-5.7-2.4-8.8-3c2.1-2.4,4.2-5,5.9-8c4.7-8.1,6.6-16.9,6.3-24.9l-1.2,0.1l-60.5-7.2
	c-11,19.1-7.6,41.8,7.7,50.6c2.8,1.6,5.7,2.4,8.8,3c-2.1,2.4-4.2,5-5.9,8c-11,19.1-7.6,41.8,7.7,50.6c2.8,1.6,5.7,2.4,8.8,3
	c-2.1,2.4-4.2,5-5.9,8c-10,17.3-8,37.3,3.7,47.6c-4.2,3.5-7.9,7.8-10.9,12.9c-1.3,2.3-2.4,4.7-3.3,7.1l62.1,17.8
	C384.5,332.6,381.7,316.4,371.6,307.5z"/>
<g>
	<path class="st6" d="M187.4,200.4l-13.9-8l6.5-11.2c12.8-22.2,16.2-48.1,9.6-72.8l-1.1-4.2c-7.7-28.9-3.8-59.1,11.2-85L206.1,8
		l13.9,8l-6.5,11.2c-12.8,22.2-16.2,48.1-9.6,72.8l1.1,4.2c7.7,28.9,3.8,59.1-11.2,85L187.4,200.4z"/>
	<path class="st6" d="M132,168.4l-13.9-8l6.5-11.2c15-25.9,39.1-44.4,68-52.2l4.2-1.1c24.8-6.6,45.5-22.5,58.3-44.7l6.5-11.2l13.9,8
		L269,59.2c-15,25.9-39.1,44.4-68,52.2l-4.2,1.1c-24.8,6.6-45.5,22.5-58.3,44.7L132,168.4z"/>
	<path class="st6" d="M200,50.7l41.6,24l-8,13.9l-41.6-24L200,50.7z"/>
	<path class="st6" d="M160,119.9l41.6,24l-8,13.9l-41.6-24L160,119.9z"/>
	<path class="st6" d="M426.1,523l-13.9-8l6.5-11.2c12.8-22.2,16.2-48.1,9.6-72.8l-1.1-4.2c-7.7-28.9-3.8-59.1,11.2-85l6.5-11.2
		l13.9,8l-6.5,11.2c-12.8,22.2-16.2,48.1-9.6,72.8l1.1,4.2c7.7,28.9,3.8,59.1-11.2,85L426.1,523z"/>
	<path class="st6" d="M370.7,491l-13.9-8l6.5-11.2c15-25.9,39.1-44.4,68-52.2l4.2-1.1c24.8-6.6,45.5-22.5,58.3-44.7l6.5-11.2l13.9,8
		l-6.5,11.2c-15,25.9-39.1,44.4-68,52.2l-4.2,1.1c-24.8,6.6-45.5,22.5-58.3,44.7L370.7,491z"/>
	<path class="st6" d="M438.7,373.2l41.6,24l-8,13.9l-41.6-24L438.7,373.2z"/>
	<path class="st6" d="M398.7,442.5l41.6,24l-8,13.9l-41.6-24L398.7,442.5z"/>
	<path class="st6" d="M16,369.4c-15.3-8.8-20.5-28.4-11.7-43.7s28.4-20.5,43.7-11.7s20.5,28.4,11.7,43.7S31.3,378.2,16,369.4z
		 M40,327.8c-7.6-4.4-17.4-1.8-21.9,5.9s-1.8,17.4,5.9,21.9s17.4,1.8,21.9-5.9S47.6,332.2,40,327.8z"/>
	<path class="st6" d="M104.5,328.1c-15.3-8.8-20.5-28.4-11.7-43.7s28.4-20.5,43.7-11.7s20.5,28.4,11.7,43.7S119.8,336.9,104.5,328.1
		z M128.5,286.5c-7.6-4.4-17.4-1.8-21.9,5.9s-1.8,17.4,5.9,21.9s17.4,1.8,21.9-5.9S136.1,290.9,128.5,286.5z"/>
	<path class="st6" d="M96,230.8c-15.3-8.8-20.5-28.4-11.7-43.7s28.4-20.5,43.7-11.7s20.5,28.4,11.7,43.7S111.3,239.6,96,230.8z
		 M120,189.2c-7.6-4.4-17.4-1.8-21.9,5.9s-1.8,17.4,5.9,21.9s17.4,1.8,21.9-5.9S127.6,193.6,120,189.2z"/>
	<path class="st6" d="M109.9,225.1l16-0.3l0.8,46.6l-16,0.3L109.9,225.1z"/>
	<path class="st6" d="M54.7,321.5l36.8-15.7l6.3,14.7L61,336.2L54.7,321.5z"/>
	<path class="st6" d="M504.3,355.6c-15.3-8.8-20.5-28.4-11.7-43.7s28.4-20.5,43.7-11.7s20.5,28.4,11.7,43.7S519.5,364.5,504.3,355.6
		z M528.3,314.1c-7.6-4.4-17.4-1.8-21.9,5.9s-1.8,17.4,5.9,21.9c7.6,4.4,17.4,1.8,21.9-5.9S535.9,318.5,528.3,314.1z"/>
	<path class="st6" d="M495.8,258.4c-15.3-8.8-20.5-28.4-11.7-43.7s28.4-20.5,43.7-11.7s20.5,28.4,11.7,43.7S511,267.2,495.8,258.4z
		 M519.8,216.8c-7.6-4.4-17.4-1.8-21.9,5.9s-1.8,17.4,5.9,21.9s17.4,1.8,21.9-5.9S527.4,221.2,519.8,216.8z"/>
	<path class="st6" d="M584.3,217.1c-15.3-8.8-20.5-28.4-11.7-43.7s28.4-20.5,43.7-11.7s20.5,28.4,11.7,43.7S599.5,225.9,584.3,217.1
		z M608.3,175.5c-7.6-4.4-17.4-1.8-21.9,5.9s-1.8,17.4,5.9,21.9c7.6,4.4,17.4,1.8,21.9-5.9S615.9,179.9,608.3,175.5z"/>
	<path class="st6" d="M533.7,210.9l40.8-22.6l7.8,14l-40.8,22.6L533.7,210.9z"/>
	<path class="st6" d="M505.7,260.4l15.9-1.9l4.8,39.7l-15.9,1.9L505.7,260.4z"/>
</g>
</svg>
