<svg xmlns="http://www.w3.org/2000/svg" viewBox="0 0 64.05 48.51"><defs><style>.cls-1{fill:none;stroke:#fff;stroke-miterlimit:10;stroke-width:2px;}</style></defs><title>weso</title><g id="Capa_2" data-name="Capa 2"><g id="Capa_1-2" data-name="Capa 1"><path class="cls-1" d="M15.05,8A7,7,0,1,1,8,1,7,7,0,0,1,15.05,8Z"/><path class="cls-1" d="M38.35,22.53a7,7,0,1,1-7-7A7,7,0,0,1,38.35,22.53Z"/><circle class="cls-1" cx="56.02" cy="8.02" r="7.02" transform="translate(-0.03 0.21) rotate(-0.22)"/><circle class="cls-1" cx="56.02" cy="39.51" r="7.02" transform="translate(-0.07 0.11) rotate(-0.11)"/><line class="cls-1" x1="13.81" y1="11.96" x2="25.08" y2="19.37"/><line class="cls-1" x1="50.08" y1="11.65" x2="37.73" y2="19.52"/><line class="cls-1" x1="55.95" y1="15.04" x2="55.95" y2="32.48"/><polyline class="cls-1" points="1.46 33.57 5.78 45.91 8.56 40.2 12.11 45.6 15.35 33.1"/><polyline class="cls-1" points="43.91 33.1 35.88 33.1 35.88 39.43 43.91 39.43 43.91 46.53 35.88 46.53"/><line class="cls-1" x1="29.4" y1="33.1" x2="20.6" y2="33.1"/><line class="cls-1" x1="29.4" y1="39.58" x2="20.6" y2="39.58"/><line class="cls-1" x1="29.4" y1="46.53" x2="20.6" y2="46.53"/></g></g></svg>