<?xml version="1.0" encoding="utf-8"?>
<!-- Generator: Adobe Illustrator 22.1.0, SVG Export Plug-In . SVG Version: 6.00 Build 0)  -->
<svg version="1.1" id="Capa_1" xmlns="http://www.w3.org/2000/svg" xmlns:xlink="http://www.w3.org/1999/xlink" x="0px" y="0px"
	 viewBox="0 0 496 496" style="enable-background:new 0 0 496 496;" xml:space="preserve">
<style type="text/css">
	.st0{fill:#FFFFFF;}
	.st1{fill:#1C2E38;}
</style>
<g id="XMLID_1_">
	<g>
		<path class="st0" d="M433,113v303c0,15.4-13.2,28-29.8,28H130.7c-16.6,0-29.7-12.5-29.7-28V45.2c0-0.4-0.1-0.8-0.1-1.2
			c0-0.3-0.1-0.7-0.2-1c0.6-15,13.8-27,30-27H339v70.8c0,14.3,12.1,26.2,27,26.2H433z"/>
		<path class="st0" d="M355,28.8L421.7,97H366c-6.1,0-11-4.7-11-10.2V28.8z"/>
		<path class="st0" d="M130.7,460h263.4c-3.7,12-15.2,20-28.8,20H92.8C76.2,480,63,467.5,63,452V80c0-12.8,9-23.7,22-27v363
			C85,440.3,105.3,460,130.7,460z"/>
	</g>
	<g>
	</g>
</g>
<g id="XMLID_2_">
	<g>
		<path class="st1" d="M282,211.2v16.4c0,4.4-3.3,8.4-7.7,8.4H142.8c-4.4,0-7.8-4-7.8-8.4v-16.4c0-9.1,3.5-17.8,9.9-24.2
			c6.4-6.4,15.1-10,24.1-10H180v-7.4c-11-8.6-19-22.4-19-37.8v-26.3c0.1-19,11.8-36,29.4-43.1c3.5-2.3,7.7-3.5,11.9-3.5h27
			c18.9,0,34.2,15.2,34.3,34.1c0,2.1-0.9,4.1-2.4,5.6c-1.5,1.5-3.5,2.3-5.7,2.3H254v30.8c0,14.7-6,27.9-17,36.6v8.6h11.1
			c9,0,17.7,3.6,24.1,10C278.5,193.5,282.1,202.2,282,211.2z M266,220v-8.8c0.1-4.8-1.8-9.4-5.2-12.9c-3.4-3.4-8-5.3-12.8-5.3h-16.7
			l-15.4,9.5V220H266z M202.3,85h43.5c-3.1-6.2-9.5-10.1-16.4-10h-27c-2.8,0-5,2.2-5,5S199.6,85,202.3,85z M238,131.8V101h-32.6
			c-9.5,11-20.4,14.5-28.4,15.5v15.3c0,16.9,14,31.2,30.5,31.2S238,148.7,238,131.8z M221,180.5V177c-4.3,1.4-8.8,2-13.3,2
			c-4,0-7.9-0.5-11.7-1.6v3.1l12.1,8L221,180.5z M200,220v-17.6l-14.5-9.4h-16.5c-4.8,0-9.4,1.9-12.8,5.3s-5.3,8.1-5.2,12.9v8.8H200
			z M188,95.4c-2.2-2-4-4.5-5.2-7.3c-2.5,3.6-4.2,7.7-5,12C181.5,99.3,184.9,97.7,188,95.4z"/>
	</g>
	<g>
	</g>
</g>
<path class="st1" d="M142.8,284h131.5c4.4,0,8-3.6,8-8s-3.6-8-8-8H142.8c-4.4,0-8,3.6-8,8S138.4,284,142.8,284z"/>
<path class="st1" d="M142.8,323h228.9c4.4,0,8-3.6,8-8s-3.6-8-8-8H142.8c-4.4,0-8,3.6-8,8S138.4,323,142.8,323z"/>
<path class="st1" d="M142.8,362h228.9c4.4,0,8-3.6,8-8s-3.6-8-8-8H142.8c-4.4,0-8,3.6-8,8S138.4,362,142.8,362z"/>
<path class="st1" d="M142.8,401h228.9c4.4,0,8-3.6,8-8s-3.6-8-8-8H142.8c-4.4,0-8,3.6-8,8S138.4,401,142.8,401z"/>
</svg>
