<svg xmlns="http://www.w3.org/2000/svg" viewBox="0 0 139.2 234.02">
    <defs>
        <style>.cls-1{fill:none;stroke:#fff;stroke-linecap:round;stroke-miterlimit:10;stroke-width:9px;}</style>
    </defs>
    <title>Recurso 9</title>
    <g id="Capa_2" data-name="Capa 2">
        <g id="Capa_1-2" data-name="Capa 1">
            <path class="cls-1" d="M15.06,113.48s10.56,11.82,29.29-2.72C67.21,93,50.75,90.11,50.52,90.07h0c-.18,0-12.1-1-22.75,13.42a49.18,49.18,0,0,0-9.44,30.35h0c0,.09,1.23,9.93,8.76,10.83S44.36,141,58.82,123.9h0l2.5-2.51a.4.4,0,0,1,.69.26c.15,3.68,1.23,16.78,9,15.06,6.51-1.45,10.93-9.18,12.88-13.34a.5.5,0,0,1,1,.23c-.15,5.26.37,15.4,7.17,10.11,7-5.42,8.47-15.12,9-15s-3,15.24-1,16c1.29.49,2.81-5.12,3-6L125.91,5.22a.19.19,0,0,0-.34-.14c-3.22,5.15-17.22,60.35-29.95,110.49C68.55,222.29,69.52,227.52,72,228.7c11.23,5.33,79.63-57.72,58-78-16-15-55-20-125,6"/>
        </g>
    </g>
</svg>