<svg xmlns="http://www.w3.org/2000/svg" viewBox="0 0 138.2 233.02">
    <defs>
        <style>.cls-1{fill:none;stroke:#333;stroke-linecap:round;stroke-miterlimit:10;stroke-width:9px;}</style>
    </defs>
    <title>Recurso 11</title>
    <g id="Capa_2" data-name="Capa 2">
        <g id="Capa_1-2" data-name="Capa 1">
            <path class="cls-1" d="M14.56,113s10.56,11.82,29.29-2.72C66.71,92.5,50.25,89.61,50,89.57h0c-.18,0-12.1-1-22.75,13.42a49.18,49.18,0,0,0-9.44,30.35h0c0,.09,1.23,9.93,8.76,10.83s17.28-3.72,31.74-20.77h0l2.5-2.51a.4.4,0,0,1,.69.26c.15,3.68,1.23,16.78,9,15.06C77,134.75,81.43,127,83.38,122.86a.5.5,0,0,1,1,.23c-.15,5.26.37,15.4,7.17,10.11,7-5.42,8.47-15.12,9-15s-3,15.24-1,16c1.29.49,2.81-5.12,3-6L125.41,4.72a.19.19,0,0,0-.34-.14c-3.22,5.15-17.22,60.35-29.95,110.49C68.05,221.79,69,227,71.5,228.2c11.23,5.33,79.63-57.72,58-78-16-15-55-20-125,6"/>
        </g>
    </g>
</svg>