<?xml version="1.0" encoding="utf-8"?>
<!-- Generator: Adobe Illustrator 22.1.0, SVG Export Plug-In . SVG Version: 6.00 Build 0)  -->
<svg version="1.1" id="Capa_1" xmlns="http://www.w3.org/2000/svg" xmlns:xlink="http://www.w3.org/1999/xlink" x="0px" y="0px"
	 viewBox="0 0 31 31" style="enable-background:new 0 0 31 31;" xml:space="preserve">
<style type="text/css">
	.st0{fill:#FFFFFF;}
	.st1{fill:#1D2E38;}
</style>
<g>
	<g id="XMLID_1_">
		<g>
			<path class="st0" d="M12,15.9l1.7,1.4c0.5,0.5,1.1,0.7,1.8,0.7c0.7,0,1.3-0.2,1.8-0.6l1.7-1.5c0,0,0,0,0,0.1l5.8,5.4
				c0.1,0.1,0.2,0.1,0.3,0.1s0.3,0,0.4-0.1c0.2-0.2,0.2-0.5,0-0.7l-5.8-5.4l10.2-8.9C30,6.6,30,6.8,30,7v17c0,0.8-0.7,1.5-1.5,1.5
				h-26C1.7,25.5,1,24.8,1,24V7c0-0.2,0-0.4,0.1-0.5l10.2,8.8l-5.8,5.4c-0.2,0.2-0.2,0.5,0,0.7c0.1,0.1,0.3,0.2,0.4,0.2
				s0.2,0,0.3-0.2L12,15.9C12,15.9,12,15.9,12,15.9z"/>
			<path class="st0" d="M2.5,5.5h26c0.2,0,0.5,0.1,0.7,0.2L16.7,16.6c-0.7,0.6-1.8,0.6-2.4,0L1.8,5.7C2,5.6,2.3,5.5,2.5,5.5z"/>
			<path class="st1" d="M30.2,5.4c0.2,0.2,0.2,0.5,0,0.7l-0.3,0.3c-0.1-0.3-0.4-0.6-0.7-0.7l0.3-0.3C29.7,5.2,30,5.2,30.2,5.4z"/>
			<path class="st1" d="M25.5,20.7c0.2,0.2,0.2,0.5,0,0.7c-0.1,0.1-0.3,0.1-0.4,0.1s-0.2,0-0.3-0.1L19,16c0,0,0,0,0-0.1l0.7-0.6
				L25.5,20.7z"/>
			<path class="st1" d="M19.7,15.3L19,15.9c-0.2-0.2-0.1-0.5,0-0.6C19.2,15.1,19.5,15.1,19.7,15.3z"/>
			<path class="st1" d="M12,15.9c0.2-0.2,0.2-0.5,0-0.7c-0.2-0.2-0.5-0.2-0.7,0l0,0L1.1,6.5c0.1-0.3,0.4-0.6,0.7-0.8l12.5,10.9
				c0.6,0.6,1.7,0.6,2.4,0L29.2,5.7c0.3,0.2,0.5,0.4,0.7,0.7l-10.2,8.9c-0.2-0.2-0.5-0.2-0.7,0c-0.2,0.2-0.2,0.4,0,0.6l-1.7,1.5
				c-0.5,0.4-1.1,0.6-1.8,0.6c-0.7,0-1.3-0.2-1.8-0.7L12,15.9z"/>
			<path class="st1" d="M11.3,15.2c0.2-0.2,0.5-0.2,0.7,0c0.2,0.2,0.2,0.5,0,0.7L11.3,15.2L11.3,15.2z"/>
			<path class="st1" d="M6.2,21.3c-0.1,0.2-0.2,0.2-0.3,0.2s-0.3-0.1-0.4-0.2c-0.2-0.2-0.2-0.5,0-0.7l5.8-5.4l0.8,0.6c0,0,0,0,0,0
				L6.2,21.3z"/>
			<path class="st1" d="M1.8,5.7C1.5,5.8,1.2,6.1,1.1,6.5L0.8,6.2C0.6,6,0.6,5.7,0.8,5.4c0.2-0.2,0.5-0.2,0.7,0L1.8,5.7z"/>
			<path class="st1" d="M28.5,5.5h-26C2.3,5.5,2,5.6,1.8,5.7L1.5,5.4C1.3,5.2,1,5.2,0.8,5.4H0.6C1,4.8,1.7,4.5,2.5,4.5h26
				c0.7,0,1.4,0.3,1.8,0.8l-0.1,0.1c-0.2-0.2-0.5-0.2-0.7,0l-0.3,0.3C29,5.6,28.7,5.5,28.5,5.5z"/>
			<path class="st1" d="M28.5,26.5h-26C1.1,26.5,0,25.4,0,24V7c0-0.6,0.2-1.2,0.6-1.6h0.2C0.6,5.7,0.6,6,0.8,6.2l0.3,0.3
				C1,6.6,1,6.8,1,7v17c0,0.8,0.7,1.5,1.5,1.5h26c0.8,0,1.5-0.7,1.5-1.5V7c0-0.2,0-0.4-0.1-0.6l0.3-0.3c0.2-0.2,0.2-0.5,0-0.7
				l0.1-0.1C30.8,5.7,31,6.3,31,7v17C31,25.4,29.9,26.5,28.5,26.5z"/>
		</g>
		<g>
		</g>
	</g>
</g>
</svg>
