<?xml version="1.0" encoding="utf-8"?>
<!-- Generator: Adobe Illustrator 22.1.0, SVG Export Plug-In . SVG Version: 6.00 Build 0)  -->
<svg version="1.1" id="Capa_1" xmlns="http://www.w3.org/2000/svg" xmlns:xlink="http://www.w3.org/1999/xlink" x="0px" y="0px"
	 viewBox="0 0 31 31" style="enable-background:new 0 0 31 31;" xml:space="preserve">
<style type="text/css">
	.st0{fill:#1C2E38;}
</style>
<g>
	<g id="XMLID_1_">
		<g>
			<path class="st0" d="M5.4,21c0,0.1,0,0.3,0.1,0.4c0.1,0.1,0.3,0.2,0.4,0.2s0.2,0,0.3-0.2l5.7-5.4l0.1-0.1l1.7,1.4
				c0.5,0.5,1.1,0.7,1.8,0.7c0.7,0,1.3-0.2,1.8-0.6l0.1,0l1.5-1.3l0.1-0.1c0,0,0,0,0.1,0.1l5.8,5.4c0.1,0.1,0.2,0.1,0.3,0.1
				s0.3,0,0.4-0.1c0.2-0.2,0.2-0.5,0-0.7l-5.8-5.4l10.2-8.9C30,6.6,30,6.8,30,7v17c0,0.8-0.7,1.5-1.5,1.5h-26C1.7,25.5,1,24.8,1,24
				V7c0-0.2,0-0.4,0.1-0.5l0,0l10.1,8.7l-5.7,5.4C5.4,20.7,5.3,20.9,5.4,21z"/>
			<path class="st0" d="M17.4,17.4l1.5-1.3L17.4,17.4z"/>
			<path class="st0" d="M29.2,5.7L16.7,16.6c-0.7,0.6-1.8,0.6-2.4,0L1.8,5.7C2,5.6,2.3,5.5,2.5,5.5h26C28.7,5.5,29,5.6,29.2,5.7z"/>
		</g>
		<g>
		</g>
	</g>
</g>
</svg>
